<svg xmlns="http://www.w3.org/2000/svg" xmlns:xlink="http://www.w3.org/1999/xlink" width="48" zoomAndPan="magnify" viewBox="0 0 36 36.000001" height="48" preserveAspectRatio="xMidYMid meet" version="1.0"><defs><g/><clipPath id="4b20f184c3"><path d="M 0.488281 0 L 35.511719 0 L 35.511719 35.027344 L 0.488281 35.027344 Z M 0.488281 0 " clip-rule="nonzero"/></clipPath><clipPath id="a15205bfe2"><path d="M 1.320312 0.863281 L 34.890625 0.863281 L 34.890625 34.429688 L 1.320312 34.429688 Z M 1.320312 0.863281 " clip-rule="nonzero"/></clipPath><clipPath id="0271bddef3"><path d="M 1.320312 11 L 14 11 L 14 34.429688 L 1.320312 34.429688 Z M 1.320312 11 " clip-rule="nonzero"/></clipPath><clipPath id="78585cd609"><path d="M 21 0.863281 L 34.890625 0.863281 L 34.890625 23 L 21 23 Z M 21 0.863281 " clip-rule="nonzero"/></clipPath><clipPath id="9a78026fba"><path d="M 0.5625 0.386719 L 2 0.386719 L 2 2 L 0.5625 2 Z M 0.5625 0.386719 " clip-rule="nonzero"/></clipPath><clipPath id="2c4aac8655"><path d="M 2 0.386719 L 4 0.386719 L 4 2 L 2 2 Z M 2 0.386719 " clip-rule="nonzero"/></clipPath><clipPath id="23cee458dc"><path d="M 5 0.386719 L 6 0.386719 L 6 2 L 5 2 Z M 5 0.386719 " clip-rule="nonzero"/></clipPath><clipPath id="7f3ff5b7ad"><path d="M 6 0.386719 L 8 0.386719 L 8 2 L 6 2 Z M 6 0.386719 " clip-rule="nonzero"/></clipPath><clipPath id="06d71e07ed"><path d="M 8 0.386719 L 10 0.386719 L 10 2 L 8 2 Z M 8 0.386719 " clip-rule="nonzero"/></clipPath><clipPath id="4f2729d5d2"><rect x="0" width="11" y="0" height="3"/></clipPath><clipPath id="940a79c74e"><path d="M 0.265625 1 L 1 1 L 1 1.65625 L 0.265625 1.65625 Z M 0.265625 1 " clip-rule="nonzero"/></clipPath><clipPath id="082ba30a80"><path d="M 1 1 L 2 1 L 2 1.65625 L 1 1.65625 Z M 1 1 " clip-rule="nonzero"/></clipPath><clipPath id="1bcdd967f6"><path d="M 1 0.722656 L 3 0.722656 L 3 1.65625 L 1 1.65625 Z M 1 0.722656 " clip-rule="nonzero"/></clipPath><clipPath id="9d8b8372ec"><path d="M 2 0.722656 L 4 0.722656 L 4 1.65625 L 2 1.65625 Z M 2 0.722656 " clip-rule="nonzero"/></clipPath><clipPath id="3470dd0b49"><path d="M 3 1 L 4 1 L 4 1.65625 L 3 1.65625 Z M 3 1 " clip-rule="nonzero"/></clipPath><clipPath id="e434202135"><path d="M 4 0.722656 L 5 0.722656 L 5 1.65625 L 4 1.65625 Z M 4 0.722656 " clip-rule="nonzero"/></clipPath><clipPath id="677981bd27"><path d="M 4 0.722656 L 6 0.722656 L 6 1.65625 L 4 1.65625 Z M 4 0.722656 " clip-rule="nonzero"/></clipPath><clipPath id="d5319847db"><path d="M 5 0.722656 L 7 0.722656 L 7 1.65625 L 5 1.65625 Z M 5 0.722656 " clip-rule="nonzero"/></clipPath><clipPath id="d6fbf76ef1"><path d="M 6 1 L 7 1 L 7 1.65625 L 6 1.65625 Z M 6 1 " clip-rule="nonzero"/></clipPath><clipPath id="238b3c4cbf"><path d="M 7 1 L 7.96875 1 L 7.96875 1.65625 L 7 1.65625 Z M 7 1 " clip-rule="nonzero"/></clipPath><clipPath id="93c7054e9c"><rect x="0" width="8" y="0" height="2"/></clipPath></defs><g clip-path="url(#4b20f184c3)"><path fill="#ffffff" d="M 0.488281 0 L 35.511719 0 L 35.511719 35.027344 L 0.488281 35.027344 Z M 0.488281 0 " fill-opacity="1" fill-rule="nonzero"/><path fill="#000000" d="M 0.488281 0 L 35.511719 0 L 35.511719 35.027344 L 0.488281 35.027344 Z M 0.488281 0 " fill-opacity="1" fill-rule="nonzero"/></g><path fill="#ffffff" d="M 2.019531 1.570312 L 33.972656 33.519531 " fill-opacity="1" fill-rule="nonzero"/><g clip-path="url(#a15205bfe2)"><path fill="#ffffff" d="M 33.972656 34.15625 C 33.8125 34.15625 33.648438 34.09375 33.523438 33.972656 L 1.570312 2.019531 C 1.324219 1.773438 1.324219 1.371094 1.570312 1.121094 C 1.820312 0.875 2.222656 0.875 2.46875 1.121094 L 34.421875 33.070312 C 34.671875 33.320312 34.671875 33.722656 34.421875 33.96875 C 34.300781 34.09375 34.136719 34.15625 33.972656 34.15625 Z M 33.972656 34.15625 " fill-opacity="1" fill-rule="nonzero"/></g><g clip-path="url(#0271bddef3)"><path fill="#ffffff" d="M 2.019531 34.15625 C 1.667969 34.15625 1.386719 33.871094 1.386719 33.519531 L 1.390625 12.167969 C 1.390625 11.800781 1.609375 11.472656 1.949219 11.332031 C 2.289062 11.191406 2.675781 11.269531 2.9375 11.527344 L 13.277344 21.785156 C 13.527344 22.03125 13.53125 22.433594 13.28125 22.683594 C 13.035156 22.933594 12.632812 22.933594 12.382812 22.6875 L 2.664062 13.050781 L 2.65625 33.519531 C 2.65625 33.871094 2.371094 34.15625 2.019531 34.15625 Z M 2.039062 12.429688 C 2.039062 12.429688 2.039062 12.433594 2.042969 12.433594 Z M 2.039062 12.429688 " fill-opacity="1" fill-rule="nonzero"/></g><g clip-path="url(#78585cd609)"><path fill="#ffffff" d="M 33.972656 22.871094 C 33.621094 22.871094 33.339844 22.585938 33.335938 22.234375 L 33.332031 2.71875 L 22.339844 13.625 C 22.089844 13.875 21.6875 13.871094 21.441406 13.625 C 21.191406 13.375 21.195312 12.972656 21.445312 12.726562 L 33.058594 1.195312 C 33.316406 0.9375 33.707031 0.859375 34.042969 1 C 34.382812 1.140625 34.601562 1.46875 34.601562 1.835938 L 34.609375 22.234375 C 34.609375 22.585938 34.324219 22.871094 33.972656 22.871094 Z M 33.957031 2.097656 Z M 33.957031 2.097656 " fill-opacity="1" fill-rule="nonzero"/></g><g transform="matrix(1, 0, 0, 1, 13, 26)"><g clip-path="url(#4f2729d5d2)"><g clip-path="url(#9a78026fba)"><g fill="#fffbfa" fill-opacity="1"><g transform="translate(0.756471, 1.939765)"><g><path d="M 0.296875 0 L 0.125 0 C 0.101562 0 0.09375 -0.0078125 0.09375 -0.03125 L 0.09375 -0.96875 C 0.09375 -0.976562 0.0976562 -0.988281 0.109375 -1 C 0.117188 -1.007812 0.125 -1.007812 0.125 -1 C 0.132812 -1 0.144531 -0.992188 0.15625 -0.984375 L 0.578125 -0.4375 L 1.015625 -0.984375 C 1.023438 -0.992188 1.03125 -1 1.03125 -1 C 1.039062 -1.007812 1.050781 -1.007812 1.0625 -1 C 1.070312 -0.988281 1.078125 -0.976562 1.078125 -0.96875 L 1.078125 -0.03125 C 1.078125 -0.0078125 1.066406 0 1.046875 0 L 0.875 0 C 0.863281 0 0.859375 -0.0078125 0.859375 -0.03125 L 0.859375 -0.46875 L 0.609375 -0.15625 C 0.585938 -0.144531 0.570312 -0.144531 0.5625 -0.15625 L 0.3125 -0.46875 L 0.3125 -0.03125 C 0.3125 -0.0078125 0.304688 0 0.296875 0 Z M 0.296875 0 "/></g></g></g></g><g clip-path="url(#2c4aac8655)"><g fill="#fffbfa" fill-opacity="1"><g transform="translate(2.969187, 1.939765)"><g><path d="M 0.53125 -0.984375 L 0.96875 -0.03125 C 0.96875 -0.0195312 0.960938 -0.0078125 0.953125 0 C 0.953125 0 0.945312 0 0.9375 0 L 0.75 0 C 0.738281 0 0.726562 -0.00390625 0.71875 -0.015625 L 0.6875 -0.125 L 0.296875 -0.125 L 0.265625 -0.015625 C 0.253906 -0.00390625 0.242188 0 0.234375 0 L 0.046875 0 C 0.0351562 0 0.0234375 0 0.015625 0 C 0.015625 -0.0078125 0.015625 -0.0195312 0.015625 -0.03125 L 0.453125 -0.984375 C 0.460938 -1.003906 0.472656 -1.015625 0.484375 -1.015625 C 0.503906 -1.015625 0.519531 -1.003906 0.53125 -0.984375 Z M 0.484375 -0.609375 L 0.375 -0.296875 L 0.609375 -0.296875 Z M 0.484375 -0.609375 "/></g></g></g></g><g clip-path="url(#23cee458dc)"><g fill="#fffbfa" fill-opacity="1"><g transform="translate(4.995561, 1.939765)"><g><path d="M 0.390625 0.03125 C 0.347656 0.03125 0.300781 0.0234375 0.25 0.015625 C 0.195312 0.00390625 0.140625 -0.0078125 0.078125 -0.03125 C 0.0546875 -0.0390625 0.0507812 -0.0507812 0.0625 -0.0625 L 0.109375 -0.203125 C 0.117188 -0.222656 0.128906 -0.226562 0.140625 -0.21875 C 0.179688 -0.195312 0.222656 -0.179688 0.265625 -0.171875 C 0.316406 -0.171875 0.359375 -0.171875 0.390625 -0.171875 C 0.429688 -0.171875 0.460938 -0.175781 0.484375 -0.1875 C 0.515625 -0.195312 0.53125 -0.21875 0.53125 -0.25 C 0.53125 -0.269531 0.519531 -0.285156 0.5 -0.296875 C 0.488281 -0.316406 0.472656 -0.332031 0.453125 -0.34375 C 0.429688 -0.363281 0.40625 -0.378906 0.375 -0.390625 C 0.34375 -0.398438 0.316406 -0.414062 0.296875 -0.4375 C 0.265625 -0.445312 0.234375 -0.460938 0.203125 -0.484375 C 0.179688 -0.503906 0.160156 -0.523438 0.140625 -0.546875 C 0.117188 -0.566406 0.0976562 -0.59375 0.078125 -0.625 C 0.0664062 -0.65625 0.0625 -0.6875 0.0625 -0.71875 C 0.0625 -0.769531 0.0703125 -0.8125 0.09375 -0.84375 C 0.113281 -0.882812 0.140625 -0.914062 0.171875 -0.9375 C 0.203125 -0.96875 0.238281 -0.988281 0.28125 -1 C 0.320312 -1.007812 0.363281 -1.015625 0.40625 -1.015625 C 0.4375 -1.015625 0.460938 -1.007812 0.484375 -1 C 0.515625 -1 0.546875 -0.992188 0.578125 -0.984375 C 0.609375 -0.972656 0.640625 -0.960938 0.671875 -0.953125 C 0.691406 -0.953125 0.695312 -0.941406 0.6875 -0.921875 L 0.65625 -0.796875 C 0.644531 -0.773438 0.628906 -0.769531 0.609375 -0.78125 C 0.578125 -0.789062 0.539062 -0.796875 0.5 -0.796875 C 0.46875 -0.804688 0.441406 -0.8125 0.421875 -0.8125 C 0.390625 -0.8125 0.363281 -0.804688 0.34375 -0.796875 C 0.332031 -0.796875 0.320312 -0.789062 0.3125 -0.78125 C 0.300781 -0.769531 0.296875 -0.753906 0.296875 -0.734375 C 0.296875 -0.722656 0.300781 -0.707031 0.3125 -0.6875 C 0.320312 -0.675781 0.335938 -0.664062 0.359375 -0.65625 C 0.378906 -0.644531 0.398438 -0.628906 0.421875 -0.609375 C 0.441406 -0.597656 0.46875 -0.585938 0.5 -0.578125 C 0.53125 -0.566406 0.5625 -0.550781 0.59375 -0.53125 C 0.625 -0.507812 0.648438 -0.488281 0.671875 -0.46875 C 0.703125 -0.445312 0.722656 -0.414062 0.734375 -0.375 C 0.742188 -0.34375 0.75 -0.304688 0.75 -0.265625 C 0.75 -0.222656 0.742188 -0.1875 0.734375 -0.15625 C 0.722656 -0.125 0.703125 -0.09375 0.671875 -0.0625 C 0.648438 -0.0390625 0.625 -0.0234375 0.59375 -0.015625 C 0.5625 -0.00390625 0.53125 0.00390625 0.5 0.015625 C 0.46875 0.0234375 0.429688 0.03125 0.390625 0.03125 Z M 0.390625 0.03125 "/></g></g></g></g><g clip-path="url(#7f3ff5b7ad)"><g fill="#fffbfa" fill-opacity="1"><g transform="translate(6.847079, 1.939765)"><g><path d="M 0.703125 -0.359375 L 0.875 -0.03125 C 0.875 -0.0195312 0.875 -0.0078125 0.875 0 C 0.875 0 0.867188 0 0.859375 0 L 0.65625 0 C 0.644531 0 0.632812 -0.00390625 0.625 -0.015625 L 0.46875 -0.328125 L 0.328125 -0.328125 L 0.328125 -0.03125 C 0.328125 -0.0078125 0.316406 0 0.296875 0 L 0.125 0 C 0.101562 0 0.09375 -0.0078125 0.09375 -0.03125 L 0.09375 -0.953125 C 0.09375 -0.972656 0.101562 -0.984375 0.125 -0.984375 L 0.484375 -0.984375 C 0.554688 -0.984375 0.613281 -0.972656 0.65625 -0.953125 C 0.707031 -0.941406 0.742188 -0.921875 0.765625 -0.890625 C 0.796875 -0.859375 0.816406 -0.820312 0.828125 -0.78125 C 0.847656 -0.75 0.859375 -0.707031 0.859375 -0.65625 C 0.859375 -0.582031 0.84375 -0.519531 0.8125 -0.46875 C 0.78125 -0.425781 0.742188 -0.390625 0.703125 -0.359375 Z M 0.453125 -0.796875 L 0.328125 -0.796875 L 0.328125 -0.515625 L 0.453125 -0.515625 C 0.460938 -0.515625 0.472656 -0.515625 0.484375 -0.515625 C 0.503906 -0.523438 0.519531 -0.53125 0.53125 -0.53125 C 0.550781 -0.53125 0.566406 -0.535156 0.578125 -0.546875 C 0.597656 -0.554688 0.609375 -0.570312 0.609375 -0.59375 C 0.617188 -0.613281 0.625 -0.632812 0.625 -0.65625 C 0.625 -0.6875 0.617188 -0.707031 0.609375 -0.71875 C 0.609375 -0.738281 0.597656 -0.753906 0.578125 -0.765625 C 0.566406 -0.773438 0.550781 -0.78125 0.53125 -0.78125 C 0.519531 -0.78125 0.503906 -0.78125 0.484375 -0.78125 C 0.472656 -0.789062 0.460938 -0.796875 0.453125 -0.796875 Z M 0.453125 -0.796875 "/></g></g></g></g><g clip-path="url(#06d71e07ed)"><g fill="#fffbfa" fill-opacity="1"><g transform="translate(8.824315, 1.939765)"><g><path d="M 0.296875 0 L 0.125 0 C 0.101562 0 0.09375 -0.0078125 0.09375 -0.03125 L 0.09375 -0.953125 C 0.09375 -0.972656 0.101562 -0.984375 0.125 -0.984375 L 0.296875 -0.984375 C 0.316406 -0.984375 0.328125 -0.972656 0.328125 -0.953125 L 0.328125 -0.03125 C 0.328125 -0.0078125 0.316406 0 0.296875 0 Z M 0.296875 0 "/></g></g></g></g></g></g><g transform="matrix(1, 0, 0, 1, 14, 28)"><g clip-path="url(#93c7054e9c)"><g clip-path="url(#940a79c74e)"><g fill="#fffbfa" fill-opacity="1"><g transform="translate(0.507341, 1.491646)"><g><path d="M 0.109375 0 L 0.0625 0 C 0.0507812 0 0.046875 -0.00390625 0.046875 -0.015625 L 0.046875 -0.484375 C 0.046875 -0.484375 0.0507812 -0.484375 0.0625 -0.484375 L 0.1875 -0.484375 C 0.25 -0.484375 0.296875 -0.46875 0.328125 -0.4375 C 0.367188 -0.414062 0.390625 -0.378906 0.390625 -0.328125 C 0.390625 -0.265625 0.367188 -0.21875 0.328125 -0.1875 C 0.296875 -0.164062 0.25 -0.15625 0.1875 -0.15625 L 0.109375 -0.15625 L 0.109375 -0.015625 C 0.109375 -0.00390625 0.109375 0 0.109375 0 Z M 0.109375 -0.421875 L 0.109375 -0.21875 L 0.1875 -0.21875 C 0.1875 -0.21875 0.191406 -0.21875 0.203125 -0.21875 C 0.210938 -0.21875 0.222656 -0.21875 0.234375 -0.21875 C 0.242188 -0.21875 0.253906 -0.21875 0.265625 -0.21875 C 0.273438 -0.226562 0.285156 -0.234375 0.296875 -0.234375 C 0.304688 -0.242188 0.3125 -0.253906 0.3125 -0.265625 C 0.320312 -0.285156 0.328125 -0.304688 0.328125 -0.328125 C 0.328125 -0.335938 0.320312 -0.347656 0.3125 -0.359375 C 0.3125 -0.378906 0.304688 -0.390625 0.296875 -0.390625 C 0.285156 -0.398438 0.273438 -0.40625 0.265625 -0.40625 C 0.253906 -0.414062 0.242188 -0.421875 0.234375 -0.421875 C 0.222656 -0.421875 0.210938 -0.421875 0.203125 -0.421875 C 0.191406 -0.421875 0.1875 -0.421875 0.1875 -0.421875 Z M 0.109375 -0.421875 "/></g></g></g></g><g clip-path="url(#082ba30a80)"><g fill="#fffbfa" fill-opacity="1"><g transform="translate(1.175623, 1.491646)"><g><path d="M 0.296875 -0.171875 L 0.375 -0.015625 C 0.375 -0.015625 0.375 -0.0078125 0.375 0 L 0.328125 0 C 0.316406 0 0.3125 -0.00390625 0.3125 -0.015625 L 0.234375 -0.15625 C 0.222656 -0.15625 0.210938 -0.15625 0.203125 -0.15625 C 0.203125 -0.15625 0.195312 -0.15625 0.1875 -0.15625 L 0.109375 -0.15625 L 0.109375 -0.015625 C 0.109375 -0.00390625 0.109375 0 0.109375 0 L 0.0625 0 C 0.0507812 0 0.046875 -0.00390625 0.046875 -0.015625 L 0.046875 -0.484375 C 0.046875 -0.484375 0.0507812 -0.484375 0.0625 -0.484375 L 0.1875 -0.484375 C 0.25 -0.484375 0.296875 -0.46875 0.328125 -0.4375 C 0.367188 -0.414062 0.390625 -0.378906 0.390625 -0.328125 C 0.390625 -0.242188 0.359375 -0.191406 0.296875 -0.171875 Z M 0.109375 -0.21875 L 0.1875 -0.21875 C 0.1875 -0.21875 0.191406 -0.21875 0.203125 -0.21875 C 0.210938 -0.21875 0.222656 -0.21875 0.234375 -0.21875 C 0.242188 -0.21875 0.253906 -0.21875 0.265625 -0.21875 C 0.273438 -0.226562 0.285156 -0.234375 0.296875 -0.234375 C 0.304688 -0.242188 0.3125 -0.253906 0.3125 -0.265625 C 0.320312 -0.285156 0.328125 -0.304688 0.328125 -0.328125 C 0.328125 -0.335938 0.320312 -0.347656 0.3125 -0.359375 C 0.3125 -0.378906 0.304688 -0.390625 0.296875 -0.390625 C 0.285156 -0.398438 0.273438 -0.40625 0.265625 -0.40625 C 0.253906 -0.414062 0.242188 -0.421875 0.234375 -0.421875 C 0.222656 -0.421875 0.210938 -0.421875 0.203125 -0.421875 C 0.191406 -0.421875 0.1875 -0.421875 0.1875 -0.421875 L 0.109375 -0.421875 Z M 0.109375 -0.21875 "/></g></g></g></g><g clip-path="url(#1bcdd967f6)"><g fill="#fffbfa" fill-opacity="1"><g transform="translate(1.853802, 1.491646)"><g><path d="M 0.28125 0.015625 C 0.257812 0.015625 0.234375 0.0078125 0.203125 0 C 0.171875 -0.0078125 0.144531 -0.0195312 0.125 -0.03125 C 0.113281 -0.0507812 0.0976562 -0.0703125 0.078125 -0.09375 C 0.0546875 -0.113281 0.0390625 -0.132812 0.03125 -0.15625 C 0.03125 -0.1875 0.03125 -0.21875 0.03125 -0.25 C 0.03125 -0.269531 0.03125 -0.296875 0.03125 -0.328125 C 0.0390625 -0.359375 0.0546875 -0.378906 0.078125 -0.390625 C 0.0976562 -0.410156 0.113281 -0.429688 0.125 -0.453125 C 0.144531 -0.472656 0.171875 -0.484375 0.203125 -0.484375 C 0.234375 -0.492188 0.257812 -0.5 0.28125 -0.5 C 0.3125 -0.5 0.335938 -0.492188 0.359375 -0.484375 C 0.378906 -0.484375 0.398438 -0.472656 0.421875 -0.453125 C 0.453125 -0.429688 0.472656 -0.410156 0.484375 -0.390625 C 0.503906 -0.378906 0.519531 -0.359375 0.53125 -0.328125 C 0.539062 -0.296875 0.546875 -0.269531 0.546875 -0.25 C 0.546875 -0.21875 0.539062 -0.1875 0.53125 -0.15625 C 0.519531 -0.132812 0.503906 -0.113281 0.484375 -0.09375 C 0.472656 -0.0703125 0.453125 -0.0507812 0.421875 -0.03125 C 0.398438 -0.0195312 0.378906 -0.0078125 0.359375 0 C 0.335938 0.0078125 0.3125 0.015625 0.28125 0.015625 Z M 0.28125 -0.046875 C 0.3125 -0.046875 0.335938 -0.0507812 0.359375 -0.0625 C 0.378906 -0.0703125 0.398438 -0.0820312 0.421875 -0.09375 C 0.441406 -0.113281 0.457031 -0.132812 0.46875 -0.15625 C 0.476562 -0.1875 0.484375 -0.21875 0.484375 -0.25 C 0.484375 -0.269531 0.476562 -0.289062 0.46875 -0.3125 C 0.457031 -0.34375 0.441406 -0.363281 0.421875 -0.375 C 0.398438 -0.394531 0.378906 -0.410156 0.359375 -0.421875 C 0.335938 -0.429688 0.3125 -0.4375 0.28125 -0.4375 C 0.257812 -0.4375 0.234375 -0.429688 0.203125 -0.421875 C 0.179688 -0.410156 0.160156 -0.394531 0.140625 -0.375 C 0.128906 -0.363281 0.117188 -0.34375 0.109375 -0.3125 C 0.0976562 -0.289062 0.09375 -0.269531 0.09375 -0.25 C 0.09375 -0.21875 0.0976562 -0.1875 0.109375 -0.15625 C 0.117188 -0.132812 0.128906 -0.113281 0.140625 -0.09375 C 0.160156 -0.0820312 0.179688 -0.0703125 0.203125 -0.0625 C 0.234375 -0.0507812 0.257812 -0.046875 0.28125 -0.046875 Z M 0.28125 -0.046875 "/></g></g></g></g><g clip-path="url(#9d8b8372ec)"><g fill="#fffbfa" fill-opacity="1"><g transform="translate(2.681716, 1.491646)"><g><path d="M 0.28125 0.015625 C 0.257812 0.015625 0.234375 0.0078125 0.203125 0 C 0.171875 -0.0078125 0.144531 -0.0195312 0.125 -0.03125 C 0.113281 -0.0507812 0.0976562 -0.0703125 0.078125 -0.09375 C 0.0546875 -0.113281 0.0390625 -0.132812 0.03125 -0.15625 C 0.03125 -0.1875 0.03125 -0.21875 0.03125 -0.25 C 0.03125 -0.269531 0.03125 -0.296875 0.03125 -0.328125 C 0.0390625 -0.359375 0.0546875 -0.378906 0.078125 -0.390625 C 0.0976562 -0.410156 0.113281 -0.429688 0.125 -0.453125 C 0.144531 -0.472656 0.171875 -0.484375 0.203125 -0.484375 C 0.234375 -0.492188 0.257812 -0.5 0.28125 -0.5 C 0.320312 -0.5 0.351562 -0.488281 0.375 -0.46875 C 0.40625 -0.457031 0.429688 -0.441406 0.453125 -0.421875 C 0.460938 -0.421875 0.460938 -0.414062 0.453125 -0.40625 L 0.421875 -0.390625 C 0.421875 -0.378906 0.414062 -0.378906 0.40625 -0.390625 C 0.394531 -0.398438 0.375 -0.410156 0.34375 -0.421875 C 0.320312 -0.429688 0.300781 -0.4375 0.28125 -0.4375 C 0.257812 -0.4375 0.234375 -0.429688 0.203125 -0.421875 C 0.179688 -0.410156 0.160156 -0.394531 0.140625 -0.375 C 0.128906 -0.363281 0.117188 -0.34375 0.109375 -0.3125 C 0.0976562 -0.289062 0.09375 -0.269531 0.09375 -0.25 C 0.09375 -0.21875 0.0976562 -0.1875 0.109375 -0.15625 C 0.117188 -0.132812 0.128906 -0.113281 0.140625 -0.09375 C 0.160156 -0.0820312 0.179688 -0.0703125 0.203125 -0.0625 C 0.234375 -0.0507812 0.257812 -0.046875 0.28125 -0.046875 C 0.300781 -0.046875 0.320312 -0.0507812 0.34375 -0.0625 C 0.375 -0.0703125 0.394531 -0.0859375 0.40625 -0.109375 L 0.40625 -0.15625 L 0.296875 -0.15625 C 0.285156 -0.15625 0.28125 -0.160156 0.28125 -0.171875 L 0.28125 -0.203125 C 0.28125 -0.210938 0.285156 -0.21875 0.296875 -0.21875 L 0.453125 -0.21875 C 0.460938 -0.21875 0.46875 -0.210938 0.46875 -0.203125 L 0.46875 -0.078125 C 0.46875 -0.078125 0.460938 -0.0703125 0.453125 -0.0625 C 0.429688 -0.0390625 0.40625 -0.0195312 0.375 0 C 0.351562 0.0078125 0.320312 0.015625 0.28125 0.015625 Z M 0.28125 0.015625 "/></g></g></g></g><g clip-path="url(#3470dd0b49)"><g fill="#fffbfa" fill-opacity="1"><g transform="translate(3.445139, 1.491646)"><g><path d="M 0.296875 -0.171875 L 0.375 -0.015625 C 0.375 -0.015625 0.375 -0.0078125 0.375 0 L 0.328125 0 C 0.316406 0 0.3125 -0.00390625 0.3125 -0.015625 L 0.234375 -0.15625 C 0.222656 -0.15625 0.210938 -0.15625 0.203125 -0.15625 C 0.203125 -0.15625 0.195312 -0.15625 0.1875 -0.15625 L 0.109375 -0.15625 L 0.109375 -0.015625 C 0.109375 -0.00390625 0.109375 0 0.109375 0 L 0.0625 0 C 0.0507812 0 0.046875 -0.00390625 0.046875 -0.015625 L 0.046875 -0.484375 C 0.046875 -0.484375 0.0507812 -0.484375 0.0625 -0.484375 L 0.1875 -0.484375 C 0.25 -0.484375 0.296875 -0.46875 0.328125 -0.4375 C 0.367188 -0.414062 0.390625 -0.378906 0.390625 -0.328125 C 0.390625 -0.242188 0.359375 -0.191406 0.296875 -0.171875 Z M 0.109375 -0.21875 L 0.1875 -0.21875 C 0.1875 -0.21875 0.191406 -0.21875 0.203125 -0.21875 C 0.210938 -0.21875 0.222656 -0.21875 0.234375 -0.21875 C 0.242188 -0.21875 0.253906 -0.21875 0.265625 -0.21875 C 0.273438 -0.226562 0.285156 -0.234375 0.296875 -0.234375 C 0.304688 -0.242188 0.3125 -0.253906 0.3125 -0.265625 C 0.320312 -0.285156 0.328125 -0.304688 0.328125 -0.328125 C 0.328125 -0.335938 0.320312 -0.347656 0.3125 -0.359375 C 0.3125 -0.378906 0.304688 -0.390625 0.296875 -0.390625 C 0.285156 -0.398438 0.273438 -0.40625 0.265625 -0.40625 C 0.253906 -0.414062 0.242188 -0.421875 0.234375 -0.421875 C 0.222656 -0.421875 0.210938 -0.421875 0.203125 -0.421875 C 0.191406 -0.421875 0.1875 -0.421875 0.1875 -0.421875 L 0.109375 -0.421875 Z M 0.109375 -0.21875 "/></g></g></g></g><g clip-path="url(#e434202135)"><g fill="#fffbfa" fill-opacity="1"><g transform="translate(4.123319, 1.491646)"><g><path d="M 0.234375 -0.484375 L 0.4375 -0.015625 C 0.4375 -0.015625 0.4375 -0.0078125 0.4375 0 C 0.4375 0 0.429688 0 0.421875 0 L 0.390625 0 C 0.390625 0 0.382812 0 0.375 0 C 0.375 0 0.375 -0.00390625 0.375 -0.015625 L 0.34375 -0.109375 L 0.109375 -0.109375 L 0.078125 -0.015625 C 0.078125 -0.00390625 0.0703125 0 0.0625 0 L 0.015625 0 C 0.015625 -0.0078125 0.015625 -0.015625 0.015625 -0.015625 L 0.21875 -0.484375 C 0.21875 -0.492188 0.21875 -0.5 0.21875 -0.5 C 0.226562 -0.5 0.234375 -0.492188 0.234375 -0.484375 Z M 0.21875 -0.375 L 0.125 -0.15625 L 0.3125 -0.15625 Z M 0.21875 -0.375 "/></g></g></g></g><g clip-path="url(#677981bd27)"><g fill="#fffbfa" fill-opacity="1"><g transform="translate(4.836298, 1.491646)"><g><path d="M 0.109375 0 L 0.0625 0 C 0.0507812 0 0.046875 -0.00390625 0.046875 -0.015625 L 0.046875 -0.484375 C 0.0546875 -0.492188 0.0625 -0.5 0.0625 -0.5 C 0.0703125 -0.5 0.078125 -0.492188 0.078125 -0.484375 L 0.28125 -0.21875 L 0.484375 -0.484375 C 0.484375 -0.492188 0.484375 -0.5 0.484375 -0.5 C 0.492188 -0.5 0.5 -0.492188 0.5 -0.484375 C 0.507812 -0.484375 0.515625 -0.484375 0.515625 -0.484375 L 0.515625 -0.015625 C 0.515625 -0.00390625 0.507812 0 0.5 0 L 0.453125 0 C 0.453125 0 0.453125 -0.00390625 0.453125 -0.015625 L 0.453125 -0.34375 L 0.28125 -0.125 C 0.28125 -0.125 0.273438 -0.125 0.265625 -0.125 L 0.109375 -0.34375 L 0.109375 -0.015625 C 0.109375 -0.00390625 0.109375 0 0.109375 0 Z M 0.109375 0 "/></g></g></g></g><g clip-path="url(#d5319847db)"><g fill="#fffbfa" fill-opacity="1"><g transform="translate(5.655592, 1.491646)"><g><path d="M 0.109375 0 L 0.0625 0 C 0.0507812 0 0.046875 -0.00390625 0.046875 -0.015625 L 0.046875 -0.484375 C 0.0546875 -0.492188 0.0625 -0.5 0.0625 -0.5 C 0.0703125 -0.5 0.078125 -0.492188 0.078125 -0.484375 L 0.28125 -0.21875 L 0.484375 -0.484375 C 0.484375 -0.492188 0.484375 -0.5 0.484375 -0.5 C 0.492188 -0.5 0.5 -0.492188 0.5 -0.484375 C 0.507812 -0.484375 0.515625 -0.484375 0.515625 -0.484375 L 0.515625 -0.015625 C 0.515625 -0.00390625 0.507812 0 0.5 0 L 0.453125 0 C 0.453125 0 0.453125 -0.00390625 0.453125 -0.015625 L 0.453125 -0.34375 L 0.28125 -0.125 C 0.28125 -0.125 0.273438 -0.125 0.265625 -0.125 L 0.109375 -0.34375 L 0.109375 -0.015625 C 0.109375 -0.00390625 0.109375 0 0.109375 0 Z M 0.109375 0 "/></g></g></g></g><g clip-path="url(#d6fbf76ef1)"><g fill="#fffbfa" fill-opacity="1"><g transform="translate(6.474886, 1.491646)"><g><path d="M 0.296875 0 L 0.0625 0 C 0.0507812 0 0.046875 -0.00390625 0.046875 -0.015625 L 0.046875 -0.484375 C 0.046875 -0.484375 0.0507812 -0.484375 0.0625 -0.484375 L 0.296875 -0.484375 C 0.304688 -0.484375 0.3125 -0.484375 0.3125 -0.484375 L 0.3125 -0.453125 C 0.3125 -0.429688 0.304688 -0.421875 0.296875 -0.421875 L 0.109375 -0.421875 L 0.109375 -0.21875 L 0.28125 -0.21875 C 0.28125 -0.21875 0.28125 -0.210938 0.28125 -0.203125 L 0.28125 -0.171875 C 0.28125 -0.160156 0.28125 -0.15625 0.28125 -0.15625 L 0.109375 -0.15625 L 0.109375 -0.0625 L 0.296875 -0.0625 C 0.304688 -0.0625 0.3125 -0.0546875 0.3125 -0.046875 L 0.3125 -0.015625 C 0.3125 -0.00390625 0.304688 0 0.296875 0 Z M 0.296875 0 "/></g></g></g></g><g clip-path="url(#238b3c4cbf)"><g fill="#fffbfa" fill-opacity="1"><g transform="translate(7.073888, 1.491646)"><g><path d="M 0.296875 -0.171875 L 0.375 -0.015625 C 0.375 -0.015625 0.375 -0.0078125 0.375 0 L 0.328125 0 C 0.316406 0 0.3125 -0.00390625 0.3125 -0.015625 L 0.234375 -0.15625 C 0.222656 -0.15625 0.210938 -0.15625 0.203125 -0.15625 C 0.203125 -0.15625 0.195312 -0.15625 0.1875 -0.15625 L 0.109375 -0.15625 L 0.109375 -0.015625 C 0.109375 -0.00390625 0.109375 0 0.109375 0 L 0.0625 0 C 0.0507812 0 0.046875 -0.00390625 0.046875 -0.015625 L 0.046875 -0.484375 C 0.046875 -0.484375 0.0507812 -0.484375 0.0625 -0.484375 L 0.1875 -0.484375 C 0.25 -0.484375 0.296875 -0.46875 0.328125 -0.4375 C 0.367188 -0.414062 0.390625 -0.378906 0.390625 -0.328125 C 0.390625 -0.242188 0.359375 -0.191406 0.296875 -0.171875 Z M 0.109375 -0.21875 L 0.1875 -0.21875 C 0.1875 -0.21875 0.191406 -0.21875 0.203125 -0.21875 C 0.210938 -0.21875 0.222656 -0.21875 0.234375 -0.21875 C 0.242188 -0.21875 0.253906 -0.21875 0.265625 -0.21875 C 0.273438 -0.226562 0.285156 -0.234375 0.296875 -0.234375 C 0.304688 -0.242188 0.3125 -0.253906 0.3125 -0.265625 C 0.320312 -0.285156 0.328125 -0.304688 0.328125 -0.328125 C 0.328125 -0.335938 0.320312 -0.347656 0.3125 -0.359375 C 0.3125 -0.378906 0.304688 -0.390625 0.296875 -0.390625 C 0.285156 -0.398438 0.273438 -0.40625 0.265625 -0.40625 C 0.253906 -0.414062 0.242188 -0.421875 0.234375 -0.421875 C 0.222656 -0.421875 0.210938 -0.421875 0.203125 -0.421875 C 0.191406 -0.421875 0.1875 -0.421875 0.1875 -0.421875 L 0.109375 -0.421875 Z M 0.109375 -0.21875 "/></g></g></g></g></g></g></svg>