<svg xmlns="http://www.w3.org/2000/svg" xmlns:xlink="http://www.w3.org/1999/xlink" width="192" zoomAndPan="magnify" viewBox="0 0 144 143.999998" height="192" preserveAspectRatio="xMidYMid meet" version="1.0"><defs><g/><clipPath id="bd8957be02"><path d="M 3.433594 3.550781 L 140.683594 3.550781 L 140.683594 140.800781 L 3.433594 140.800781 Z M 3.433594 3.550781 " clip-rule="nonzero"/></clipPath><clipPath id="7a7d8114c2"><path d="M 3.433594 46 L 54 46 L 54 140.800781 L 3.433594 140.800781 Z M 3.433594 46 " clip-rule="nonzero"/></clipPath><clipPath id="b7035572d2"><path d="M 85 3.550781 L 140.683594 3.550781 L 140.683594 95 L 85 95 Z M 85 3.550781 " clip-rule="nonzero"/></clipPath><clipPath id="c4a11bf65b"><path d="M 0.238281 1 L 5 1 L 5 6 L 0.238281 6 Z M 0.238281 1 " clip-rule="nonzero"/></clipPath><clipPath id="fbf0481ec3"><rect x="0" width="41" y="0" height="8"/></clipPath><clipPath id="f2fb6e5c1e"><path d="M 0.359375 1 L 3 1 L 3 3.921875 L 0.359375 3.921875 Z M 0.359375 1 " clip-rule="nonzero"/></clipPath><clipPath id="bf650d4001"><path d="M 3 1 L 5 1 L 5 3.921875 L 3 3.921875 Z M 3 1 " clip-rule="nonzero"/></clipPath><clipPath id="42168a846e"><path d="M 6 1 L 9 1 L 9 3.921875 L 6 3.921875 Z M 6 1 " clip-rule="nonzero"/></clipPath><clipPath id="2c489eabc2"><path d="M 9 1 L 12 1 L 12 3.921875 L 9 3.921875 Z M 9 1 " clip-rule="nonzero"/></clipPath><clipPath id="52acbdfe91"><path d="M 12 1 L 15 1 L 15 3.921875 L 12 3.921875 Z M 12 1 " clip-rule="nonzero"/></clipPath><clipPath id="f0549c53c4"><path d="M 15 1 L 18 1 L 18 3.921875 L 15 3.921875 Z M 15 1 " clip-rule="nonzero"/></clipPath><clipPath id="adad68bfa1"><path d="M 18 1 L 21 1 L 21 3.921875 L 18 3.921875 Z M 18 1 " clip-rule="nonzero"/></clipPath><clipPath id="2359f9b36c"><path d="M 22 1 L 24 1 L 24 3.921875 L 22 3.921875 Z M 22 1 " clip-rule="nonzero"/></clipPath><clipPath id="c05906c6a9"><path d="M 25 1 L 27 1 L 27 3.921875 L 25 3.921875 Z M 25 1 " clip-rule="nonzero"/></clipPath><clipPath id="155607acc0"><path d="M 27 1 L 30 1 L 30 3.921875 L 27 3.921875 Z M 27 1 " clip-rule="nonzero"/></clipPath><clipPath id="71584398b4"><rect x="0" width="31" y="0" height="4"/></clipPath></defs><path fill="#000000" d="M 6.3125 6.476562 L 137.808594 138.171875 " fill-opacity="1" fill-rule="nonzero"/><g clip-path="url(#bd8957be02)"><path fill="#000000" d="M 137.808594 140.792969 C 137.140625 140.792969 136.46875 140.535156 135.957031 140.023438 L 4.460938 8.328125 C 3.4375 7.304688 3.4375 5.644531 4.460938 4.621094 C 5.480469 3.597656 7.140625 3.597656 8.160156 4.621094 L 139.660156 136.316406 C 140.679688 137.339844 140.679688 139 139.660156 140.023438 C 139.148438 140.535156 138.476562 140.792969 137.808594 140.792969 Z M 137.808594 140.792969 " fill-opacity="1" fill-rule="nonzero"/></g><g clip-path="url(#7a7d8114c2)"><path fill="#000000" d="M 6.3125 140.792969 C 6.308594 140.792969 6.308594 140.792969 6.3125 140.792969 C 4.863281 140.792969 3.695312 139.617188 3.695312 138.167969 L 3.722656 50.15625 C 3.722656 48.644531 4.625 47.292969 6.023438 46.710938 C 7.417969 46.132812 9.011719 46.449219 10.082031 47.519531 L 52.640625 89.789062 C 53.667969 90.808594 53.675781 92.46875 52.65625 93.496094 C 51.640625 94.523438 49.980469 94.53125 48.953125 93.511719 L 8.953125 53.785156 L 8.929688 138.167969 C 8.929688 139.621094 7.753906 140.792969 6.3125 140.792969 Z M 6.386719 51.234375 C 6.386719 51.238281 6.390625 51.242188 6.394531 51.242188 Z M 6.386719 51.234375 " fill-opacity="1" fill-rule="nonzero"/></g><g clip-path="url(#b7035572d2)"><path fill="#000000" d="M 137.808594 94.273438 C 136.363281 94.273438 135.191406 93.101562 135.191406 91.652344 L 135.164062 11.203125 L 89.929688 56.167969 C 88.90625 57.1875 87.25 57.179688 86.230469 56.152344 C 85.210938 55.125 85.21875 53.464844 86.242188 52.449219 L 134.046875 4.925781 C 135.109375 3.863281 136.703125 3.546875 138.097656 4.125 C 139.496094 4.703125 140.398438 6.054688 140.398438 7.570312 L 140.425781 91.652344 C 140.425781 93.097656 139.253906 94.269531 137.808594 94.273438 Z M 137.742188 8.636719 L 137.730469 8.648438 C 137.734375 8.644531 137.738281 8.644531 137.742188 8.636719 Z M 137.742188 8.636719 " fill-opacity="1" fill-rule="nonzero"/></g><g transform="matrix(1, 0, 0, 1, 54, 109)"><g clip-path="url(#fbf0481ec3)"><g clip-path="url(#c4a11bf65b)"><g fill="#000000" fill-opacity="1"><g transform="translate(0.554383, 5.863467)"><g><path d="M 1.1875 0 L 0.515625 0 C 0.441406 0 0.40625 -0.0351562 0.40625 -0.109375 L 0.40625 -3.9375 C 0.40625 -4.007812 0.414062 -4.0625 0.4375 -4.09375 C 0.46875 -4.125 0.503906 -4.132812 0.546875 -4.125 C 0.585938 -4.113281 0.628906 -4.082031 0.671875 -4.03125 L 2.390625 -1.796875 L 4.125 -4.03125 C 4.164062 -4.082031 4.207031 -4.113281 4.25 -4.125 C 4.289062 -4.132812 4.320312 -4.125 4.34375 -4.09375 C 4.375 -4.0625 4.390625 -4.007812 4.390625 -3.9375 L 4.390625 -0.109375 C 4.390625 -0.0351562 4.351562 0 4.28125 0 L 3.609375 0 C 3.535156 0 3.5 -0.0351562 3.5 -0.109375 L 3.5 -1.9375 L 2.46875 -0.671875 C 2.414062 -0.609375 2.363281 -0.609375 2.3125 -0.671875 L 1.296875 -1.921875 L 1.296875 -0.109375 C 1.296875 -0.0351562 1.257812 0 1.1875 0 Z M 1.1875 0 "/></g></g></g></g><g fill="#000000" fill-opacity="1"><g transform="translate(9.651102, 5.863467)"><g><path d="M 2.140625 -4.03125 L 3.9375 -0.125 C 3.957031 -0.09375 3.957031 -0.0625 3.9375 -0.03125 C 3.925781 -0.0078125 3.898438 0 3.859375 0 L 3.09375 0 C 3.03125 0 2.988281 -0.0234375 2.96875 -0.078125 L 2.78125 -0.53125 L 1.234375 -0.53125 L 1.0625 -0.078125 C 1.039062 -0.0234375 1 0 0.9375 0 L 0.15625 0 C 0.125 0 0.0976562 -0.0078125 0.078125 -0.03125 C 0.0664062 -0.0625 0.0664062 -0.09375 0.078125 -0.125 L 1.875 -4.03125 C 1.914062 -4.101562 1.960938 -4.140625 2.015625 -4.140625 C 2.066406 -4.140625 2.109375 -4.101562 2.140625 -4.03125 Z M 2.015625 -2.484375 L 1.515625 -1.234375 L 2.515625 -1.234375 Z M 2.015625 -2.484375 "/></g></g></g><g fill="#000000" fill-opacity="1"><g transform="translate(17.981749, 5.863467)"><g><path d="M 1.609375 0.109375 C 1.410156 0.109375 1.207031 0.0859375 1 0.046875 C 0.789062 0.015625 0.5625 -0.0390625 0.3125 -0.125 C 0.25 -0.15625 0.226562 -0.203125 0.25 -0.265625 L 0.453125 -0.84375 C 0.472656 -0.90625 0.519531 -0.925781 0.59375 -0.90625 C 0.769531 -0.832031 0.945312 -0.773438 1.125 -0.734375 C 1.300781 -0.703125 1.460938 -0.6875 1.609375 -0.6875 C 1.773438 -0.6875 1.90625 -0.710938 2 -0.765625 C 2.101562 -0.828125 2.15625 -0.921875 2.15625 -1.046875 C 2.15625 -1.117188 2.128906 -1.1875 2.078125 -1.25 C 2.023438 -1.3125 1.953125 -1.367188 1.859375 -1.421875 C 1.765625 -1.484375 1.660156 -1.539062 1.546875 -1.59375 C 1.429688 -1.644531 1.3125 -1.703125 1.1875 -1.765625 C 1.070312 -1.828125 0.957031 -1.894531 0.84375 -1.96875 C 0.738281 -2.050781 0.640625 -2.140625 0.546875 -2.234375 C 0.460938 -2.328125 0.394531 -2.429688 0.34375 -2.546875 C 0.300781 -2.671875 0.28125 -2.8125 0.28125 -2.96875 C 0.28125 -3.175781 0.316406 -3.351562 0.390625 -3.5 C 0.472656 -3.65625 0.578125 -3.773438 0.703125 -3.859375 C 0.835938 -3.953125 0.988281 -4.019531 1.15625 -4.0625 C 1.320312 -4.113281 1.492188 -4.140625 1.671875 -4.140625 C 1.773438 -4.140625 1.890625 -4.128906 2.015625 -4.109375 C 2.140625 -4.097656 2.265625 -4.078125 2.390625 -4.046875 C 2.515625 -4.015625 2.640625 -3.976562 2.765625 -3.9375 C 2.835938 -3.914062 2.859375 -3.867188 2.828125 -3.796875 L 2.65625 -3.25 C 2.632812 -3.175781 2.59375 -3.15625 2.53125 -3.1875 C 2.394531 -3.238281 2.253906 -3.273438 2.109375 -3.296875 C 1.960938 -3.328125 1.828125 -3.34375 1.703125 -3.34375 C 1.609375 -3.34375 1.523438 -3.332031 1.453125 -3.3125 C 1.378906 -3.300781 1.320312 -3.269531 1.28125 -3.21875 C 1.238281 -3.175781 1.21875 -3.117188 1.21875 -3.046875 C 1.21875 -2.960938 1.238281 -2.890625 1.28125 -2.828125 C 1.320312 -2.773438 1.378906 -2.722656 1.453125 -2.671875 C 1.535156 -2.628906 1.628906 -2.582031 1.734375 -2.53125 C 1.835938 -2.476562 1.945312 -2.425781 2.0625 -2.375 C 2.1875 -2.3125 2.304688 -2.242188 2.421875 -2.171875 C 2.546875 -2.097656 2.65625 -2.007812 2.75 -1.90625 C 2.851562 -1.8125 2.9375 -1.695312 3 -1.5625 C 3.0625 -1.425781 3.09375 -1.265625 3.09375 -1.078125 C 3.09375 -0.910156 3.0625 -0.757812 3 -0.625 C 2.945312 -0.488281 2.875 -0.375 2.78125 -0.28125 C 2.6875 -0.195312 2.578125 -0.125 2.453125 -0.0625 C 2.328125 0 2.191406 0.0390625 2.046875 0.0625 C 1.898438 0.09375 1.753906 0.109375 1.609375 0.109375 Z M 1.609375 0.109375 "/></g></g></g><g fill="#000000" fill-opacity="1"><g transform="translate(25.593547, 5.863467)"><g><path d="M 2.84375 -1.484375 L 3.578125 -0.125 C 3.597656 -0.09375 3.597656 -0.0625 3.578125 -0.03125 C 3.566406 -0.0078125 3.539062 0 3.5 0 L 2.703125 0 C 2.640625 0 2.597656 -0.0234375 2.578125 -0.078125 L 1.9375 -1.34375 L 1.3125 -1.34375 L 1.3125 -0.109375 C 1.3125 -0.0351562 1.28125 0 1.21875 0 L 0.5 0 C 0.4375 0 0.40625 -0.0351562 0.40625 -0.109375 L 0.40625 -3.921875 C 0.40625 -3.992188 0.4375 -4.03125 0.5 -4.03125 L 2.015625 -4.03125 C 2.296875 -4.03125 2.53125 -3.992188 2.71875 -3.921875 C 2.90625 -3.859375 3.054688 -3.765625 3.171875 -3.640625 C 3.285156 -3.523438 3.367188 -3.382812 3.421875 -3.21875 C 3.472656 -3.0625 3.5 -2.894531 3.5 -2.71875 C 3.5 -2.414062 3.441406 -2.160156 3.328125 -1.953125 C 3.210938 -1.742188 3.050781 -1.585938 2.84375 -1.484375 Z M 1.859375 -3.234375 L 1.3125 -3.234375 L 1.3125 -2.140625 L 1.859375 -2.140625 C 1.898438 -2.140625 1.953125 -2.140625 2.015625 -2.140625 C 2.078125 -2.140625 2.140625 -2.148438 2.203125 -2.171875 C 2.265625 -2.191406 2.320312 -2.21875 2.375 -2.25 C 2.4375 -2.289062 2.484375 -2.347656 2.515625 -2.421875 C 2.554688 -2.492188 2.578125 -2.585938 2.578125 -2.703125 C 2.578125 -2.804688 2.5625 -2.890625 2.53125 -2.953125 C 2.5 -3.023438 2.453125 -3.078125 2.390625 -3.109375 C 2.335938 -3.148438 2.28125 -3.179688 2.21875 -3.203125 C 2.15625 -3.222656 2.09375 -3.234375 2.03125 -3.234375 C 1.96875 -3.234375 1.910156 -3.234375 1.859375 -3.234375 Z M 1.859375 -3.234375 "/></g></g></g><g fill="#000000" fill-opacity="1"><g transform="translate(33.722182, 5.863467)"><g><path d="M 1.203125 0 L 0.5 0 C 0.4375 0 0.40625 -0.0351562 0.40625 -0.109375 L 0.40625 -3.921875 C 0.40625 -3.992188 0.4375 -4.03125 0.5 -4.03125 L 1.203125 -4.03125 C 1.273438 -4.03125 1.3125 -3.992188 1.3125 -3.921875 L 1.3125 -0.109375 C 1.3125 -0.0351562 1.273438 0 1.203125 0 Z M 1.203125 0 "/></g></g></g></g></g><g transform="matrix(1, 0, 0, 1, 57, 118)"><g clip-path="url(#71584398b4)"><g clip-path="url(#f2fb6e5c1e)"><g fill="#000000" fill-opacity="1"><g transform="translate(0.64129, 3.243423)"><g><path d="M 0.40625 0 L 0.25 0 C 0.21875 0 0.203125 -0.015625 0.203125 -0.046875 L 0.203125 -1.96875 C 0.203125 -2 0.21875 -2.015625 0.25 -2.015625 L 0.78125 -2.015625 C 1.050781 -2.015625 1.25 -1.953125 1.375 -1.828125 C 1.507812 -1.710938 1.578125 -1.546875 1.578125 -1.328125 C 1.578125 -1.097656 1.507812 -0.921875 1.375 -0.796875 C 1.25 -0.679688 1.054688 -0.625 0.796875 -0.625 L 0.453125 -0.625 L 0.453125 -0.046875 C 0.453125 -0.015625 0.4375 0 0.40625 0 Z M 0.453125 -1.78125 L 0.453125 -0.875 L 0.765625 -0.875 C 0.796875 -0.875 0.828125 -0.875 0.859375 -0.875 C 0.898438 -0.875 0.941406 -0.878906 0.984375 -0.890625 C 1.023438 -0.898438 1.066406 -0.910156 1.109375 -0.921875 C 1.148438 -0.941406 1.1875 -0.96875 1.21875 -1 C 1.25 -1.039062 1.273438 -1.085938 1.296875 -1.140625 C 1.316406 -1.191406 1.328125 -1.253906 1.328125 -1.328125 C 1.328125 -1.398438 1.316406 -1.460938 1.296875 -1.515625 C 1.273438 -1.566406 1.25 -1.609375 1.21875 -1.640625 C 1.1875 -1.671875 1.148438 -1.695312 1.109375 -1.71875 C 1.066406 -1.738281 1.023438 -1.75 0.984375 -1.75 C 0.941406 -1.757812 0.898438 -1.765625 0.859375 -1.765625 C 0.828125 -1.773438 0.796875 -1.78125 0.765625 -1.78125 Z M 0.453125 -1.78125 "/></g></g></g></g><g clip-path="url(#bf650d4001)"><g fill="#000000" fill-opacity="1"><g transform="translate(3.388673, 3.243423)"><g><path d="M 1.21875 -0.703125 L 1.546875 -0.0625 C 1.554688 -0.0390625 1.554688 -0.0234375 1.546875 -0.015625 C 1.546875 -0.00390625 1.535156 0 1.515625 0 L 1.328125 0 C 1.304688 0 1.289062 -0.015625 1.28125 -0.046875 L 0.96875 -0.640625 C 0.945312 -0.640625 0.921875 -0.632812 0.890625 -0.625 C 0.859375 -0.625 0.828125 -0.625 0.796875 -0.625 L 0.453125 -0.625 L 0.453125 -0.046875 C 0.453125 -0.015625 0.4375 0 0.40625 0 L 0.25 0 C 0.21875 0 0.203125 -0.015625 0.203125 -0.046875 L 0.203125 -1.96875 C 0.203125 -2 0.21875 -2.015625 0.25 -2.015625 L 0.78125 -2.015625 C 1.050781 -2.015625 1.25 -1.953125 1.375 -1.828125 C 1.507812 -1.710938 1.578125 -1.546875 1.578125 -1.328125 C 1.578125 -1.015625 1.457031 -0.804688 1.21875 -0.703125 Z M 0.453125 -0.875 L 0.765625 -0.875 C 0.796875 -0.875 0.828125 -0.875 0.859375 -0.875 C 0.898438 -0.875 0.941406 -0.878906 0.984375 -0.890625 C 1.023438 -0.898438 1.066406 -0.910156 1.109375 -0.921875 C 1.148438 -0.941406 1.1875 -0.96875 1.21875 -1 C 1.25 -1.039062 1.273438 -1.085938 1.296875 -1.140625 C 1.316406 -1.191406 1.328125 -1.253906 1.328125 -1.328125 C 1.328125 -1.398438 1.316406 -1.460938 1.296875 -1.515625 C 1.273438 -1.566406 1.25 -1.609375 1.21875 -1.640625 C 1.1875 -1.671875 1.148438 -1.695312 1.109375 -1.71875 C 1.066406 -1.738281 1.023438 -1.75 0.984375 -1.75 C 0.941406 -1.757812 0.898438 -1.765625 0.859375 -1.765625 C 0.828125 -1.773438 0.796875 -1.78125 0.765625 -1.78125 L 0.453125 -1.78125 Z M 0.453125 -0.875 "/></g></g></g></g><g clip-path="url(#42168a846e)"><g fill="#000000" fill-opacity="1"><g transform="translate(6.176743, 3.243423)"><g><path d="M 1.15625 0.046875 C 1.039062 0.046875 0.929688 0.03125 0.828125 0 C 0.722656 -0.0390625 0.625 -0.0859375 0.53125 -0.140625 C 0.445312 -0.203125 0.375 -0.273438 0.3125 -0.359375 C 0.25 -0.453125 0.195312 -0.550781 0.15625 -0.65625 C 0.125 -0.769531 0.109375 -0.890625 0.109375 -1.015625 C 0.109375 -1.128906 0.125 -1.238281 0.15625 -1.34375 C 0.195312 -1.457031 0.25 -1.554688 0.3125 -1.640625 C 0.375 -1.722656 0.445312 -1.796875 0.53125 -1.859375 C 0.625 -1.921875 0.722656 -1.96875 0.828125 -2 C 0.929688 -2.039062 1.039062 -2.0625 1.15625 -2.0625 C 1.28125 -2.0625 1.394531 -2.039062 1.5 -2 C 1.601562 -1.96875 1.695312 -1.921875 1.78125 -1.859375 C 1.875 -1.796875 1.953125 -1.722656 2.015625 -1.640625 C 2.078125 -1.554688 2.125 -1.457031 2.15625 -1.34375 C 2.195312 -1.238281 2.21875 -1.128906 2.21875 -1.015625 C 2.21875 -0.890625 2.195312 -0.769531 2.15625 -0.65625 C 2.125 -0.550781 2.078125 -0.453125 2.015625 -0.359375 C 1.953125 -0.273438 1.875 -0.203125 1.78125 -0.140625 C 1.695312 -0.0859375 1.601562 -0.0390625 1.5 0 C 1.394531 0.03125 1.28125 0.046875 1.15625 0.046875 Z M 1.15625 -0.203125 C 1.269531 -0.203125 1.375 -0.222656 1.46875 -0.265625 C 1.5625 -0.304688 1.644531 -0.359375 1.71875 -0.421875 C 1.789062 -0.492188 1.847656 -0.578125 1.890625 -0.671875 C 1.929688 -0.773438 1.953125 -0.890625 1.953125 -1.015625 C 1.953125 -1.128906 1.929688 -1.234375 1.890625 -1.328125 C 1.847656 -1.429688 1.789062 -1.515625 1.71875 -1.578125 C 1.644531 -1.648438 1.5625 -1.707031 1.46875 -1.75 C 1.375 -1.789062 1.269531 -1.8125 1.15625 -1.8125 C 1.050781 -1.8125 0.953125 -1.789062 0.859375 -1.75 C 0.765625 -1.707031 0.679688 -1.648438 0.609375 -1.578125 C 0.535156 -1.515625 0.476562 -1.429688 0.4375 -1.328125 C 0.394531 -1.234375 0.375 -1.128906 0.375 -1.015625 C 0.375 -0.890625 0.394531 -0.773438 0.4375 -0.671875 C 0.476562 -0.578125 0.535156 -0.492188 0.609375 -0.421875 C 0.679688 -0.359375 0.765625 -0.304688 0.859375 -0.265625 C 0.953125 -0.222656 1.050781 -0.203125 1.15625 -0.203125 Z M 1.15625 -0.203125 "/></g></g></g></g><g clip-path="url(#2c489eabc2)"><g fill="#000000" fill-opacity="1"><g transform="translate(9.58039, 3.243423)"><g><path d="M 1.15625 0.046875 C 1.039062 0.046875 0.929688 0.03125 0.828125 0 C 0.722656 -0.0390625 0.625 -0.0859375 0.53125 -0.140625 C 0.445312 -0.203125 0.375 -0.273438 0.3125 -0.359375 C 0.25 -0.453125 0.195312 -0.550781 0.15625 -0.65625 C 0.125 -0.769531 0.109375 -0.890625 0.109375 -1.015625 C 0.109375 -1.128906 0.125 -1.238281 0.15625 -1.34375 C 0.195312 -1.457031 0.25 -1.554688 0.3125 -1.640625 C 0.375 -1.722656 0.445312 -1.796875 0.53125 -1.859375 C 0.625 -1.921875 0.722656 -1.96875 0.828125 -2 C 0.929688 -2.039062 1.039062 -2.0625 1.15625 -2.0625 C 1.300781 -2.0625 1.4375 -2.035156 1.5625 -1.984375 C 1.6875 -1.929688 1.796875 -1.859375 1.890625 -1.765625 C 1.921875 -1.742188 1.921875 -1.71875 1.890625 -1.6875 L 1.765625 -1.609375 C 1.742188 -1.585938 1.722656 -1.585938 1.703125 -1.609375 C 1.628906 -1.671875 1.546875 -1.71875 1.453125 -1.75 C 1.359375 -1.789062 1.257812 -1.8125 1.15625 -1.8125 C 1.050781 -1.8125 0.953125 -1.789062 0.859375 -1.75 C 0.765625 -1.707031 0.679688 -1.648438 0.609375 -1.578125 C 0.535156 -1.515625 0.476562 -1.429688 0.4375 -1.328125 C 0.394531 -1.234375 0.375 -1.128906 0.375 -1.015625 C 0.375 -0.890625 0.394531 -0.773438 0.4375 -0.671875 C 0.476562 -0.578125 0.535156 -0.492188 0.609375 -0.421875 C 0.679688 -0.347656 0.765625 -0.289062 0.859375 -0.25 C 0.953125 -0.21875 1.050781 -0.203125 1.15625 -0.203125 C 1.257812 -0.203125 1.359375 -0.21875 1.453125 -0.25 C 1.546875 -0.289062 1.625 -0.34375 1.6875 -0.40625 L 1.6875 -0.640625 L 1.203125 -0.640625 C 1.160156 -0.640625 1.140625 -0.660156 1.140625 -0.703125 L 1.140625 -0.828125 C 1.140625 -0.859375 1.160156 -0.875 1.203125 -0.875 L 1.875 -0.875 C 1.914062 -0.875 1.9375 -0.859375 1.9375 -0.828125 L 1.9375 -0.328125 C 1.9375 -0.296875 1.925781 -0.273438 1.90625 -0.265625 C 1.8125 -0.171875 1.703125 -0.09375 1.578125 -0.03125 C 1.453125 0.0195312 1.3125 0.046875 1.15625 0.046875 Z M 1.15625 0.046875 "/></g></g></g></g><g clip-path="url(#52acbdfe91)"><g fill="#000000" fill-opacity="1"><g transform="translate(12.718906, 3.243423)"><g><path d="M 1.21875 -0.703125 L 1.546875 -0.0625 C 1.554688 -0.0390625 1.554688 -0.0234375 1.546875 -0.015625 C 1.546875 -0.00390625 1.535156 0 1.515625 0 L 1.328125 0 C 1.304688 0 1.289062 -0.015625 1.28125 -0.046875 L 0.96875 -0.640625 C 0.945312 -0.640625 0.921875 -0.632812 0.890625 -0.625 C 0.859375 -0.625 0.828125 -0.625 0.796875 -0.625 L 0.453125 -0.625 L 0.453125 -0.046875 C 0.453125 -0.015625 0.4375 0 0.40625 0 L 0.25 0 C 0.21875 0 0.203125 -0.015625 0.203125 -0.046875 L 0.203125 -1.96875 C 0.203125 -2 0.21875 -2.015625 0.25 -2.015625 L 0.78125 -2.015625 C 1.050781 -2.015625 1.25 -1.953125 1.375 -1.828125 C 1.507812 -1.710938 1.578125 -1.546875 1.578125 -1.328125 C 1.578125 -1.015625 1.457031 -0.804688 1.21875 -0.703125 Z M 0.453125 -0.875 L 0.765625 -0.875 C 0.796875 -0.875 0.828125 -0.875 0.859375 -0.875 C 0.898438 -0.875 0.941406 -0.878906 0.984375 -0.890625 C 1.023438 -0.898438 1.066406 -0.910156 1.109375 -0.921875 C 1.148438 -0.941406 1.1875 -0.96875 1.21875 -1 C 1.25 -1.039062 1.273438 -1.085938 1.296875 -1.140625 C 1.316406 -1.191406 1.328125 -1.253906 1.328125 -1.328125 C 1.328125 -1.398438 1.316406 -1.460938 1.296875 -1.515625 C 1.273438 -1.566406 1.25 -1.609375 1.21875 -1.640625 C 1.1875 -1.671875 1.148438 -1.695312 1.109375 -1.71875 C 1.066406 -1.738281 1.023438 -1.75 0.984375 -1.75 C 0.941406 -1.757812 0.898438 -1.765625 0.859375 -1.765625 C 0.828125 -1.773438 0.796875 -1.78125 0.765625 -1.78125 L 0.453125 -1.78125 Z M 0.453125 -0.875 "/></g></g></g></g><g clip-path="url(#f0549c53c4)"><g fill="#000000" fill-opacity="1"><g transform="translate(15.506976, 3.243423)"><g><path d="M 0.984375 -2.015625 L 1.8125 -0.0625 C 1.820312 -0.0390625 1.820312 -0.0234375 1.8125 -0.015625 C 1.800781 -0.00390625 1.785156 0 1.765625 0 L 1.609375 0 C 1.585938 0 1.570312 0 1.5625 0 C 1.550781 -0.0078125 1.546875 -0.0234375 1.546875 -0.046875 L 1.390625 -0.40625 L 0.453125 -0.40625 L 0.3125 -0.046875 C 0.300781 -0.015625 0.28125 0 0.25 0 L 0.078125 0 C 0.0664062 0 0.0546875 -0.00390625 0.046875 -0.015625 C 0.0351562 -0.0234375 0.0351562 -0.0390625 0.046875 -0.0625 L 0.875 -2.015625 C 0.882812 -2.046875 0.898438 -2.0625 0.921875 -2.0625 C 0.941406 -2.0625 0.960938 -2.046875 0.984375 -2.015625 Z M 0.921875 -1.546875 L 0.546875 -0.625 L 1.296875 -0.625 Z M 0.921875 -1.546875 "/></g></g></g></g><g clip-path="url(#adad68bfa1)"><g fill="#000000" fill-opacity="1"><g transform="translate(18.438113, 3.243423)"><g><path d="M 0.40625 0 L 0.25 0 C 0.21875 0 0.203125 -0.015625 0.203125 -0.046875 L 0.203125 -1.96875 C 0.203125 -2.007812 0.207031 -2.035156 0.21875 -2.046875 C 0.238281 -2.066406 0.253906 -2.070312 0.265625 -2.0625 C 0.285156 -2.0625 0.304688 -2.046875 0.328125 -2.015625 L 1.140625 -0.90625 L 1.953125 -2.015625 C 1.972656 -2.046875 1.992188 -2.0625 2.015625 -2.0625 C 2.035156 -2.070312 2.050781 -2.066406 2.0625 -2.046875 C 2.082031 -2.035156 2.09375 -2.007812 2.09375 -1.96875 L 2.09375 -0.046875 C 2.09375 -0.015625 2.070312 0 2.03125 0 L 1.890625 0 C 1.847656 0 1.828125 -0.015625 1.828125 -0.046875 L 1.828125 -1.421875 L 1.1875 -0.53125 C 1.175781 -0.519531 1.160156 -0.515625 1.140625 -0.515625 C 1.128906 -0.515625 1.117188 -0.519531 1.109375 -0.53125 L 0.453125 -1.421875 L 0.453125 -0.046875 C 0.453125 -0.015625 0.4375 0 0.40625 0 Z M 0.40625 0 "/></g></g></g></g><g clip-path="url(#2359f9b36c)"><g fill="#000000" fill-opacity="1"><g transform="translate(21.806321, 3.243423)"><g><path d="M 0.40625 0 L 0.25 0 C 0.21875 0 0.203125 -0.015625 0.203125 -0.046875 L 0.203125 -1.96875 C 0.203125 -2.007812 0.207031 -2.035156 0.21875 -2.046875 C 0.238281 -2.066406 0.253906 -2.070312 0.265625 -2.0625 C 0.285156 -2.0625 0.304688 -2.046875 0.328125 -2.015625 L 1.140625 -0.90625 L 1.953125 -2.015625 C 1.972656 -2.046875 1.992188 -2.0625 2.015625 -2.0625 C 2.035156 -2.070312 2.050781 -2.066406 2.0625 -2.046875 C 2.082031 -2.035156 2.09375 -2.007812 2.09375 -1.96875 L 2.09375 -0.046875 C 2.09375 -0.015625 2.070312 0 2.03125 0 L 1.890625 0 C 1.847656 0 1.828125 -0.015625 1.828125 -0.046875 L 1.828125 -1.421875 L 1.1875 -0.53125 C 1.175781 -0.519531 1.160156 -0.515625 1.140625 -0.515625 C 1.128906 -0.515625 1.117188 -0.519531 1.109375 -0.53125 L 0.453125 -1.421875 L 0.453125 -0.046875 C 0.453125 -0.015625 0.4375 0 0.40625 0 Z M 0.40625 0 "/></g></g></g></g><g clip-path="url(#c05906c6a9)"><g fill="#000000" fill-opacity="1"><g transform="translate(25.174529, 3.243423)"><g><path d="M 1.234375 0 L 0.25 0 C 0.21875 0 0.203125 -0.015625 0.203125 -0.046875 L 0.203125 -1.96875 C 0.203125 -2 0.21875 -2.015625 0.25 -2.015625 L 1.234375 -2.015625 C 1.265625 -2.015625 1.28125 -2 1.28125 -1.96875 L 1.28125 -1.828125 C 1.28125 -1.796875 1.265625 -1.78125 1.234375 -1.78125 L 0.453125 -1.78125 L 0.453125 -0.875 L 1.125 -0.875 C 1.15625 -0.875 1.171875 -0.859375 1.171875 -0.828125 L 1.171875 -0.703125 C 1.171875 -0.660156 1.15625 -0.640625 1.125 -0.640625 L 0.453125 -0.640625 L 0.453125 -0.234375 L 1.234375 -0.234375 C 1.265625 -0.234375 1.28125 -0.21875 1.28125 -0.1875 L 1.28125 -0.046875 C 1.28125 -0.015625 1.265625 0 1.234375 0 Z M 1.234375 0 "/></g></g></g></g><g clip-path="url(#155607acc0)"><g fill="#000000" fill-opacity="1"><g transform="translate(27.637093, 3.243423)"><g><path d="M 1.21875 -0.703125 L 1.546875 -0.0625 C 1.554688 -0.0390625 1.554688 -0.0234375 1.546875 -0.015625 C 1.546875 -0.00390625 1.535156 0 1.515625 0 L 1.328125 0 C 1.304688 0 1.289062 -0.015625 1.28125 -0.046875 L 0.96875 -0.640625 C 0.945312 -0.640625 0.921875 -0.632812 0.890625 -0.625 C 0.859375 -0.625 0.828125 -0.625 0.796875 -0.625 L 0.453125 -0.625 L 0.453125 -0.046875 C 0.453125 -0.015625 0.4375 0 0.40625 0 L 0.25 0 C 0.21875 0 0.203125 -0.015625 0.203125 -0.046875 L 0.203125 -1.96875 C 0.203125 -2 0.21875 -2.015625 0.25 -2.015625 L 0.78125 -2.015625 C 1.050781 -2.015625 1.25 -1.953125 1.375 -1.828125 C 1.507812 -1.710938 1.578125 -1.546875 1.578125 -1.328125 C 1.578125 -1.015625 1.457031 -0.804688 1.21875 -0.703125 Z M 0.453125 -0.875 L 0.765625 -0.875 C 0.796875 -0.875 0.828125 -0.875 0.859375 -0.875 C 0.898438 -0.875 0.941406 -0.878906 0.984375 -0.890625 C 1.023438 -0.898438 1.066406 -0.910156 1.109375 -0.921875 C 1.148438 -0.941406 1.1875 -0.96875 1.21875 -1 C 1.25 -1.039062 1.273438 -1.085938 1.296875 -1.140625 C 1.316406 -1.191406 1.328125 -1.253906 1.328125 -1.328125 C 1.328125 -1.398438 1.316406 -1.460938 1.296875 -1.515625 C 1.273438 -1.566406 1.25 -1.609375 1.21875 -1.640625 C 1.1875 -1.671875 1.148438 -1.695312 1.109375 -1.71875 C 1.066406 -1.738281 1.023438 -1.75 0.984375 -1.75 C 0.941406 -1.757812 0.898438 -1.765625 0.859375 -1.765625 C 0.828125 -1.773438 0.796875 -1.78125 0.765625 -1.78125 L 0.453125 -1.78125 Z M 0.453125 -0.875 "/></g></g></g></g></g></g></svg>