<svg xmlns="http://www.w3.org/2000/svg" xmlns:xlink="http://www.w3.org/1999/xlink" width="500" zoomAndPan="magnify" viewBox="0 0 375 374.999991" height="500" preserveAspectRatio="xMidYMid meet" version="1.0"><defs><filter x="0%" y="0%" width="100%" height="100%" id="f0dc500ae6"><feColorMatrix values="0 0 0 0 1 0 0 0 0 1 0 0 0 0 1 0 0 0 1 0" color-interpolation-filters="sRGB"/></filter><g/><mask id="c912e886cc"><g filter="url(#f0dc500ae6)"><rect x="-37.5" width="450" fill="#000000" y="-37.499999" height="449.999989" fill-opacity="0.25"/></g></mask><clipPath id="00b8ceeb87"><path d="M 106 191 L 111 191 L 111 192.253906 L 106 192.253906 Z M 106 191 " clip-rule="nonzero"/></clipPath><clipPath id="f614c8a3ca"><path d="M 54 1.003906 L 61 1.003906 L 61 5 L 54 5 Z M 54 1.003906 " clip-rule="nonzero"/></clipPath><clipPath id="930be9afc0"><path d="M 54 1.003906 L 60 1.003906 L 60 4 L 54 4 Z M 54 1.003906 " clip-rule="nonzero"/></clipPath><clipPath id="90907d87d1"><path d="M 152 137 L 154.488281 137 L 154.488281 140 L 152 140 Z M 152 137 " clip-rule="nonzero"/></clipPath><clipPath id="5378174ddc"><rect x="0" width="155" y="0" height="194"/></clipPath><clipPath id="f178ff52e6"><path d="M 118.125 99.039062 L 256.875 99.039062 L 256.875 237.789062 L 118.125 237.789062 Z M 118.125 99.039062 " clip-rule="nonzero"/></clipPath><clipPath id="5a922262c5"><path d="M 118.125 142 L 169 142 L 169 237.789062 L 118.125 237.789062 Z M 118.125 142 " clip-rule="nonzero"/></clipPath><clipPath id="57b2fa0784"><path d="M 201 99.039062 L 256.875 99.039062 L 256.875 191 L 201 191 Z M 201 99.039062 " clip-rule="nonzero"/></clipPath><clipPath id="83f0420814"><rect x="0" width="79" y="0" height="10"/></clipPath></defs><g mask="url(#c912e886cc)"><g transform="matrix(1, 0, 0, 1, 106, 75)"><g clip-path="url(#5378174ddc)"><path fill="#312f30" d="M 34.480469 164.722656 C 32.707031 162.902344 29.601562 159.90625 28.328125 159.101562 C 28.257812 159.066406 28.152344 159.039062 28.074219 159.039062 C 28.097656 159.898438 36.164062 167.6875 37.066406 167.71875 C 37.042969 167.402344 35.648438 165.914062 34.480469 164.722656 " fill-opacity="1" fill-rule="nonzero"/><path fill="#312f30" d="M 44.957031 172.261719 C 43.09375 170.675781 39.714844 168.078125 38.046875 167.4375 C 37.921875 167.402344 37.738281 167.355469 37.671875 167.410156 C 37.351562 167.699219 39.46875 169.691406 41.652344 171.367188 C 44.449219 173.511719 46.996094 175.074219 47.457031 174.921875 C 47.605469 174.585938 45.957031 173.109375 44.957031 172.261719 " fill-opacity="1" fill-rule="nonzero"/><path fill="#312f30" d="M 10.089844 131.683594 C 10.050781 131.640625 9.976562 131.597656 9.917969 131.597656 C 9.902344 132.726562 15.292969 142.996094 15.925781 143.042969 C 15.933594 142.589844 14.855469 140.339844 14.214844 139.039062 C 13.09375 136.769531 10.980469 132.765625 10.089844 131.683594 " fill-opacity="1" fill-rule="nonzero"/><path fill="#312f30" d="M 16.796875 142.703125 C 16.6875 142.648438 16.546875 142.585938 16.476562 142.65625 C 15.777344 143.363281 22.101562 152.683594 23.601562 153.152344 C 24.183594 153.332031 23.550781 151.785156 22.066406 149.386719 C 20.679688 147.148438 18.128906 143.59375 16.796875 142.703125 " fill-opacity="1" fill-rule="nonzero"/><path fill="#312f30" d="M 31.527344 158.625 C 29.996094 156.585938 27.042969 153.390625 25.273438 152.667969 C 25.125 152.628906 24.921875 152.578125 24.808594 152.660156 C 23.589844 153.5 30.71875 161.816406 32.925781 162.125 C 33.734375 162.238281 33.160156 160.796875 31.527344 158.625 " fill-opacity="1" fill-rule="nonzero"/><path fill="#312f30" d="M 5.339844 119.703125 C 5.410156 119.925781 5.515625 120.25 5.652344 120.648438 C 5.546875 120.328125 5.4375 120.003906 5.335938 119.695312 L 5.339844 119.703125 " fill-opacity="1" fill-rule="nonzero"/><path fill="#312f30" d="M 13.1875 135.476562 C 14.035156 135.953125 13.886719 134.054688 12.839844 131.058594 C 11.941406 128.472656 10.066406 124.402344 8.722656 123.449219 C 8.644531 123.414062 8.527344 123.359375 8.445312 123.375 C 7.042969 123.640625 11.253906 134.386719 13.1875 135.476562 " fill-opacity="1" fill-rule="nonzero"/><path fill="#312f30" d="M 21.058594 146.019531 C 22.21875 146.402344 22.136719 144.585938 20.867188 141.796875 C 19.769531 139.382812 17.390625 135.628906 15.539062 134.828125 C 15.382812 134.792969 15.164062 134.742188 15 134.84375 C 13.382812 135.855469 18.421875 145.152344 21.058594 146.019531 " fill-opacity="1" fill-rule="nonzero"/><path fill="#312f30" d="M 30.308594 155.402344 C 31.996094 155.957031 32.128906 154.1875 30.601562 151.460938 C 29.15625 148.882812 26.308594 145.753906 24.226562 145.195312 C 24.023438 145.171875 23.746094 145.140625 23.535156 145.253906 C 21.542969 146.300781 26.859375 154.269531 30.308594 155.402344 " fill-opacity="1" fill-rule="nonzero"/><path fill="#312f30" d="M 3.980469 111.234375 C 3.933594 111.195312 3.867188 111.148438 3.8125 111.132812 C 2.964844 111.65625 6.285156 123.703125 7.359375 124.023438 C 7.789062 123.757812 7.003906 120.367188 6.753906 119.335938 C 6.136719 116.800781 4.84375 112.363281 3.980469 111.234375 " fill-opacity="1" fill-rule="nonzero"/><path fill="#312f30" d="M 12.464844 126.992188 C 13.828125 127.746094 14.324219 125.574219 13.570312 122.15625 C 12.96875 119.4375 11.304688 115.234375 9.480469 114.410156 C 9.355469 114.386719 9.1875 114.351562 9.0625 114.378906 C 6.71875 114.890625 9.542969 125.382812 12.464844 126.992188 " fill-opacity="1" fill-rule="nonzero"/><path fill="#312f30" d="M 20.144531 137.796875 C 22.09375 138.785156 22.859375 136.652344 21.785156 133.230469 C 20.972656 130.640625 18.761719 126.691406 16.390625 126.023438 C 16.230469 126.007812 16.015625 125.984375 15.859375 126.023438 C 13.078125 126.679688 16.445312 135.921875 20.144531 137.796875 " fill-opacity="1" fill-rule="nonzero"/><path fill="#312f30" d="M 29.445312 147.542969 C 32.007812 148.722656 33.085938 146.675781 31.699219 143.253906 C 30.71875 140.832031 28.082031 137.207031 25.292969 136.730469 C 25.039062 136.722656 24.691406 136.714844 24.378906 136.859375 C 21.777344 138.089844 25.375 145.675781 29.445312 147.542969 " fill-opacity="1" fill-rule="nonzero"/><path fill="#312f30" d="M 6.480469 115.132812 C 7.445312 115.992188 7.886719 113.851562 7.464844 110.363281 C 7.132812 107.640625 6.089844 103.375 4.808594 102.425781 C 4.726562 102.390625 4.601562 102.34375 4.511719 102.359375 C 2.773438 102.667969 4.410156 113.292969 6.480469 115.132812 " fill-opacity="1" fill-rule="nonzero"/><path fill="#312f30" d="M 16.421875 112.539062 C 16.121094 109.800781 14.667969 105.636719 12.375 104.964844 C 12.210938 104.949219 11.988281 104.933594 11.828125 104.972656 C 8.992188 105.628906 10.183594 114.921875 13.421875 117.394531 C 15.402344 118.910156 16.863281 116.550781 16.421875 112.539062 " fill-opacity="1" fill-rule="nonzero"/><path fill="#312f30" d="M 24.667969 123.652344 C 24.121094 120.914062 22.097656 116.832031 19.320312 116.332031 C 19.121094 116.328125 18.851562 116.324219 18.660156 116.375 C 15.433594 117.203125 17.132812 125.753906 21.050781 128.414062 C 23.722656 130.230469 25.511719 127.871094 24.667969 123.652344 " fill-opacity="1" fill-rule="nonzero"/><path fill="#312f30" d="M 34.558594 133.984375 C 33.828125 131.375 31.371094 127.550781 28.214844 127.226562 C 27.992188 127.234375 27.6875 127.25 27.472656 127.308594 C 23.9375 128.316406 26.253906 136.421875 30.734375 138.722656 C 33.777344 140.285156 35.667969 137.9375 34.558594 133.984375 " fill-opacity="1" fill-rule="nonzero"/><path fill="#312f30" d="M 7.824219 105.867188 C 9.191406 107.042969 10.34375 104.785156 10.289062 101.039062 C 10.25 98.3125 9.421875 94.113281 7.707031 93.3125 C 7.582031 93.285156 7.40625 93.253906 7.28125 93.28125 C 4.832031 93.789062 5.261719 103.667969 7.824219 105.867188 " fill-opacity="1" fill-rule="nonzero"/><path fill="#312f30" d="M 21.15625 102.503906 C 21.101562 99.753906 19.839844 95.65625 17.199219 95.164062 C 17.097656 95.160156 16.964844 95.148438 16.867188 95.15625 C 13.359375 95.40625 12.964844 103.789062 16.304688 107.117188 C 18.707031 109.511719 21.246094 107.097656 21.15625 102.503906 " fill-opacity="1" fill-rule="nonzero"/><path fill="#312f30" d="M 29.214844 113.292969 C 28.921875 110.527344 27.117188 106.488281 24.042969 106.15625 C 23.925781 106.160156 23.773438 106.160156 23.660156 106.171875 C 19.695312 106.644531 20.011719 115.09375 24.113281 118.226562 C 27.035156 120.460938 29.707031 117.878906 29.214844 113.292969 " fill-opacity="1" fill-rule="nonzero"/><path fill="#312f30" d="M 38.976562 123.675781 C 38.464844 120.917969 36.195312 116.960938 32.746094 116.792969 C 32.617188 116.804688 32.445312 116.8125 32.320312 116.832031 C 28.246094 117.472656 28.839844 125.316406 33.203125 128.488281 C 36.730469 131.054688 39.863281 128.445312 38.976562 123.675781 " fill-opacity="1" fill-rule="nonzero"/><path fill="#312f30" d="M 10.867188 95.996094 C 12.605469 98 14.714844 95.679688 15.039062 91.398438 C 15.246094 88.683594 14.582031 84.574219 12.46875 83.933594 C 12.386719 83.925781 12.28125 83.910156 12.199219 83.910156 C 9.257812 83.960938 8.261719 92.996094 10.867188 95.996094 " fill-opacity="1" fill-rule="nonzero"/><path fill="#312f30" d="M 21.097656 96.90625 C 23.578125 99.699219 26.914062 97.179688 27.152344 92.332031 C 27.285156 89.589844 26.191406 85.585938 23.332031 85.261719 C 19.046875 85.441406 18.152344 93.582031 21.097656 96.90625 " fill-opacity="1" fill-rule="nonzero"/><path fill="#312f30" d="M 35.035156 102.746094 C 34.933594 99.976562 33.304688 96 30.011719 95.828125 C 25.195312 96.246094 24.996094 104.488281 28.65625 107.675781 C 31.699219 110.332031 35.21875 107.613281 35.035156 102.746094 " fill-opacity="1" fill-rule="nonzero"/><path fill="#312f30" d="M 37.5 117.714844 C 41.144531 120.839844 45.199219 118.058594 44.609375 112.835938 C 44.296875 110.054688 42.203125 106.132812 38.535156 106.117188 C 33.542969 106.734375 33.574219 114.347656 37.5 117.714844 " fill-opacity="1" fill-rule="nonzero"/><path fill="#312f30" d="M 21.1875 81.675781 C 21.582031 78.988281 21.066406 74.996094 18.683594 74.527344 C 14.890625 74.480469 13.335938 83.199219 15.78125 86.226562 C 17.695312 88.597656 20.523438 86.21875 21.1875 81.675781 " fill-opacity="1" fill-rule="nonzero"/><path fill="#312f30" d="M 52.113281 164.027344 C 55.101562 164.78125 56.289062 162.902344 54.648438 160.007812 C 53.492188 157.957031 50.382812 155.019531 47.101562 154.902344 C 46.65625 154.9375 46.191406 154.972656 45.742188 155.285156 C 43.207031 157.042969 47.433594 162.847656 52.113281 164.027344 " fill-opacity="1" fill-rule="nonzero"/><path fill="#312f30" d="M 57.570312 151.527344 C 56.644531 149.265625 53.691406 146.089844 50.039062 146.113281 C 49.699219 146.152344 49.234375 146.203125 48.800781 146.410156 C 45.464844 147.980469 48.09375 154.023438 52.933594 155.917969 C 56.660156 157.375 59.046875 155.121094 57.570312 151.527344 " fill-opacity="1" fill-rule="nonzero"/><path fill="#312f30" d="M 61.988281 141.941406 C 61.257812 139.476562 58.441406 136.078125 54.472656 136.242188 C 54.328125 136.265625 54.132812 136.285156 53.988281 136.316406 C 49.621094 137.234375 50.425781 143.691406 55.253906 146.476562 C 59.53125 148.941406 63.308594 146.398438 61.988281 141.941406 " fill-opacity="1" fill-rule="nonzero"/><path fill="#312f30" d="M 60.148438 125.34375 C 59.996094 125.375 59.785156 125.402344 59.632812 125.4375 C 54.914062 126.574219 55.183594 133.578125 60.054688 136.457031 C 64.335938 138.992188 68.65625 136.050781 67.632812 131.300781 C 67.058594 128.648438 64.359375 125.046875 60.148438 125.34375 " fill-opacity="1" fill-rule="nonzero"/><path fill="#312f30" d="M 52.832031 170.859375 C 54.878906 171.125 55.132812 169.582031 53.40625 167.347656 C 51.996094 165.515625 48.71875 162.828125 45.859375 162.582031 C 45.476562 162.589844 45.078125 162.597656 44.753906 162.851562 C 42.730469 164.410156 48.695312 170.320312 52.832031 170.859375 " fill-opacity="1" fill-rule="nonzero"/><path fill="#312f30" d="M 55.070312 176.460938 C 56.210938 176.433594 55.769531 175.261719 53.972656 173.546875 C 52.402344 172.046875 48.96875 169.527344 46.441406 169.144531 C 46.128906 169.132812 45.800781 169.117188 45.601562 169.308594 C 44.269531 170.582031 52.144531 176.53125 55.070312 176.460938 " fill-opacity="1" fill-rule="nonzero"/><path fill="#312f30" d="M 41.253906 147.992188 C 45.109375 149.878906 47.625 147.390625 46.144531 143.148438 C 45.21875 140.492188 42.222656 136.683594 38.46875 136.53125 C 38.203125 136.550781 37.84375 136.585938 37.585938 136.660156 C 33.628906 137.84375 36.097656 145.46875 41.253906 147.992188 " fill-opacity="1" fill-rule="nonzero"/><path fill="#312f30" d="M 40.5625 156.628906 C 43.597656 157.65625 44.851562 155.492188 43.199219 152.085938 C 42.015625 149.648438 38.839844 146.078125 35.484375 145.765625 C 35.175781 145.773438 34.757812 145.785156 34.386719 145.960938 C 31.199219 147.441406 35.523438 154.917969 40.5625 156.628906 " fill-opacity="1" fill-rule="nonzero"/><path fill="#312f30" d="M 6.730469 89.445312 C 6.976562 86.53125 6.753906 81.988281 5.484375 81.019531 C 5.390625 80.980469 5.253906 80.9375 5.152344 80.953125 C 3.003906 81.324219 2.390625 92.695312 4.414062 94.625 C 5.371094 95.539062 6.410156 93.214844 6.730469 89.445312 " fill-opacity="1" fill-rule="nonzero"/><path fill="#312f30" d="M 2.46875 89.734375 C 2.414062 89.691406 2.332031 89.625 2.261719 89.632812 C 0.972656 89.773438 1.558594 102.148438 2.921875 103.570312 C 3.496094 104.167969 3.878906 101.964844 3.808594 98.441406 C 3.746094 95.503906 3.292969 90.863281 2.46875 89.734375 " fill-opacity="1" fill-rule="nonzero"/><path fill="#312f30" d="M 50.144531 133.125 C 49.496094 130.492188 46.890625 126.78125 43.128906 126.785156 C 42.855469 126.820312 42.492188 126.867188 42.230469 126.953125 C 38.261719 128.257812 39.457031 135.261719 44.113281 137.972656 C 47.976562 140.222656 51.25 137.597656 50.144531 133.125 " fill-opacity="1" fill-rule="nonzero"/><path fill="#312f30" d="M 48.425781 127.238281 C 52.480469 130.113281 56.691406 127.191406 55.816406 122.113281 C 55.335938 119.335938 52.871094 115.496094 48.886719 115.644531 C 48.738281 115.667969 48.542969 115.6875 48.394531 115.71875 C 43.875 116.707031 43.894531 124.027344 48.425781 127.238281 " fill-opacity="1" fill-rule="nonzero"/><path fill="#312f30" d="M 41.140625 163.628906 C 43.085938 164.035156 43.300781 162.386719 41.632812 159.875 C 40.28125 157.835938 37.179688 154.777344 34.511719 154.351562 C 34.15625 154.335938 33.789062 154.324219 33.488281 154.574219 C 31.667969 156.070312 37.386719 162.839844 41.140625 163.628906 " fill-opacity="1" fill-rule="nonzero"/><path fill="#312f30" d="M 43.492188 169.824219 C 44.507812 169.867188 44.011719 168.539062 42.289062 166.597656 C 40.664062 164.769531 37.398438 161.949219 35.234375 161.398438 C 34.945312 161.363281 34.675781 161.332031 34.523438 161.523438 C 33.492188 162.820312 40.953125 169.722656 43.492188 169.824219 " fill-opacity="1" fill-rule="nonzero"/><path fill="#312f30" d="M 2.1875 78.054688 C 2.175781 78.03125 2.160156 77.996094 2.148438 77.96875 C 2.125 77.96875 2.089844 77.964844 2.0625 77.964844 C 1.386719 79.09375 0.738281 89.410156 1.261719 90.652344 C 1.289062 90.65625 1.324219 90.65625 1.351562 90.65625 C 1.644531 90.117188 1.894531 87.546875 2.015625 86.0625 C 2.21875 83.570312 2.445312 79.191406 2.1875 78.054688 " fill-opacity="1" fill-rule="nonzero"/><path fill="#312f30" d="M 4.910156 77.519531 C 5.410156 74.894531 5.824219 70.765625 5.191406 69.808594 C 5.140625 69.769531 5.058594 69.714844 4.996094 69.722656 C 3.605469 69.878906 1.824219 80.910156 2.992188 82.148438 C 3.488281 82.675781 4.3125 80.683594 4.910156 77.519531 " fill-opacity="1" fill-rule="nonzero"/><path fill="#312f30" d="M 9.613281 68.796875 C 10.351562 66.222656 10.953125 62.226562 9.972656 61.417969 C 9.929688 61.402344 9.875 61.375 9.832031 61.367188 C 7.917969 61.050781 5.085938 70.941406 6.421875 73.253906 C 7.117188 74.449219 8.578125 72.410156 9.613281 68.796875 " fill-opacity="1" fill-rule="nonzero"/><path fill="#312f30" d="M 11.59375 64.328125 C 12.417969 65.824219 14.453125 63.738281 15.867188 59.953125 C 16.800781 57.4375 17.550781 53.605469 16.277344 52.953125 C 13.902344 52.53125 10.136719 61.675781 11.59375 64.328125 " fill-opacity="1" fill-rule="nonzero"/><path fill="#312f30" d="M 11.253906 79.945312 C 11.726562 77.289062 11.707031 73.214844 10.175781 72.472656 C 10.113281 72.460938 10.03125 72.4375 9.972656 72.433594 C 7.492188 72.300781 5.671875 81.777344 7.652344 84.5 C 8.800781 86.082031 10.550781 83.867188 11.253906 79.945312 " fill-opacity="1" fill-rule="nonzero"/><path fill="#312f30" d="M 12.761719 75.023438 C 14.078125 76.949219 16.503906 74.6875 17.570312 70.535156 C 18.242188 67.925781 18.351562 63.988281 16.503906 63.40625 C 13.203125 63.144531 10.898438 72.289062 12.761719 75.023438 " fill-opacity="1" fill-rule="nonzero"/><path fill="#312f30" d="M 34.566406 81.300781 C 34.84375 78.597656 33.886719 74.71875 30.886719 74.558594 C 26.671875 74.941406 25.035156 82.433594 27.546875 85.773438 C 29.976562 89.003906 34.046875 86.410156 34.566406 81.300781 " fill-opacity="1" fill-rule="nonzero"/><path fill="#312f30" d="M 42.277344 91.265625 C 42.316406 88.515625 40.828125 84.636719 37.390625 84.621094 C 32.570312 85.230469 31.574219 92.785156 34.84375 96.125 C 37.894531 99.238281 42.203125 96.421875 42.277344 91.265625 " fill-opacity="1" fill-rule="nonzero"/><path fill="#312f30" d="M 43.898438 106.191406 C 47.476562 109.164062 51.980469 106.144531 51.671875 100.980469 C 51.503906 98.203125 49.554688 94.351562 45.734375 94.484375 C 40.480469 95.308594 40.015625 102.964844 43.898438 106.191406 " fill-opacity="1" fill-rule="nonzero"/><path fill="#312f30" d="M 55.675781 104.085938 C 50.441406 105.046875 50.074219 112.207031 53.9375 115.519531 C 57.9375 118.953125 63.125 115.835938 62.472656 110.390625 C 62.136719 107.601562 59.808594 103.796875 55.675781 104.085938 " fill-opacity="1" fill-rule="nonzero"/><path fill="#312f30" d="M 26.40625 64.40625 C 22.523438 64.597656 20.324219 72.53125 22.457031 75.632812 C 24.332031 78.363281 27.820312 75.90625 28.777344 71.179688 C 29.3125 68.546875 28.929688 64.703125 26.40625 64.40625 " fill-opacity="1" fill-rule="nonzero"/><path fill="#312f30" d="M 19.328125 65.371094 C 20.683594 67.617188 23.683594 65.332031 25.058594 61 C 25.867188 58.457031 26.09375 54.6875 24.066406 54.273438 C 20.578125 54.261719 17.609375 62.527344 19.328125 65.371094 " fill-opacity="1" fill-rule="nonzero"/><path fill="#312f30" d="M 29.449219 117.734375 L 29.40625 117.804688 L 29.417969 117.8125 Z M 29.449219 117.734375 " fill-opacity="1" fill-rule="nonzero"/><path fill="#312f30" d="M 32.023438 128.214844 L 32.101562 128.285156 L 32.035156 128.214844 C 32.03125 128.214844 32.027344 128.214844 32.023438 128.214844 " fill-opacity="1" fill-rule="nonzero"/><path fill="#312f30" d="M 64.65625 162.5 C 68.503906 164.007812 71.167969 161.9375 69.65625 158.617188 C 68.761719 156.65625 65.902344 153.96875 62.34375 154.125 C 61.972656 154.183594 61.507812 154.25 61.070312 154.472656 C 58.097656 155.972656 60.242188 160.777344 64.65625 162.5 " fill-opacity="1" fill-rule="nonzero"/><path fill="#312f30" d="M 64.082031 170.238281 C 67.007812 170.804688 68.210938 169.054688 66.601562 166.570312 C 65.566406 164.964844 62.683594 162.433594 59.367188 162.472656 C 59.148438 162.484375 58.480469 162.53125 57.960938 162.90625 C 55.628906 164.582031 59.628906 169.382812 64.082031 170.238281 " fill-opacity="1" fill-rule="nonzero"/><path fill="#312f30" d="M 49.605469 80.128906 C 49.746094 77.550781 48.449219 73.96875 45.121094 74.0625 C 41.058594 74.488281 39.066406 81.015625 41.9375 84.488281 C 44.671875 87.796875 49.328125 85.144531 49.605469 80.128906 " fill-opacity="1" fill-rule="nonzero"/><path fill="#312f30" d="M 38.738281 64.542969 C 34.730469 65.066406 32.863281 71.84375 35.058594 74.859375 C 37.222656 77.828125 41.273438 75.496094 42.050781 70.835938 C 42.480469 68.265625 41.738281 64.613281 38.738281 64.542969 " fill-opacity="1" fill-rule="nonzero"/><path fill="#312f30" d="M 3.898438 69.710938 C 4.355469 69.46875 5.15625 66.976562 5.59375 65.515625 C 5.769531 64.933594 7.28125 59.828125 7.058594 58.582031 C 7.039062 58.546875 7 58.5 6.960938 58.484375 C 6.941406 58.492188 6.910156 58.5 6.890625 58.515625 C 5.855469 59.210938 3.117188 69.464844 3.898438 69.710938 " fill-opacity="1" fill-rule="nonzero"/><path fill="#312f30" d="M 73.976562 149.363281 C 73.261719 147.355469 70.78125 144.476562 66.863281 144.78125 C 66.566406 144.835938 66.171875 144.90625 65.890625 145.007812 C 62.230469 146.304688 63.296875 151.578125 67.648438 153.683594 C 71.398438 155.5 75.445312 153.5 73.976562 149.363281 " fill-opacity="1" fill-rule="nonzero"/><path fill="#312f30" d="M 58.15625 180.609375 C 58.699219 180.519531 57.480469 179.484375 56.160156 178.546875 C 54.664062 177.484375 51.304688 175.34375 49.324219 174.859375 C 49.085938 174.828125 48.882812 174.796875 48.828125 174.929688 C 48.457031 175.863281 56.652344 180.851562 58.15625 180.609375 " fill-opacity="1" fill-rule="nonzero"/><path fill="#312f30" d="M 64.523438 176.4375 C 66.582031 176.578125 66.859375 175.316406 65.1875 173.429688 C 64.089844 172.195312 61.195312 169.832031 58.101562 169.738281 C 57.6875 169.769531 57.296875 169.796875 56.96875 170.039062 C 55.078125 171.445312 60.65625 176.171875 64.523438 176.4375 " fill-opacity="1" fill-rule="nonzero"/><path fill="#312f30" d="M 30.199219 65.144531 C 31.703125 67.351562 35.210938 65.664062 36.371094 61.21875 C 36.796875 59.59375 37.265625 55.320312 34.367188 55.117188 C 30.707031 55.457031 28.355469 62.4375 30.199219 65.144531 " fill-opacity="1" fill-rule="nonzero"/><path fill="#312f30" d="M 10.296875 57.4375 C 11.070312 55.546875 12.390625 51.734375 11.878906 50.839844 C 11.851562 50.824219 11.820312 50.792969 11.792969 50.78125 C 10.613281 50.378906 6.867188 59.71875 7.578125 61.300781 C 7.921875 62.074219 9.066406 60.449219 10.296875 57.4375 " fill-opacity="1" fill-rule="nonzero"/><path fill="#312f30" d="M 53.351562 83.59375 C 48.402344 84.5 47.949219 91.125 50.695312 93.980469 C 53.640625 97.039062 58.847656 94.886719 58.714844 89.449219 C 58.628906 85.878906 56.222656 83.25 53.351562 83.59375 " fill-opacity="1" fill-rule="nonzero"/><path fill="#312f30" d="M 73.78125 119.441406 C 73.355469 117.007812 71.199219 113.539062 67.003906 113.953125 C 62.039062 114.734375 61.957031 121.582031 65.804688 124.429688 C 69.484375 127.15625 74.703125 124.722656 73.78125 119.441406 " fill-opacity="1" fill-rule="nonzero"/><path fill="#312f30" d="M 72.078125 143.59375 C 76.132812 146.125 80.617188 143.507812 79.574219 139.214844 C 78.84375 136.203125 75.582031 133.945312 72.597656 134.386719 C 72.445312 134.417969 72.242188 134.453125 72.089844 134.492188 C 67.980469 135.585938 67.972656 141.027344 72.078125 143.59375 " fill-opacity="1" fill-rule="nonzero"/><path fill="#312f30" d="M 23.695312 44.859375 C 21.109375 44.695312 17.578125 52.367188 18.558594 54.617188 C 19.269531 56.246094 21.609375 54.429688 23.195312 51.019531 C 24.167969 48.933594 25.160156 45.414062 23.695312 44.859375 " fill-opacity="1" fill-rule="nonzero"/><path fill="#312f30" d="M 66.496094 181.410156 C 67.503906 181.324219 67.160156 180.394531 65.667969 179.144531 C 63.632812 177.441406 60.351562 175.890625 58.652344 175.816406 C 58.339844 175.824219 58.042969 175.832031 57.851562 176.007812 C 56.574219 177.210938 63.683594 181.652344 66.496094 181.410156 " fill-opacity="1" fill-rule="nonzero"/><path fill="#312f30" d="M 32.105469 45.746094 C 29.203125 45.933594 25.9375 52.261719 27.253906 55.148438 C 28.304688 57.449219 31.476562 55.308594 32.910156 51.332031 C 33.691406 49.167969 33.957031 46.007812 32.105469 45.746094 " fill-opacity="1" fill-rule="nonzero"/><path fill="#312f30" d="M 13.011719 52.898438 C 13.394531 53.910156 15.078125 52.113281 16.617188 49.054688 C 17.648438 47.011719 18.855469 43.703125 18.1875 43.085938 C 18.183594 43.085938 18.179688 43.082031 18.175781 43.078125 C 16.625 42.480469 12.230469 50.828125 13.011719 52.898438 " fill-opacity="1" fill-rule="nonzero"/><path fill="#312f30" d="M 63.175781 92.9375 C 58.726562 93.632812 57.453125 100.105469 61.140625 103.277344 C 64.757812 106.386719 69.664062 103.449219 69.21875 98.441406 C 68.992188 95.9375 66.972656 92.578125 63.175781 92.9375 " fill-opacity="1" fill-rule="nonzero"/><path fill="#312f30" d="M 81.644531 165.0625 C 80.710938 162.824219 77.414062 161 74.851562 161.308594 C 74.617188 161.347656 74.304688 161.40625 74.078125 161.488281 C 71.242188 162.496094 71.949219 166.308594 76.296875 168.144531 C 80.179688 169.785156 82.757812 167.738281 81.644531 165.0625 " fill-opacity="1" fill-rule="nonzero"/><path fill="#312f30" d="M 78.519531 172.402344 C 77.550781 170.929688 74.679688 168.960938 71.796875 169.09375 C 71.277344 169.148438 70.851562 169.292969 70.53125 169.523438 C 68.5 170.996094 71.613281 174.582031 75.660156 175.425781 C 78.769531 176.074219 79.765625 174.304688 78.519531 172.402344 " fill-opacity="1" fill-rule="nonzero"/><path fill="#312f30" d="M 53.050781 63.589844 C 49.699219 64.027344 47.273438 69.703125 49.9375 72.960938 C 52.394531 75.964844 56.6875 73.605469 57.109375 69.015625 C 57.332031 66.632812 56.042969 63.421875 53.050781 63.589844 " fill-opacity="1" fill-rule="nonzero"/><path fill="#312f30" d="M 49.804688 60 C 50.328125 57.015625 48.898438 54.457031 46.808594 54.628906 C 43.300781 55.214844 41.089844 61.042969 43.277344 63.933594 C 45.371094 66.695312 49.125 63.875 49.804688 60 " fill-opacity="1" fill-rule="nonzero"/><path fill="#312f30" d="M 13.050781 46.605469 C 13.488281 45.800781 15.648438 41.75 15.570312 40.738281 C 15.558594 40.722656 15.550781 40.691406 15.535156 40.679688 C 14.855469 40.179688 10.308594 48.78125 10.667969 49.882812 C 10.808594 50.316406 11.722656 49.0625 13.050781 46.605469 " fill-opacity="1" fill-rule="nonzero"/><path fill="#312f30" d="M 38.4375 54.59375 C 39.761719 56.886719 43.304688 55.140625 44.398438 50.800781 C 44.898438 48.832031 44.820312 45.882812 42.574219 45.84375 C 39.316406 46.277344 37.003906 52.105469 38.4375 54.59375 " fill-opacity="1" fill-rule="nonzero"/><path fill="#312f30" d="M 61.152344 72.601562 C 57.230469 73.214844 55.65625 79.289062 58.675781 82.164062 C 61.605469 84.953125 66.152344 82.183594 66.046875 77.675781 C 66 75.539062 64.625 72.273438 61.152344 72.601562 " fill-opacity="1" fill-rule="nonzero"/><path fill="#312f30" d="M 85.929688 156.113281 C 84.996094 153.710938 82.085938 152.074219 79.441406 152.460938 C 79.183594 152.515625 78.835938 152.585938 78.585938 152.675781 C 75.273438 153.863281 76 158.15625 79.824219 159.972656 C 83.65625 161.792969 87.25 159.519531 85.929688 156.113281 " fill-opacity="1" fill-rule="nonzero"/><path fill="#312f30" d="M 76.996094 178.617188 C 75.363281 176.941406 72.445312 175.667969 70.484375 175.773438 C 70.160156 175.808594 69.613281 175.863281 69.304688 176.1875 C 68 177.558594 72.863281 180.992188 76.242188 181.085938 C 78.121094 181.136719 78.4375 180.101562 76.996094 178.617188 " fill-opacity="1" fill-rule="nonzero"/><path fill="#312f30" d="M 31.898438 36.785156 C 29.746094 36.585938 25.742188 42.96875 26.542969 45.320312 C 27.105469 46.96875 29.585938 45.625 31.453125 41.941406 C 32.28125 40.304688 33.441406 37.121094 31.898438 36.785156 " fill-opacity="1" fill-rule="nonzero"/><path fill="#312f30" d="M 69.605469 185.171875 C 70.082031 185.078125 69.363281 184.445312 67.683594 183.484375 C 67.269531 183.246094 63.578125 181.164062 61.246094 180.832031 C 61 180.816406 60.769531 180.804688 60.691406 180.921875 C 60.160156 181.710938 68.074219 185.484375 69.605469 185.171875 " fill-opacity="1" fill-rule="nonzero"/><path fill="#312f30" d="M 91.609375 146.511719 C 91.144531 144.636719 89.058594 142.023438 85.214844 142.527344 C 85.214844 142.527344 85.214844 142.527344 85.210938 142.527344 C 85.210938 142.53125 85.210938 142.53125 85.210938 142.53125 C 85.210938 142.53125 85.207031 142.53125 85.207031 142.53125 C 85.207031 142.53125 85.207031 142.53125 85.203125 142.53125 C 84.613281 142.664062 83.390625 142.945312 82.5625 144.066406 C 80.578125 146.734375 83.261719 151.84375 88.433594 151.160156 C 88.433594 151.160156 88.4375 151.160156 88.4375 151.160156 C 88.441406 151.160156 88.441406 151.160156 88.441406 151.160156 C 88.445312 151.160156 88.445312 151.160156 88.445312 151.160156 C 92.410156 150.25 91.703125 146.894531 91.609375 146.511719 " fill-opacity="1" fill-rule="nonzero"/><path fill="#312f30" d="M 85.917969 128.054688 C 85.539062 125.898438 83.402344 122.667969 79.265625 123.167969 C 74.453125 124.292969 74.476562 130.164062 78.234375 132.625 C 82.085938 135.148438 86.679688 132.414062 85.917969 128.054688 " fill-opacity="1" fill-rule="nonzero"/><path fill="#312f30" d="M 74.355469 102.195312 C 69.910156 103.011719 68.96875 109.382812 72.878906 112.214844 C 76.625 114.929688 81.332031 111.871094 80.632812 107.179688 C 80.222656 104.4375 77.882812 101.757812 74.355469 102.195312 " fill-opacity="1" fill-rule="nonzero"/><path fill="#312f30" d="M 8.300781 54.054688 C 8.953125 52.5 10.484375 48.792969 10.675781 47.871094 C 10.679688 47.847656 10.679688 47.816406 10.679688 47.789062 C 10.664062 47.789062 10.640625 47.789062 10.625 47.789062 C 9.984375 48.582031 6.394531 57.046875 6.695312 57.570312 C 6.789062 57.4375 7.011719 57.128906 8.300781 54.054688 " fill-opacity="1" fill-rule="nonzero"/><path fill="#312f30" d="M 60.25 182.414062 C 56.015625 180.222656 54.804688 179.695312 54.179688 179.46875 C 54.179688 179.46875 54.175781 179.46875 54.175781 179.46875 C 54.175781 179.46875 54.175781 179.464844 54.175781 179.464844 C 54.171875 179.464844 54.171875 179.464844 54.171875 179.464844 C 54.113281 179.449219 54.03125 179.425781 53.96875 179.417969 C 53.964844 179.429688 53.960938 179.453125 53.957031 179.464844 C 54.839844 180.296875 62.242188 183.863281 63.117188 183.996094 C 63.082031 183.921875 63.058594 183.863281 60.25 182.414062 " fill-opacity="1" fill-rule="nonzero"/><path fill="#312f30" d="M 19.941406 44.242188 C 20.253906 45.335938 21.980469 44.257812 23.960938 40.949219 C 24.074219 40.757812 26.734375 36.28125 25.585938 35.574219 C 23.605469 35.265625 19.441406 42.480469 19.941406 44.242188 " fill-opacity="1" fill-rule="nonzero"/><path fill="#312f30" d="M 77.769531 185.414062 C 77.769531 185.414062 77.773438 185.414062 77.773438 185.414062 C 77.773438 185.414062 77.773438 185.414062 77.777344 185.414062 C 77.84375 185.40625 77.933594 185.40625 78.003906 185.398438 C 78.949219 185.289062 78.691406 184.597656 77.347656 183.640625 C 75.441406 182.28125 72.578125 181.195312 70.96875 181.214844 C 70.679688 181.230469 70.382812 181.25 70.195312 181.40625 C 69.167969 182.253906 74.390625 185.347656 77.769531 185.414062 " fill-opacity="1" fill-rule="nonzero"/><path fill="#312f30" d="M 40.460938 37.175781 C 40.136719 37.210938 39.648438 37.261719 38.824219 37.929688 C 35.867188 40.324219 34.203125 46.007812 36.996094 46.210938 C 36.996094 46.210938 36.996094 46.210938 37 46.210938 C 37 46.210938 37.003906 46.210938 37.003906 46.210938 C 39.316406 45.976562 40.824219 42.558594 40.992188 42.171875 C 42.011719 39.761719 42.042969 37.179688 40.460938 37.175781 " fill-opacity="1" fill-rule="nonzero"/><path fill="#312f30" d="M 21.890625 33.617188 C 21.152344 33.445312 15.621094 40.746094 16.363281 42.242188 C 16.363281 42.242188 16.363281 42.242188 16.363281 42.246094 C 16.367188 42.246094 16.367188 42.246094 16.367188 42.246094 C 17.007812 42.617188 19.242188 39.238281 19.492188 38.851562 C 20.292969 37.632812 22.289062 34.320312 21.960938 33.65625 C 21.9375 33.644531 21.914062 33.621094 21.890625 33.617188 " fill-opacity="1" fill-rule="nonzero"/><path fill="#312f30" d="M 70.898438 81.519531 C 66.128906 82.636719 66.035156 88.589844 68.859375 90.96875 C 71.792969 93.441406 76.703125 91.210938 76.378906 86.46875 C 76.15625 83.253906 73.699219 81.035156 70.898438 81.519531 " fill-opacity="1" fill-rule="nonzero"/><path fill="#312f30" d="M 81.984375 90.277344 C 78.023438 91.300781 76.878906 96.371094 79.976562 99.164062 C 83.542969 102.386719 88.152344 99.183594 87.789062 94.984375 C 87.589844 92.703125 85.460938 89.792969 81.984375 90.277344 " fill-opacity="1" fill-rule="nonzero"/><path fill="#312f30" d="M 92.796875 115.890625 C 92.394531 112.898438 89.335938 110.589844 86.503906 111.140625 C 82.4375 112.210938 81.464844 117.492188 84.832031 120.257812 C 88.796875 123.519531 93.382812 120.226562 92.796875 115.890625 " fill-opacity="1" fill-rule="nonzero"/><path fill="#312f30" d="M 98.089844 135.597656 C 97.597656 133.003906 94.59375 131.054688 91.90625 131.585938 C 87.914062 132.625 87.148438 137.328125 90.585938 139.703125 C 94.511719 142.417969 98.804688 139.375 98.089844 135.597656 " fill-opacity="1" fill-rule="nonzero"/><path fill="#312f30" d="M 28.03125 35.808594 C 28.226562 37.214844 30.507812 35.375 32.242188 32.886719 C 33.484375 31.101562 34.75 28.441406 33.890625 28.097656 C 32.070312 28.035156 27.738281 33.730469 28.03125 35.808594 " fill-opacity="1" fill-rule="nonzero"/><path fill="#312f30" d="M 93.085938 170.429688 C 92.351562 168.625 89.429688 167.175781 87.191406 167.503906 C 86.984375 167.546875 86.703125 167.605469 86.503906 167.679688 C 84.128906 168.542969 84.449219 171.472656 87.882812 172.964844 C 91.398438 174.492188 94.023438 172.730469 93.085938 170.429688 " fill-opacity="1" fill-rule="nonzero"/><path fill="#312f30" d="M 65.710938 184.652344 C 65.648438 184.644531 65.5625 184.632812 65.5 184.632812 C 65.492188 184.648438 65.484375 184.671875 65.476562 184.6875 C 66.226562 185.425781 72.757812 187.699219 74.246094 187.925781 C 74.257812 187.914062 74.277344 187.898438 74.292969 187.882812 C 74.042969 187.726562 73.175781 187.355469 71.710938 186.773438 C 71.25 186.589844 67.175781 184.984375 65.710938 184.652344 " fill-opacity="1" fill-rule="nonzero"/><path fill="#312f30" d="M 35.300781 36.386719 C 35.792969 37.910156 38.199219 36.320312 39.898438 33.347656 C 40.820312 31.730469 41.796875 29.078125 40.476562 28.851562 C 38.320312 29.003906 34.644531 34.355469 35.300781 36.386719 " fill-opacity="1" fill-rule="nonzero"/><path fill="#312f30" d="M 81.054688 188.507812 C 81.421875 188.296875 79.867188 187.554688 79.382812 187.332031 C 77.515625 186.46875 74.679688 185.507812 73.359375 185.449219 C 73.148438 185.453125 72.929688 185.457031 72.863281 185.5625 C 72.394531 186.332031 80.050781 189.085938 81.054688 188.507812 " fill-opacity="1" fill-rule="nonzero"/><path fill="#312f30" d="M 60.851562 53.3125 C 57.542969 54.046875 55.90625 59.105469 58.160156 61.636719 C 60.351562 64.101562 64.1875 61.816406 64.476562 57.875 C 64.671875 55.1875 62.945312 53.011719 60.851562 53.3125 " fill-opacity="1" fill-rule="nonzero"/><path fill="#312f30" d="M 54.742188 44.980469 C 51.789062 45.566406 49.800781 50.382812 51.46875 52.910156 C 53.117188 55.398438 56.703125 53.339844 57.371094 49.523438 C 57.828125 46.933594 56.574219 44.769531 54.742188 44.980469 " fill-opacity="1" fill-rule="nonzero"/><path fill="#312f30" d="M 86.917969 179.640625 C 89.816406 180.242188 90.96875 178.792969 89.875 177.179688 C 88.828125 175.636719 86.050781 174.453125 84.046875 174.691406 C 83.667969 174.757812 83.308594 174.820312 82.941406 175.074219 C 81.179688 176.28125 83.484375 178.925781 86.917969 179.640625 " fill-opacity="1" fill-rule="nonzero"/><path fill="#312f30" d="M 23.445312 34.328125 C 23.574219 35.09375 25.113281 33.835938 26.949219 31.460938 C 26.980469 31.421875 30.058594 27.425781 29.476562 26.78125 C 28.261719 26.449219 23.1875 32.796875 23.445312 34.328125 " fill-opacity="1" fill-rule="nonzero"/><path fill="#312f30" d="M 87.542969 184.6875 C 89.179688 184.667969 89.480469 183.835938 88.257812 182.710938 C 87.289062 181.820312 84.992188 180.539062 82.640625 180.675781 C 82.359375 180.703125 81.84375 180.789062 81.578125 181.054688 C 80.410156 182.214844 84.535156 184.726562 87.542969 184.6875 " fill-opacity="1" fill-rule="nonzero"/><path fill="#312f30" d="M 50.652344 36.851562 C 48.089844 37.101562 45.613281 42.214844 46.972656 44.445312 C 48.089844 46.28125 51.179688 44.730469 52.179688 41.140625 C 52.667969 39.394531 52.664062 36.808594 50.652344 36.851562 " fill-opacity="1" fill-rule="nonzero"/><path fill="#312f30" d="M 68.851562 61.773438 C 65.402344 62.390625 64 67.640625 66.609375 70.15625 C 68.988281 72.445312 73.332031 70.433594 73.214844 66.148438 C 73.160156 64.183594 71.953125 61.398438 68.851562 61.773438 " fill-opacity="1" fill-rule="nonzero"/><path fill="#312f30" d="M 97.53125 162.15625 C 97.042969 160.78125 95.066406 158.761719 91.84375 159.199219 C 91.613281 159.238281 91.265625 159.320312 90.921875 159.464844 C 88.210938 160.601562 88.738281 164.003906 91.847656 165.429688 C 95.136719 166.941406 98.535156 164.980469 97.53125 162.15625 " fill-opacity="1" fill-rule="nonzero"/><path fill="#312f30" d="M 17.742188 36.265625 C 19.050781 34.367188 20.652344 31.960938 20.871094 31.246094 C 20.859375 31.226562 20.847656 31.195312 20.839844 31.171875 C 20.074219 31.433594 15.464844 38.34375 15.648438 38.953125 C 15.734375 38.925781 15.964844 38.847656 17.742188 36.265625 " fill-opacity="1" fill-rule="nonzero"/><path fill="#312f30" d="M 24.214844 29.390625 C 24.25 29.351562 27.394531 25.574219 27.398438 24.863281 C 27.390625 24.851562 27.378906 24.835938 27.367188 24.824219 C 26.476562 24.785156 21.097656 31.414062 21.554688 31.992188 C 21.949219 32.023438 23.390625 30.375 24.214844 29.390625 " fill-opacity="1" fill-rule="nonzero"/><path fill="#312f30" d="M 77.710938 188.515625 C 77.507812 188.503906 77.507812 188.503906 77.453125 188.554688 C 77.9375 189.03125 84.832031 190.730469 85.472656 190.53125 C 85.386719 190.484375 85.246094 190.402344 83.296875 189.863281 C 80.492188 189.089844 78.613281 188.636719 77.710938 188.515625 " fill-opacity="1" fill-rule="nonzero"/><path fill="#312f30" d="M 94.0625 98.96875 C 90.285156 99.84375 89.308594 104.921875 92.433594 107.457031 C 95.789062 110.179688 100.386719 107.480469 99.777344 103.144531 C 99.484375 101.058594 97.515625 98.382812 94.0625 98.96875 " fill-opacity="1" fill-rule="nonzero"/><path fill="#312f30" d="M 100.335938 156.972656 C 100.335938 156.972656 100.339844 156.972656 100.339844 156.972656 C 100.339844 156.972656 100.34375 156.972656 100.34375 156.972656 C 100.34375 156.972656 100.34375 156.972656 100.347656 156.972656 C 100.347656 156.972656 100.347656 156.96875 100.347656 156.96875 C 100.351562 156.96875 100.351562 156.96875 100.351562 156.96875 C 100.351562 156.96875 100.351562 156.96875 100.355469 156.96875 C 103.882812 156.089844 103.328125 153.261719 103.253906 152.9375 C 102.886719 151.375 101.105469 149.238281 97.703125 149.773438 C 96.363281 150.050781 95.644531 150.757812 95.332031 151.152344 C 93.382812 153.660156 96.089844 157.621094 100.332031 156.972656 C 100.332031 156.972656 100.332031 156.972656 100.335938 156.972656 " fill-opacity="1" fill-rule="nonzero"/><path fill="#312f30" d="M 48.710938 28.90625 C 46.632812 29.050781 43.78125 33.671875 44.472656 35.773438 C 45.046875 37.527344 47.691406 36.28125 49.132812 32.929688 C 49.789062 31.398438 50.253906 28.953125 48.710938 28.90625 " fill-opacity="1" fill-rule="nonzero"/><path fill="#312f30" d="M 31.71875 26.65625 C 31.691406 27.539062 33.414062 26.34375 35.402344 24.105469 C 36.425781 22.953125 38.375 20.453125 37.878906 20.082031 C 36.597656 19.953125 31.765625 25.113281 31.71875 26.65625 " fill-opacity="1" fill-rule="nonzero"/><path fill="#312f30" d="M 89.234375 188.261719 C 89.832031 188.082031 89.472656 187.546875 88.320312 186.898438 C 87.355469 186.351562 85.003906 185.332031 83.03125 185.378906 C 83.027344 185.378906 83.027344 185.378906 83.027344 185.378906 C 83.027344 185.378906 83.023438 185.378906 83.023438 185.378906 C 83.023438 185.378906 83.023438 185.378906 83.019531 185.378906 C 82.785156 185.402344 82.390625 185.441406 82.261719 185.640625 C 81.597656 186.632812 87.398438 188.816406 89.234375 188.261719 " fill-opacity="1" fill-rule="nonzero"/><path fill="#312f30" d="M 78.484375 70.175781 C 78.484375 70.175781 78.480469 70.175781 78.480469 70.175781 C 78.480469 70.175781 78.480469 70.175781 78.476562 70.175781 C 78.472656 70.175781 78.472656 70.175781 78.472656 70.175781 C 78.472656 70.175781 78.472656 70.175781 78.46875 70.175781 C 78.46875 70.175781 78.46875 70.175781 78.46875 70.179688 C 78.464844 70.179688 78.464844 70.179688 78.464844 70.179688 C 78.464844 70.179688 78.460938 70.179688 78.460938 70.179688 C 74.238281 71.3125 74.269531 76.660156 76.835938 78.617188 C 79.75 80.839844 83.734375 78.257812 83.394531 74.363281 C 83.230469 72.492188 81.753906 69.695312 78.484375 70.175781 " fill-opacity="1" fill-rule="nonzero"/><path fill="#312f30" d="M 73.070312 187.722656 L 73.339844 187.804688 C 73.140625 187.742188 72.929688 187.679688 72.734375 187.621094 L 73.070312 187.722656 " fill-opacity="1" fill-rule="nonzero"/><path fill="#312f30" d="M 104.984375 123.722656 C 104.488281 121.070312 101.84375 119.316406 99.21875 119.894531 C 94.964844 121.085938 94.78125 126.144531 97.972656 128.203125 C 101.398438 130.414062 105.722656 127.648438 104.984375 123.722656 " fill-opacity="1" fill-rule="nonzero"/><path fill="#312f30" d="M 36.980469 27.648438 C 37.195312 28.703125 39.222656 27.324219 41.074219 24.871094 C 41.953125 23.707031 43.480469 21.226562 42.59375 20.988281 C 41.195312 20.867188 36.609375 25.832031 36.980469 27.648438 " fill-opacity="1" fill-rule="nonzero"/><path fill="#312f30" d="M 109.898438 142.652344 C 109.664062 140.648438 107.386719 138.757812 104.488281 139.253906 C 101.144531 140.179688 100.1875 143.84375 102.757812 145.902344 C 106.007812 148.503906 110.28125 145.96875 109.898438 142.652344 " fill-opacity="1" fill-rule="nonzero"/><path fill="#312f30" d="M 91.894531 190.695312 C 92.175781 190.539062 90.917969 190.089844 90.527344 189.953125 C 88.921875 189.402344 86.375 188.792969 85.28125 188.808594 C 85.121094 188.816406 84.855469 188.832031 84.851562 188.957031 C 84.847656 189.589844 91.101562 191.132812 91.894531 190.695312 " fill-opacity="1" fill-rule="nonzero"/><path fill="#312f30" d="M 89.511719 78.441406 C 89.507812 78.441406 89.507812 78.441406 89.507812 78.441406 C 89.507812 78.441406 89.503906 78.441406 89.503906 78.441406 C 89.5 78.441406 89.5 78.441406 89.5 78.441406 C 89.5 78.445312 89.496094 78.445312 89.496094 78.445312 C 89.496094 78.445312 89.496094 78.445312 89.492188 78.445312 C 85.808594 79.511719 85.039062 84.542969 88.226562 86.726562 C 91.570312 89.011719 95.222656 85.859375 94.699219 82.289062 C 94.417969 80.375 92.457031 77.972656 89.511719 78.441406 " fill-opacity="1" fill-rule="nonzero"/><path fill="#312f30" d="M 44.273438 27.675781 C 44.632812 28.894531 46.777344 27.46875 48.296875 25.007812 C 49.003906 23.863281 50.085938 21.457031 48.933594 21.316406 C 47.042969 21.546875 43.777344 26.003906 44.273438 27.675781 " fill-opacity="1" fill-rule="nonzero"/><path fill="#312f30" d="M 28.929688 25.015625 C 28.929688 25.015625 28.933594 25.015625 28.933594 25.015625 C 29.386719 25.203125 31.476562 23.109375 32.105469 22.464844 C 32.234375 22.332031 35.222656 19.253906 35.078125 18.722656 C 35.0625 18.714844 35.042969 18.699219 35.027344 18.695312 C 34.410156 18.59375 28.503906 23.957031 28.929688 25.015625 " fill-opacity="1" fill-rule="nonzero"/><path fill="#312f30" d="M 103.617188 174.808594 C 103.132812 173.765625 101.351562 172.449219 98.90625 172.785156 C 98.5625 172.847656 98.214844 172.964844 97.957031 173.101562 C 96.132812 174.078125 96.929688 176.273438 99.425781 177.148438 C 102.085938 178.085938 104.511719 176.730469 103.617188 174.808594 " fill-opacity="1" fill-rule="nonzero"/><path fill="#312f30" d="M 66.046875 50.433594 C 67.980469 52.523438 71.277344 50.367188 71.308594 46.992188 C 71.324219 45.367188 70.363281 43.1875 68.179688 43.4375 C 65.5 43.933594 64.140625 48.382812 66.046875 50.433594 " fill-opacity="1" fill-rule="nonzero"/><path fill="#312f30" d="M 97.667969 182.980469 C 99.945312 183.390625 101.3125 182.417969 100.382812 181.050781 C 99.570312 179.859375 97.367188 179.03125 95.664062 179.28125 C 95.386719 179.332031 94.925781 179.421875 94.578125 179.699219 C 93.351562 180.671875 95.082031 182.511719 97.667969 182.980469 " fill-opacity="1" fill-rule="nonzero"/><path fill="#312f30" d="M 62.183594 35.792969 C 59.488281 36.386719 58.214844 40.863281 59.710938 42.570312 C 61.09375 44.152344 64.003906 42.574219 64.429688 39.34375 C 64.679688 37.445312 63.894531 35.546875 62.183594 35.792969 " fill-opacity="1" fill-rule="nonzero"/><path fill="#312f30" d="M 108.277344 167.253906 C 107.898438 166.140625 106.355469 164.636719 103.660156 165.074219 C 103.53125 165.101562 103.25 165.175781 103.246094 165.175781 C 100.5 166.007812 100.8125 168.78125 103.089844 169.960938 C 105.859375 171.398438 109.109375 169.703125 108.277344 167.253906 " fill-opacity="1" fill-rule="nonzero"/><path fill="#312f30" d="M 58.253906 28.316406 C 56.183594 28.582031 54.148438 32.785156 55.226562 34.566406 C 56.128906 36.050781 58.660156 34.769531 59.496094 31.839844 C 59.914062 30.375 59.925781 28.226562 58.253906 28.316406 " fill-opacity="1" fill-rule="nonzero"/><path fill="#312f30" d="M 76.074219 51.265625 C 72.628906 52.164062 72.445312 56.714844 74.429688 58.421875 C 76.488281 60.191406 80.023438 58.421875 79.855469 54.910156 C 79.746094 52.515625 78.046875 50.882812 76.074219 51.265625 " fill-opacity="1" fill-rule="nonzero"/><path fill="#312f30" d="M 98.046875 187.300781 C 99.34375 187.21875 99.597656 186.621094 98.671875 185.84375 C 97.699219 185.027344 95.734375 184.300781 94.128906 184.496094 C 93.882812 184.535156 93.46875 184.601562 93.238281 184.820312 C 92.28125 185.714844 95.652344 187.453125 98.046875 187.300781 " fill-opacity="1" fill-rule="nonzero"/><path fill="#312f30" d="M 99.390625 190.15625 C 99.851562 190.015625 99.605469 189.683594 98.742188 189.285156 C 97.824219 188.859375 95.902344 188.265625 94.382812 188.359375 C 94.148438 188.382812 93.851562 188.441406 93.757812 188.582031 C 93.304688 189.269531 97.992188 190.578125 99.390625 190.15625 " fill-opacity="1" fill-rule="nonzero"/><path fill="#312f30" d="M 46.222656 19.777344 C 46.390625 20.527344 48.078125 19.410156 49.695312 17.488281 C 50.96875 15.972656 51.90625 14.316406 51.269531 14.261719 C 49.773438 14.394531 45.957031 18.570312 46.222656 19.777344 " fill-opacity="1" fill-rule="nonzero"/><path fill="#312f30" d="M 89.539062 191.003906 C 89.363281 191 89.363281 191 89.320312 191.039062 C 89.777344 191.328125 95.703125 192.113281 96.136719 191.941406 C 95.980469 191.902344 95.777344 191.871094 94.203125 191.628906 C 91.714844 191.253906 90.34375 191.042969 89.539062 191.003906 " fill-opacity="1" fill-rule="nonzero"/><path fill="#312f30" d="M 56.761719 24.355469 C 57.484375 22.746094 57.558594 21.011719 56.5 21.09375 C 54.632812 21.433594 52.300781 25.320312 53.035156 26.871094 C 53.632812 28.125 55.683594 26.738281 56.761719 24.355469 " fill-opacity="1" fill-rule="nonzero"/><path fill="#312f30" d="M 37.4375 18.128906 C 37.347656 18.640625 38.734375 17.746094 40.660156 16.050781 C 40.695312 16.019531 43.878906 13.1875 43.648438 12.8125 C 42.792969 12.65625 37.628906 17.078125 37.4375 18.128906 " fill-opacity="1" fill-rule="nonzero"/><path fill="#312f30" d="M 106.761719 107.542969 C 102.742188 108.746094 102.90625 113.375 105.277344 115.273438 C 108.050781 117.496094 112.621094 115.457031 112.027344 111.300781 C 111.644531 108.613281 109.28125 106.925781 106.761719 107.542969 " fill-opacity="1" fill-rule="nonzero"/><path fill="#312f30" d="M 46.6875 13.773438 C 45.453125 13.75 40.757812 18.199219 40.84375 19.304688 C 40.890625 19.882812 42.273438 19.15625 44.429688 16.976562 C 44.546875 16.855469 47.292969 14.070312 46.6875 13.773438 " fill-opacity="1" fill-rule="nonzero"/><path fill="#312f30" d="M 111.894531 127.933594 C 108.285156 128.84375 107.859375 133.101562 110.414062 134.902344 C 113.269531 136.914062 117.398438 134.519531 116.910156 131.125 C 116.683594 129.550781 115.121094 127.289062 111.894531 127.933594 " fill-opacity="1" fill-rule="nonzero"/><path fill="#312f30" d="M 27.496094 22.527344 C 27.503906 22.507812 27.503906 22.480469 27.503906 22.464844 C 26.925781 22.722656 22.253906 28.230469 22.242188 28.667969 C 22.375 28.585938 22.722656 28.21875 24.253906 26.441406 C 26.761719 23.527344 27.296875 22.859375 27.496094 22.527344 " fill-opacity="1" fill-rule="nonzero"/><path fill="#312f30" d="M 101.546875 86.757812 C 97.5 87.988281 97.835938 92.796875 100.445312 94.523438 C 103.460938 96.523438 107.21875 93.980469 106.632812 90.335938 C 106.226562 87.824219 103.898438 86.1875 101.546875 86.757812 " fill-opacity="1" fill-rule="nonzero"/><path fill="#312f30" d="M 85.632812 59.058594 C 82.253906 60.023438 81.964844 64.488281 84.433594 66.269531 C 87.011719 68.136719 90.390625 65.757812 89.90625 62.414062 C 89.683594 60.878906 88.328125 58.613281 85.632812 59.058594 " fill-opacity="1" fill-rule="nonzero"/><path fill="#312f30" d="M 114.160156 158.59375 C 113.847656 157.074219 112.152344 155.703125 109.621094 156.164062 C 106.503906 156.886719 106.175781 159.96875 108.3125 161.4375 C 110.894531 163.210938 114.722656 161.355469 114.160156 158.59375 " fill-opacity="1" fill-rule="nonzero"/><path fill="#312f30" d="M 30.894531 20.390625 C 30.925781 20.363281 34.011719 17.402344 34.214844 16.882812 C 34.214844 16.882812 34.214844 16.882812 34.203125 16.855469 C 33.542969 16.832031 28.285156 21.933594 28.40625 22.484375 C 28.644531 22.507812 30.066406 21.183594 30.894531 20.390625 " fill-opacity="1" fill-rule="nonzero"/><path fill="#312f30" d="M 95.710938 73.882812 C 98.613281 75.777344 101.632812 73.054688 101.085938 70.035156 C 100.804688 68.464844 99.175781 66.363281 96.585938 66.855469 C 93.769531 67.566406 92.761719 71.960938 95.710938 73.882812 " fill-opacity="1" fill-rule="nonzero"/><path fill="#312f30" d="M 120.894531 148.691406 C 120.683594 147.105469 118.957031 145.695312 116.539062 146.175781 C 113.925781 146.832031 112.589844 149.980469 114.9375 151.730469 C 117.632812 153.742188 121.253906 151.40625 120.894531 148.691406 " fill-opacity="1" fill-rule="nonzero"/><path fill="#312f30" d="M 96.574219 190.914062 C 96.320312 190.9375 96.246094 190.960938 96.222656 191.027344 C 96.464844 191.5 101.242188 192.019531 101.855469 191.789062 C 101.855469 191.773438 101.859375 191.757812 101.863281 191.746094 C 101.8125 191.710938 101.679688 191.613281 100.511719 191.382812 C 100.078125 191.296875 97.84375 190.871094 96.574219 190.914062 " fill-opacity="1" fill-rule="nonzero"/><path fill="#312f30" d="M 53.011719 19.3125 C 53.179688 20.277344 54.808594 19.414062 56.246094 17.210938 C 57.164062 15.808594 57.679688 14.308594 56.914062 14.335938 C 55.527344 14.542969 52.792969 18.03125 53.011719 19.3125 " fill-opacity="1" fill-rule="nonzero"/><path fill="#312f30" d="M 38.765625 14.546875 C 39.953125 13.59375 41.960938 11.933594 42.050781 11.558594 C 41.6875 11.234375 36.226562 15.628906 36.148438 16.3125 C 36.195312 16.359375 36.339844 16.5 38.765625 14.546875 " fill-opacity="1" fill-rule="nonzero"/><path fill="#312f30" d="M 73.308594 39.675781 C 74.785156 41.085938 77.375 39.683594 77.300781 36.886719 C 77.269531 35.796875 76.691406 33.808594 74.710938 34.089844 C 72.445312 34.566406 71.828125 38.257812 73.308594 39.675781 " fill-opacity="1" fill-rule="nonzero"/><path fill="#312f30" d="M 109.597656 177.160156 C 109.449219 177.195312 109.253906 177.242188 109.113281 177.292969 C 107.339844 177.925781 107.734375 179.554688 109.3125 180.265625 C 111.117188 181.078125 113.683594 180.226562 113.097656 178.613281 C 112.816406 177.84375 111.652344 176.824219 109.597656 177.160156 " fill-opacity="1" fill-rule="nonzero"/><path fill="#312f30" d="M 70.679688 29.910156 C 70.839844 28.363281 70.199219 26.898438 68.847656 27.121094 C 66.761719 27.625 65.875 31.082031 67.0625 32.433594 C 68.175781 33.699219 70.410156 32.472656 70.679688 29.910156 " fill-opacity="1" fill-rule="nonzero"/><path fill="#312f30" d="M 107.25 185.453125 C 108.933594 185.765625 110.429688 185.136719 109.707031 184.046875 C 109.117188 183.15625 107.585938 182.648438 106.214844 182.886719 C 105.992188 182.933594 105.621094 183.011719 105.335938 183.214844 C 104.386719 183.886719 105.441406 185.121094 107.25 185.453125 " fill-opacity="1" fill-rule="nonzero"/><path fill="#312f30" d="M 117.921875 171.707031 C 117.710938 170.84375 116.609375 169.707031 114.441406 170.113281 C 111.875 170.792969 112.003906 172.902344 113.539062 173.789062 C 115.5625 174.960938 118.390625 173.617188 117.921875 171.707031 " fill-opacity="1" fill-rule="nonzero"/><path fill="#312f30" d="M 114.226562 94.976562 C 110.710938 95.953125 110.878906 100.277344 113.078125 101.910156 C 115.570312 103.757812 119.566406 101.679688 118.863281 98.039062 C 118.601562 96.679688 117.296875 94.296875 114.226562 94.976562 " fill-opacity="1" fill-rule="nonzero"/><path fill="#312f30" d="M 55.585938 7.886719 C 54.519531 7.945312 50.394531 11.433594 50.390625 12.277344 C 50.386719 12.703125 51.503906 12.144531 53.378906 10.472656 C 53.40625 10.449219 56.074219 8.0625 55.585938 7.886719 " fill-opacity="1" fill-rule="nonzero"/><path fill="#312f30" d="M 46.855469 11.632812 C 46.820312 11.988281 48.011719 11.296875 49.820312 9.910156 C 50.109375 9.691406 52.648438 7.734375 52.683594 7.347656 C 52.675781 7.335938 52.664062 7.328125 52.65625 7.320312 C 51.855469 7.269531 46.921875 10.941406 46.855469 11.632812 " fill-opacity="1" fill-rule="nonzero"/><path fill="#312f30" d="M 118.207031 122.515625 C 120.605469 124.269531 124.585938 122.335938 124.089844 118.851562 C 123.898438 117.5 122.703125 115.132812 119.554688 115.835938 C 115.726562 117.078125 116.308594 121.132812 118.207031 122.515625 " fill-opacity="1" fill-rule="nonzero"/><path fill="#312f30" d="M 81.472656 46.9375 C 83.410156 48.527344 86.054688 46.632812 85.695312 43.910156 C 85.53125 42.683594 84.523438 40.855469 82.503906 41.191406 C 80.21875 41.71875 79.5625 45.371094 81.472656 46.9375 " fill-opacity="1" fill-rule="nonzero"/><path fill="#312f30" d="M 128.125 137.621094 C 127.882812 135.878906 125.957031 134.742188 124.085938 135.238281 C 121.308594 136.136719 120.414062 139.300781 122.488281 140.878906 C 125.027344 142.808594 128.5 140.308594 128.125 137.621094 " fill-opacity="1" fill-rule="nonzero"/><path fill="#312f30" d="M 107.589844 189.007812 C 108.394531 188.871094 108.503906 188.457031 107.855469 187.992188 C 107.320312 187.613281 105.945312 187.078125 104.519531 187.25 C 104.054688 187.324219 103.859375 187.464844 103.773438 187.570312 C 103.21875 188.289062 105.890625 189.296875 107.589844 189.007812 " fill-opacity="1" fill-rule="nonzero"/><path fill="#312f30" d="M 62.835938 25.210938 C 63.566406 26.464844 65.464844 25.222656 66.058594 23.101562 C 66.453125 21.691406 66.144531 20.21875 65.074219 20.359375 C 63.445312 20.734375 62.023438 23.816406 62.835938 25.210938 " fill-opacity="1" fill-rule="nonzero"/><path fill="#312f30" d="M 120.542969 161.796875 C 118.402344 162.433594 117.566406 164.535156 118.972656 165.746094 C 120.953125 167.449219 124.121094 165.773438 123.976562 163.679688 C 123.882812 162.332031 122.183594 161.402344 120.542969 161.796875 " fill-opacity="1" fill-rule="nonzero"/><path fill="#312f30" d="M 93.546875 54.617188 C 93.550781 54.617188 93.550781 54.617188 93.550781 54.617188 C 93.550781 54.617188 93.550781 54.617188 93.550781 54.613281 C 93.550781 54.617188 93.550781 54.613281 93.550781 54.613281 C 93.550781 54.613281 93.554688 54.613281 93.554688 54.613281 C 95.378906 54.023438 95.789062 52.191406 95.617188 51.105469 C 95.339844 49.3125 93.578125 47.980469 91.992188 48.359375 C 91.667969 48.460938 91 48.671875 90.449219 49.535156 C 88.90625 51.933594 90.84375 55.117188 93.546875 54.617188 " fill-opacity="1" fill-rule="nonzero"/><path fill="#312f30" d="M 107.632812 81.039062 C 110.4375 83.144531 113.546875 80.589844 112.996094 77.601562 C 112.664062 75.820312 110.894531 74.1875 108.605469 74.65625 C 105.835938 75.566406 105.273438 79.269531 107.632812 81.039062 " fill-opacity="1" fill-rule="nonzero"/><path fill="#312f30" d="M 44.980469 10.484375 C 45.230469 10.5625 46.984375 9.398438 47.722656 8.890625 C 47.753906 8.871094 50.824219 6.773438 50.910156 6.445312 C 50.316406 6.300781 44.941406 9.960938 44.980469 10.484375 " fill-opacity="1" fill-rule="nonzero"/><path fill="#312f30" d="M 63.5 13.9375 C 62.273438 14.207031 60.398438 17.039062 60.878906 18.300781 C 61.304688 19.421875 62.988281 17.976562 63.71875 16.21875 C 64.195312 15.085938 64.199219 13.867188 63.5 13.9375 " fill-opacity="1" fill-rule="nonzero"/><path fill="#312f30" d="M 59.519531 8.074219 C 58.667969 8.097656 55.265625 11.292969 55.285156 12.328125 C 55.296875 12.988281 56.820312 11.871094 58.074219 10.507812 C 58.816406 9.695312 60 8.152344 59.519531 8.074219 " fill-opacity="1" fill-rule="nonzero"/><path fill="#312f30" d="M 107.859375 190.625 C 107.023438 190.351562 105.472656 190.125 104.644531 190.222656 C 104.492188 190.25 104.238281 190.289062 104.199219 190.410156 C 104.023438 190.96875 107.726562 191.398438 108.40625 191.089844 C 108.679688 190.964844 108.300781 190.765625 107.859375 190.625 " fill-opacity="1" fill-rule="nonzero"/><path fill="#312f30" d="M 35.167969 14.714844 C 35.171875 14.703125 35.183594 14.683594 35.191406 14.671875 C 34.835938 14.828125 30.460938 18.820312 30.234375 19.3125 C 30.3125 19.253906 30.3125 19.253906 32.121094 17.578125 C 34.433594 15.433594 34.980469 14.925781 35.167969 14.714844 " fill-opacity="1" fill-rule="nonzero"/><path fill="#312f30" d="M 38.792969 12.527344 C 41.636719 10.367188 41.851562 10.117188 42.007812 9.933594 C 41.703125 9.773438 36.816406 13.5 36.777344 13.925781 C 36.824219 13.929688 36.9375 13.9375 38.792969 12.527344 " fill-opacity="1" fill-rule="nonzero"/><path fill="#312f30" d="M 56.730469 5.5625 C 56.847656 5.710938 57.601562 5.300781 59.40625 4.09375 C 59.789062 3.839844 61.703125 2.554688 61.792969 2.3125 C 61.789062 2.308594 61.78125 2.300781 61.777344 2.296875 C 61.417969 2.25 56.800781 4.949219 56.730469 5.5625 " fill-opacity="1" fill-rule="nonzero"/><path fill="#312f30" d="M 130.78125 154.429688 C 130.78125 154.398438 130.640625 151.664062 127.601562 152.476562 C 124.105469 153.542969 125.617188 156.332031 125.949219 156.667969 C 127.078125 157.820312 130.625 157.210938 130.78125 154.429688 " fill-opacity="1" fill-rule="nonzero"/><path fill="#312f30" d="M 64.082031 8.039062 C 63.152344 8.222656 61.050781 10.832031 61.164062 11.660156 C 61.25 12.289062 62.449219 11.605469 63.453125 10.132812 C 63.699219 9.773438 64.871094 7.996094 64.082031 8.039062 " fill-opacity="1" fill-rule="nonzero"/><g clip-path="url(#00b8ceeb87)"><path fill="#312f30" d="M 109.566406 191.832031 C 108.011719 191.765625 107.3125 191.757812 106.800781 191.800781 C 106.535156 191.824219 106.523438 191.84375 106.507812 191.871094 C 106.859375 192.074219 110.121094 192.019531 110.59375 191.90625 C 110.566406 191.882812 110.550781 191.875 109.566406 191.832031 " fill-opacity="1" fill-rule="nonzero"/></g><path fill="#312f30" d="M 130.546875 128.917969 C 131.015625 129.265625 132.296875 129.949219 134.125 128.75 C 134.726562 128.355469 135.691406 127.4375 135.445312 125.703125 C 135.121094 123.429688 133.28125 123.117188 131.808594 123.546875 C 128.839844 124.585938 129.144531 127.867188 130.546875 128.917969 " fill-opacity="1" fill-rule="nonzero"/><path fill="#312f30" d="M 125.949219 109.15625 C 127.402344 110.359375 131.464844 109.675781 131.058594 105.78125 C 131.054688 105.746094 130.535156 102.25 127.121094 103.117188 C 123.476562 104.210938 124.726562 108.148438 125.949219 109.15625 " fill-opacity="1" fill-rule="nonzero"/><path fill="#312f30" d="M 120.566406 88.28125 C 120.847656 88.472656 122.332031 89.363281 124.023438 88.195312 C 124.765625 87.683594 125.570312 86.726562 125.210938 85.074219 C 124.75 82.925781 123.203125 81.949219 121.1875 82.527344 C 118.222656 83.589844 118.890625 87.140625 120.566406 88.28125 " fill-opacity="1" fill-rule="nonzero"/><path fill="#312f30" d="M 102.519531 61.160156 C 104.207031 62.144531 107.230469 61.234375 106.578125 58.214844 C 106.242188 56.648438 104.910156 55.277344 103.015625 55.683594 C 100.039062 56.515625 100.816406 60.171875 102.519531 61.160156 " fill-opacity="1" fill-rule="nonzero"/><path fill="#312f30" d="M 50.105469 5.421875 C 50.109375 5.414062 50.097656 5.40625 50.09375 5.398438 C 49.605469 5.414062 45.402344 7.96875 44.816406 8.726562 C 45.070312 8.691406 45.675781 8.355469 47.207031 7.390625 C 49.378906 6.019531 50.03125 5.578125 50.105469 5.421875 " fill-opacity="1" fill-rule="nonzero"/><path fill="#312f30" d="M 115.253906 185.578125 C 115.089844 185.617188 114.816406 185.679688 114.617188 185.816406 C 114.125 186.160156 114.296875 186.878906 115.539062 187.160156 C 116.597656 187.40625 118.050781 187.015625 117.558594 186.21875 C 117.257812 185.730469 116.429688 185.34375 115.253906 185.578125 " fill-opacity="1" fill-rule="nonzero"/><path fill="#312f30" d="M 59.878906 5.910156 C 60.273438 5.769531 60.816406 5.492188 62.097656 4.472656 C 63.144531 3.636719 64.34375 2.632812 64.101562 2.574219 C 64.097656 2.574219 64.097656 2.574219 64.09375 2.574219 C 63.570312 2.601562 59.433594 5.480469 59.878906 5.910156 " fill-opacity="1" fill-rule="nonzero"/><g clip-path="url(#f614c8a3ca)"><path fill="#312f30" d="M 54.753906 4.925781 C 55.195312 4.808594 55.902344 4.441406 57.464844 3.53125 C 60.09375 1.996094 60.125 1.90625 60.15625 1.820312 C 60.15625 1.820312 60.15625 1.820312 60.152344 1.820312 C 59.765625 1.765625 55.0625 4.320312 54.753906 4.925781 " fill-opacity="1" fill-rule="nonzero"/></g><path fill="#312f30" d="M 118.804688 180.675781 C 118.722656 180.695312 118.644531 180.71875 118.5625 180.742188 C 117.511719 181.066406 116.964844 182.136719 118.300781 182.789062 C 119.476562 183.363281 121.460938 182.667969 121.101562 181.546875 C 121.035156 181.339844 120.609375 180.324219 118.804688 180.675781 " fill-opacity="1" fill-rule="nonzero"/><path fill="#312f30" d="M 73.339844 22.929688 C 73.921875 23.679688 75.667969 23.445312 75.871094 21.082031 C 75.871094 21.058594 75.859375 18.972656 74.472656 19.171875 C 72.886719 19.507812 72.675781 22.078125 73.339844 22.929688 " fill-opacity="1" fill-rule="nonzero"/><path fill="#312f30" d="M 79.480469 29.453125 C 79.492188 29.457031 80.382812 30.195312 81.21875 29.605469 C 81.519531 29.398438 82.316406 28.835938 82.230469 27.523438 C 82.222656 27.425781 82.046875 25.089844 80.230469 25.398438 C 78.453125 25.8125 78.410156 28.546875 79.480469 29.453125 " fill-opacity="1" fill-rule="nonzero"/><path fill="#312f30" d="M 123.777344 174.445312 C 122.007812 174.9375 121.933594 176.320312 122.820312 176.957031 C 123.8125 177.675781 126.257812 177.023438 126.054688 175.46875 C 125.929688 174.523438 125.058594 174.128906 123.777344 174.445312 " fill-opacity="1" fill-rule="nonzero"/><path fill="#312f30" d="M 114.5625 68.011719 C 115.925781 68.875 118.949219 68.300781 118.425781 65.21875 C 118.339844 64.710938 117.382812 62.292969 114.890625 63.011719 C 112.015625 63.992188 113.375 67.253906 114.5625 68.011719 " fill-opacity="1" fill-rule="nonzero"/><path fill="#312f30" d="M 135.308594 142.019531 C 132.398438 142.996094 133.144531 145.496094 133.601562 146.078125 C 134.6875 147.453125 138.027344 146.609375 138.199219 143.859375 C 138.226562 143.4375 137.808594 141.292969 135.308594 142.019531 " fill-opacity="1" fill-rule="nonzero"/><path fill="#312f30" d="M 40.863281 9.941406 C 43.175781 8.25 43.175781 8.25 43.316406 8.125 C 43.332031 8.113281 43.347656 8.09375 43.355469 8.078125 C 42.988281 8.234375 39.664062 10.703125 39.40625 11.011719 C 39.921875 10.695312 40.378906 10.300781 40.863281 9.941406 " fill-opacity="1" fill-rule="nonzero"/><g clip-path="url(#930be9afc0)"><path fill="#312f30" d="M 59.117188 1.230469 C 58.941406 1.136719 54.710938 3.195312 54.214844 3.742188 C 54.351562 3.78125 54.996094 3.464844 56.496094 2.6875 C 58.589844 1.601562 59.054688 1.34375 59.117188 1.230469 " fill-opacity="1" fill-rule="nonzero"/></g><path fill="#312f30" d="M 115.175781 189.941406 C 115.875 189.847656 116.011719 189.664062 115.609375 189.375 C 115.601562 189.367188 114.722656 188.824219 113.46875 189.046875 C 113.316406 189.074219 113.003906 189.140625 112.90625 189.269531 C 112.664062 189.59375 113.945312 190.117188 115.175781 189.941406 " fill-opacity="1" fill-rule="nonzero"/><path fill="#312f30" d="M 71.53125 14.992188 C 71.683594 14.152344 71.683594 13.171875 70.820312 13.273438 C 69.507812 13.523438 68.988281 16.015625 69.464844 16.632812 C 69.914062 17.210938 71.203125 16.792969 71.53125 14.992188 " fill-opacity="1" fill-rule="nonzero"/><path fill="#312f30" d="M 132.21875 168.050781 C 132.195312 167.425781 131.890625 166.4375 130.101562 166.871094 C 127.484375 167.671875 128.554688 169.484375 128.796875 169.699219 C 129.667969 170.484375 132.277344 169.761719 132.21875 168.050781 " fill-opacity="1" fill-rule="nonzero"/><path fill="#312f30" d="M 65.75 4.242188 C 65.800781 4.191406 65.867188 4.121094 65.917969 4.066406 C 67.125 2.824219 67.050781 2.683594 66.890625 2.6875 C 66.269531 2.785156 63.871094 4.996094 63.835938 5.503906 C 63.820312 5.734375 64.28125 5.734375 65.75 4.242188 " fill-opacity="1" fill-rule="nonzero"/><path fill="#312f30" d="M 87.546875 36.019531 C 88.675781 36.761719 90.824219 36.054688 90.355469 33.8125 C 90.113281 32.644531 89.347656 31.515625 87.929688 31.859375 C 85.773438 32.503906 86.519531 35.339844 87.546875 36.019531 " fill-opacity="1" fill-rule="nonzero"/><path fill="#312f30" d="M 97.238281 42.488281 C 98.589844 43.277344 100.648438 42.300781 100.027344 40.226562 C 99.777344 39.386719 99.101562 38.03125 97.394531 38.421875 C 95.191406 39.03125 96.132812 41.839844 97.238281 42.488281 " fill-opacity="1" fill-rule="nonzero"/><path fill="#312f30" d="M 133.371094 94.992188 C 134.585938 96.097656 137.691406 95.734375 137.421875 92.253906 C 137.347656 91.273438 136.152344 90.472656 136.140625 90.46875 C 135.375 89.992188 134.652344 90.1875 134.265625 90.292969 C 131.59375 91.171875 132.347656 94.058594 133.371094 94.992188 " fill-opacity="1" fill-rule="nonzero"/><path fill="#312f30" d="M 113.503906 191.023438 C 113.394531 191.042969 113.175781 191.082031 113.179688 191.136719 C 113.1875 191.214844 113.699219 191.304688 114.507812 191.3125 C 114.90625 191.316406 115.835938 191.257812 115.882812 191.15625 C 115.855469 191.132812 115.8125 191.109375 115.5 191.058594 C 115.488281 191.058594 114.367188 190.894531 113.503906 191.023438 " fill-opacity="1" fill-rule="nonzero"/><path fill="#312f30" d="M 67.738281 10.476562 C 67.792969 10.628906 67.972656 10.945312 68.460938 10.585938 C 68.734375 10.386719 69.132812 10.027344 69.464844 9.203125 C 69.703125 8.613281 70.011719 7.636719 69.398438 7.679688 C 68.582031 7.8125 67.507812 9.824219 67.738281 10.476562 " fill-opacity="1" fill-rule="nonzero"/><path fill="#312f30" d="M 138.652344 115.78125 C 139.324219 116.25 140.652344 116.269531 141.121094 115.945312 C 141.558594 115.644531 142.886719 114.71875 142.613281 113.03125 C 142.394531 111.671875 141.390625 110.550781 139.632812 111.109375 C 136.859375 112.125 137.660156 115.089844 138.652344 115.78125 " fill-opacity="1" fill-rule="nonzero"/><path fill="#312f30" d="M 47.984375 5.644531 C 48.007812 5.632812 50.191406 4.363281 50.4375 4.132812 C 50.4375 4.125 50.4375 4.117188 50.4375 4.109375 C 50.078125 4.171875 46.769531 6.078125 46.332031 6.535156 C 46.332031 6.542969 46.335938 6.550781 46.335938 6.554688 C 46.476562 6.515625 46.875 6.289062 47.984375 5.644531 " fill-opacity="1" fill-rule="nonzero"/><path fill="#312f30" d="M 143.378906 130.722656 C 141.3125 131.398438 141.121094 133.523438 142.097656 134.496094 C 143.179688 135.578125 145.761719 134.421875 145.726562 132.429688 C 145.71875 132.035156 145.574219 130.097656 143.378906 130.722656 " fill-opacity="1" fill-rule="nonzero"/><path fill="#312f30" d="M 139.242188 159.304688 C 139.246094 158.792969 139.074219 157.652344 137.359375 158.101562 C 135.355469 158.703125 135.40625 160.398438 135.964844 160.984375 C 136.816406 161.878906 139.226562 160.902344 139.242188 159.304688 " fill-opacity="1" fill-rule="nonzero"/><path fill="#312f30" d="M 127.386719 74.554688 C 128.792969 75.445312 131.226562 74.355469 130.613281 72.152344 C 130.457031 71.582031 129.777344 69.769531 127.695312 70.347656 C 125.347656 71.125 126.226562 73.820312 127.386719 74.554688 " fill-opacity="1" fill-rule="nonzero"/><path fill="#312f30" d="M 108.222656 48.785156 C 109.238281 49.425781 111.441406 49.023438 110.910156 46.789062 C 110.902344 46.765625 110.277344 44.539062 108.289062 45.121094 C 106.101562 45.867188 107.441406 48.289062 108.222656 48.785156 " fill-opacity="1" fill-rule="nonzero"/><path fill="#312f30" d="M 69.683594 3.867188 C 69.777344 3.738281 70.59375 2.621094 70.195312 2.621094 C 69.609375 2.742188 68.375 4.421875 68.398438 4.792969 C 68.398438 4.800781 68.570312 5.375 69.683594 3.867188 " fill-opacity="1" fill-rule="nonzero"/><path fill="#312f30" d="M 122.566406 187.441406 C 122.503906 187.457031 122.441406 187.472656 122.378906 187.492188 C 121.820312 187.679688 121.960938 187.96875 122.230469 188.105469 C 122.675781 188.328125 123.765625 188.144531 123.609375 187.671875 C 123.609375 187.667969 123.375 187.277344 122.566406 187.441406 " fill-opacity="1" fill-rule="nonzero"/><path fill="#312f30" d="M 145.152344 148.320312 C 144.085938 148.710938 143.335938 150.027344 144.027344 150.84375 C 144.730469 151.671875 146.632812 150.898438 146.769531 149.410156 C 146.875 148.273438 146.03125 148.042969 145.152344 148.320312 " fill-opacity="1" fill-rule="nonzero"/><path fill="#312f30" d="M 120.4375 54.980469 C 121.722656 55.617188 123.167969 54.609375 122.566406 53.050781 C 122.171875 52.039062 121.273438 51.558594 120.320312 51.863281 C 118.589844 52.511719 119.5 54.519531 120.4375 54.980469 " fill-opacity="1" fill-rule="nonzero"/><path fill="#312f30" d="M 126.242188 183.488281 C 125.417969 183.695312 125.289062 184.210938 125.558594 184.476562 C 126.03125 184.933594 127.339844 184.527344 127.304688 183.933594 C 127.292969 183.683594 127.054688 183.308594 126.242188 183.488281 " fill-opacity="1" fill-rule="nonzero"/><path fill="#312f30" d="M 146.519531 101.601562 C 147.324219 102.203125 149.226562 101.519531 148.949219 99.78125 C 148.808594 98.910156 148.355469 97.964844 146.996094 98.386719 C 145.222656 99.015625 145.757812 101.039062 146.519531 101.601562 " fill-opacity="1" fill-rule="nonzero"/><path fill="#312f30" d="M 151.335938 118.78125 C 149.632812 119.386719 150.027344 121.242188 150.605469 121.660156 C 150.613281 121.664062 151.351562 122.160156 152.261719 121.488281 C 152.464844 121.339844 153.085938 120.882812 152.988281 119.90625 C 152.929688 119.3125 152.636719 118.375 151.335938 118.78125 " fill-opacity="1" fill-rule="nonzero"/><path fill="#312f30" d="M 131.351562 178.144531 C 130.085938 178.523438 130.578125 179.375 130.585938 179.382812 C 130.914062 179.792969 132.3125 179.480469 132.390625 178.652344 C 132.414062 178.410156 132.355469 177.878906 131.351562 178.144531 " fill-opacity="1" fill-rule="nonzero"/><path fill="#312f30" d="M 92.222656 25.660156 C 92.785156 25.980469 93.960938 25.65625 93.566406 24.4375 C 93.445312 24.046875 93.054688 23.167969 92.152344 23.40625 C 90.929688 23.800781 91.683594 25.351562 92.222656 25.660156 " fill-opacity="1" fill-rule="nonzero"/><path fill="#312f30" d="M 121.550781 189.9375 C 121.445312 189.882812 121.140625 189.777344 120.605469 189.886719 C 120.519531 189.90625 120.339844 189.945312 120.308594 190.003906 C 120.226562 190.15625 121.042969 190.246094 121.507812 190.089844 C 121.652344 190.039062 121.664062 189.992188 121.550781 189.9375 " fill-opacity="1" fill-rule="nonzero"/><path fill="#312f30" d="M 84.296875 19.867188 C 84.703125 20.207031 85.816406 20.171875 85.65625 18.835938 C 85.65625 18.824219 85.4375 17.515625 84.453125 17.75 C 83.492188 18.039062 83.835938 19.472656 84.296875 19.867188 " fill-opacity="1" fill-rule="nonzero"/><path fill="#312f30" d="M 75.628906 8.113281 C 75.679688 7.804688 75.742188 7.09375 75.261719 7.160156 C 74.648438 7.292969 74.503906 8.546875 74.742188 8.824219 C 74.960938 9.082031 75.5 8.921875 75.628906 8.113281 " fill-opacity="1" fill-rule="nonzero"/><path fill="#312f30" d="M 78.472656 14.273438 C 78.59375 14.375 78.917969 14.574219 79.296875 14.234375 C 79.457031 14.089844 79.640625 13.804688 79.597656 13.257812 C 79.574219 12.996094 79.457031 12.148438 78.789062 12.292969 C 77.925781 12.535156 78.09375 13.953125 78.472656 14.273438 " fill-opacity="1" fill-rule="nonzero"/><path fill="#312f30" d="M 140.5625 80.871094 C 141.253906 81.28125 143.125 80.960938 142.710938 79.050781 C 142.707031 79.035156 142.28125 77.410156 140.757812 77.875 C 139.023438 78.492188 139.847656 80.449219 140.5625 80.871094 " fill-opacity="1" fill-rule="nonzero"/><path fill="#312f30" d="M 101.882812 31.371094 C 102.546875 31.617188 102.722656 31.421875 102.945312 31.175781 C 103.058594 31.054688 103.289062 30.703125 103.035156 30.09375 C 102.753906 29.425781 102.144531 29.082031 101.550781 29.25 C 101.523438 29.261719 101.484375 29.273438 101.457031 29.285156 C 100.667969 29.617188 100.953125 31.019531 101.882812 31.371094 " fill-opacity="1" fill-rule="nonzero"/><path fill="#312f30" d="M 137.84375 171.34375 C 136.957031 171.613281 136.683594 172.339844 136.933594 172.703125 C 137.167969 173.046875 137.871094 172.875 137.878906 172.871094 C 137.882812 172.867188 138.625 172.476562 138.726562 171.976562 C 138.777344 171.738281 138.722656 171.113281 137.84375 171.34375 " fill-opacity="1" fill-rule="nonzero"/><path fill="#312f30" d="M 145.207031 163.34375 C 144.304688 163.660156 144.367188 164.425781 144.484375 164.589844 C 144.738281 164.925781 145.757812 164.613281 145.910156 163.894531 C 145.941406 163.753906 146.046875 163.074219 145.207031 163.34375 " fill-opacity="1" fill-rule="nonzero"/><g clip-path="url(#90907d87d1)"><path fill="#312f30" d="M 153.375 137.601562 C 152.460938 137.929688 152.269531 139.019531 152.679688 139.46875 C 153.132812 139.96875 154.429688 139.332031 154.472656 138.378906 C 154.488281 137.953125 154.371094 137.28125 153.375 137.601562 " fill-opacity="1" fill-rule="nonzero"/></g><path fill="#312f30" d="M 133.253906 60.914062 C 133.910156 61.238281 135.101562 60.722656 134.667969 59.617188 C 134.5 59.1875 134.09375 58.507812 133.222656 58.777344 C 131.945312 59.230469 132.691406 60.632812 133.253906 60.914062 " fill-opacity="1" fill-rule="nonzero"/><path fill="#312f30" d="M 112.804688 36.898438 C 112.851562 36.917969 113.273438 37.070312 113.554688 36.800781 C 113.785156 36.582031 113.839844 36.320312 113.71875 36.027344 C 113.714844 36.015625 113.339844 35.136719 112.578125 35.339844 C 112.542969 35.351562 112.503906 35.367188 112.46875 35.382812 C 111.753906 35.71875 112.269531 36.6875 112.804688 36.898438 " fill-opacity="1" fill-rule="nonzero"/></g></g></g><path fill="#000000" d="M 121.035156 101.996094 L 253.964844 235.136719 " fill-opacity="1" fill-rule="nonzero"/><g clip-path="url(#f178ff52e6)"><path fill="#000000" d="M 253.964844 237.789062 C 253.289062 237.789062 252.613281 237.527344 252.097656 237.011719 L 119.160156 103.867188 C 118.128906 102.832031 118.128906 101.15625 119.160156 100.121094 C 120.195312 99.085938 121.871094 99.085938 122.902344 100.121094 L 255.839844 233.261719 C 256.871094 234.296875 256.871094 235.976562 255.839844 237.007812 C 255.320312 237.527344 254.644531 237.789062 253.964844 237.789062 Z M 253.964844 237.789062 " fill-opacity="1" fill-rule="nonzero"/></g><g clip-path="url(#5a922262c5)"><path fill="#000000" d="M 121.035156 237.789062 C 121.03125 237.789062 121.03125 237.789062 121.035156 237.789062 C 119.570312 237.789062 118.386719 236.601562 118.386719 235.136719 L 118.414062 146.15625 C 118.414062 144.628906 119.328125 143.261719 120.742188 142.671875 C 122.152344 142.085938 123.761719 142.410156 124.84375 143.492188 L 167.867188 186.222656 C 168.90625 187.253906 168.914062 188.933594 167.882812 189.972656 C 166.855469 191.011719 165.179688 191.019531 164.140625 189.984375 L 123.703125 149.824219 L 123.679688 235.136719 C 123.679688 236.601562 122.492188 237.789062 121.035156 237.789062 Z M 121.109375 147.246094 C 121.109375 147.246094 121.113281 147.253906 121.117188 147.253906 Z M 121.109375 147.246094 " fill-opacity="1" fill-rule="nonzero"/></g><g clip-path="url(#57b2fa0784)"><path fill="#000000" d="M 253.964844 190.757812 C 252.503906 190.757812 251.320312 189.570312 251.320312 188.109375 L 251.292969 106.773438 L 205.566406 152.230469 C 204.53125 153.265625 202.855469 153.257812 201.824219 152.21875 C 200.796875 151.179688 200.800781 149.503906 201.839844 148.472656 L 250.164062 100.429688 C 251.238281 99.351562 252.847656 99.03125 254.257812 99.617188 C 255.671875 100.203125 256.585938 101.570312 256.585938 103.101562 L 256.613281 188.105469 C 256.613281 189.570312 255.429688 190.753906 253.964844 190.757812 Z M 253.898438 104.179688 L 253.890625 104.191406 C 253.894531 104.1875 253.894531 104.183594 253.898438 104.179688 Z M 253.898438 104.179688 " fill-opacity="1" fill-rule="nonzero"/></g><g fill="#000000" fill-opacity="1"><g transform="translate(142.678091, 260.79845)"><g><path d="M 0.703125 0 L 0.703125 -10.078125 L 4.0625 -10.078125 L 6.859375 -0.359375 L 5.640625 -0.359375 L 8.4375 -10.078125 L 11.8125 -10.078125 L 11.8125 0 L 9.6875 0 L 9.6875 -9.484375 L 10.046875 -9.484375 L 7.328125 0 L 5.09375 0 L 2.390625 -9.390625 L 2.75 -9.390625 L 2.75 0 Z M 0.703125 0 "/></g></g></g><g fill="#000000" fill-opacity="1"><g transform="translate(166.387364, 260.79845)"><g><path d="M 0.34375 0 L 3.953125 -10.078125 L 5.796875 -10.078125 L 2.484375 0 Z M 7.734375 0 L 4.421875 -10.078125 L 6.359375 -10.078125 L 9.96875 0 Z M 2.234375 -3.90625 L 7.890625 -3.90625 L 7.890625 -2.21875 L 2.234375 -2.21875 Z M 2.234375 -3.90625 "/></g></g></g><g fill="#000000" fill-opacity="1"><g transform="translate(187.885868, 260.79845)"><g><path d="M 4.84375 0.125 C 3.539062 0.125 2.492188 -0.164062 1.703125 -0.75 C 0.921875 -1.332031 0.46875 -2.15625 0.34375 -3.21875 L 2.40625 -3.21875 C 2.46875 -2.675781 2.726562 -2.25 3.1875 -1.9375 C 3.644531 -1.625 4.226562 -1.46875 4.9375 -1.46875 C 5.519531 -1.46875 5.96875 -1.570312 6.28125 -1.78125 C 6.59375 -1.988281 6.75 -2.265625 6.75 -2.609375 C 6.75 -2.929688 6.65625 -3.191406 6.46875 -3.390625 C 6.28125 -3.597656 5.957031 -3.757812 5.5 -3.875 L 3.625 -4.390625 C 2.664062 -4.660156 1.960938 -5.03125 1.515625 -5.5 C 1.078125 -5.976562 0.859375 -6.570312 0.859375 -7.28125 C 0.859375 -7.882812 1.015625 -8.40625 1.328125 -8.84375 C 1.640625 -9.289062 2.078125 -9.632812 2.640625 -9.875 C 3.210938 -10.113281 3.878906 -10.234375 4.640625 -10.234375 C 5.816406 -10.234375 6.753906 -9.953125 7.453125 -9.390625 C 8.160156 -8.835938 8.5625 -8.109375 8.65625 -7.203125 L 6.578125 -7.203125 C 6.484375 -7.691406 6.253906 -8.050781 5.890625 -8.28125 C 5.535156 -8.519531 5.078125 -8.640625 4.515625 -8.640625 C 4.035156 -8.640625 3.648438 -8.546875 3.359375 -8.359375 C 3.066406 -8.171875 2.921875 -7.921875 2.921875 -7.609375 C 2.921875 -7.359375 3 -7.132812 3.15625 -6.9375 C 3.320312 -6.738281 3.65625 -6.566406 4.15625 -6.421875 L 6.03125 -5.90625 C 7.019531 -5.632812 7.726562 -5.265625 8.15625 -4.796875 C 8.59375 -4.328125 8.8125 -3.734375 8.8125 -3.015625 C 8.8125 -2.003906 8.460938 -1.226562 7.765625 -0.6875 C 7.066406 -0.144531 6.09375 0.125 4.84375 0.125 Z M 4.84375 0.125 "/></g></g></g><g fill="#000000" fill-opacity="1"><g transform="translate(208.209028, 260.79845)"><g><path d="M 0.640625 0 L 0.640625 -10.078125 L 5.15625 -10.078125 C 5.882812 -10.078125 6.519531 -9.953125 7.0625 -9.703125 C 7.601562 -9.460938 8.019531 -9.117188 8.3125 -8.671875 C 8.613281 -8.222656 8.765625 -7.695312 8.765625 -7.09375 C 8.765625 -6.507812 8.613281 -5.992188 8.3125 -5.546875 C 8.019531 -5.109375 7.601562 -4.765625 7.0625 -4.515625 C 6.519531 -4.265625 5.882812 -4.140625 5.15625 -4.140625 L 2.359375 -4.140625 L 2.359375 -5.71875 L 5.09375 -5.71875 C 5.601562 -5.71875 5.992188 -5.835938 6.265625 -6.078125 C 6.546875 -6.316406 6.6875 -6.648438 6.6875 -7.078125 C 6.6875 -7.515625 6.550781 -7.847656 6.28125 -8.078125 C 6.007812 -8.304688 5.613281 -8.421875 5.09375 -8.421875 L 2.796875 -8.421875 L 2.796875 0 Z M 6.328125 0 L 2.28125 -5.234375 L 4.5625 -5.234375 L 9.234375 0 Z M 6.328125 0 "/></g></g></g><g fill="#000000" fill-opacity="1"><g transform="translate(228.756058, 260.79845)"><g><path d="M 0.703125 0 L 0.703125 -10.078125 L 2.859375 -10.078125 L 2.859375 0 Z M 0.703125 0 "/></g></g></g><g transform="matrix(1, 0, 0, 1, 149, 266)"><g clip-path="url(#83f0420814)"><g fill="#000000" fill-opacity="1"><g transform="translate(1.107525, 8.029634)"><g><path d="M 1.046875 0 L 0.65625 0 C 0.5625 0 0.515625 -0.046875 0.515625 -0.140625 L 0.515625 -5.109375 C 0.515625 -5.203125 0.5625 -5.25 0.65625 -5.25 L 2.046875 -5.25 C 2.753906 -5.25 3.273438 -5.09375 3.609375 -4.78125 C 3.941406 -4.476562 4.109375 -4.035156 4.109375 -3.453125 C 4.109375 -2.859375 3.9375 -2.40625 3.59375 -2.09375 C 3.257812 -1.789062 2.757812 -1.640625 2.09375 -1.640625 L 1.1875 -1.640625 L 1.1875 -0.140625 C 1.1875 -0.046875 1.140625 0 1.046875 0 Z M 1.1875 -4.625 L 1.1875 -2.265625 L 2 -2.265625 C 2.070312 -2.265625 2.15625 -2.265625 2.25 -2.265625 C 2.351562 -2.273438 2.457031 -2.289062 2.5625 -2.3125 C 2.675781 -2.332031 2.785156 -2.363281 2.890625 -2.40625 C 2.992188 -2.457031 3.085938 -2.523438 3.171875 -2.609375 C 3.253906 -2.703125 3.320312 -2.816406 3.375 -2.953125 C 3.425781 -3.085938 3.453125 -3.253906 3.453125 -3.453125 C 3.453125 -3.640625 3.425781 -3.800781 3.375 -3.9375 C 3.320312 -4.070312 3.253906 -4.179688 3.171875 -4.265625 C 3.085938 -4.359375 2.992188 -4.425781 2.890625 -4.46875 C 2.785156 -4.519531 2.675781 -4.554688 2.5625 -4.578125 C 2.457031 -4.597656 2.351562 -4.609375 2.25 -4.609375 C 2.15625 -4.617188 2.070312 -4.625 2 -4.625 Z M 1.1875 -4.625 "/></g></g></g><g fill="#000000" fill-opacity="1"><g transform="translate(8.262166, 8.029634)"><g><path d="M 3.1875 -1.828125 L 4.046875 -0.171875 C 4.066406 -0.117188 4.066406 -0.078125 4.046875 -0.046875 C 4.023438 -0.015625 3.988281 0 3.9375 0 L 3.484375 0 C 3.410156 0 3.351562 -0.0351562 3.3125 -0.109375 L 2.53125 -1.671875 C 2.457031 -1.660156 2.382812 -1.648438 2.3125 -1.640625 C 2.238281 -1.640625 2.164062 -1.640625 2.09375 -1.640625 L 1.1875 -1.640625 L 1.1875 -0.140625 C 1.1875 -0.046875 1.140625 0 1.046875 0 L 0.65625 0 C 0.5625 0 0.515625 -0.046875 0.515625 -0.140625 L 0.515625 -5.109375 C 0.515625 -5.203125 0.5625 -5.25 0.65625 -5.25 L 2.046875 -5.25 C 2.753906 -5.25 3.273438 -5.09375 3.609375 -4.78125 C 3.941406 -4.476562 4.109375 -4.035156 4.109375 -3.453125 C 4.109375 -2.640625 3.800781 -2.097656 3.1875 -1.828125 Z M 1.1875 -2.265625 L 2 -2.265625 C 2.070312 -2.265625 2.15625 -2.265625 2.25 -2.265625 C 2.351562 -2.273438 2.457031 -2.289062 2.5625 -2.3125 C 2.675781 -2.332031 2.785156 -2.363281 2.890625 -2.40625 C 2.992188 -2.457031 3.085938 -2.523438 3.171875 -2.609375 C 3.253906 -2.703125 3.320312 -2.816406 3.375 -2.953125 C 3.425781 -3.085938 3.453125 -3.253906 3.453125 -3.453125 C 3.453125 -3.640625 3.425781 -3.800781 3.375 -3.9375 C 3.320312 -4.070312 3.253906 -4.179688 3.171875 -4.265625 C 3.085938 -4.359375 2.992188 -4.425781 2.890625 -4.46875 C 2.785156 -4.519531 2.675781 -4.554688 2.5625 -4.578125 C 2.457031 -4.597656 2.351562 -4.609375 2.25 -4.609375 C 2.15625 -4.617188 2.070312 -4.625 2 -4.625 L 1.1875 -4.625 Z M 1.1875 -2.265625 "/></g></g></g><g fill="#000000" fill-opacity="1"><g transform="translate(15.522767, 8.029634)"><g><path d="M 3.03125 0.109375 C 2.726562 0.109375 2.4375 0.0664062 2.15625 -0.015625 C 1.882812 -0.0976562 1.632812 -0.21875 1.40625 -0.375 C 1.175781 -0.539062 0.976562 -0.738281 0.8125 -0.96875 C 0.65625 -1.195312 0.53125 -1.445312 0.4375 -1.71875 C 0.34375 -2 0.296875 -2.300781 0.296875 -2.625 C 0.296875 -2.945312 0.34375 -3.242188 0.4375 -3.515625 C 0.53125 -3.796875 0.65625 -4.050781 0.8125 -4.28125 C 0.976562 -4.507812 1.175781 -4.703125 1.40625 -4.859375 C 1.632812 -5.015625 1.882812 -5.132812 2.15625 -5.21875 C 2.4375 -5.3125 2.726562 -5.359375 3.03125 -5.359375 C 3.332031 -5.359375 3.617188 -5.3125 3.890625 -5.21875 C 4.171875 -5.132812 4.421875 -5.015625 4.640625 -4.859375 C 4.867188 -4.703125 5.066406 -4.507812 5.234375 -4.28125 C 5.398438 -4.050781 5.53125 -3.796875 5.625 -3.515625 C 5.71875 -3.242188 5.765625 -2.945312 5.765625 -2.625 C 5.765625 -2.300781 5.71875 -2 5.625 -1.71875 C 5.53125 -1.445312 5.398438 -1.195312 5.234375 -0.96875 C 5.066406 -0.738281 4.867188 -0.539062 4.640625 -0.375 C 4.421875 -0.21875 4.171875 -0.0976562 3.890625 -0.015625 C 3.617188 0.0664062 3.332031 0.109375 3.03125 0.109375 Z M 3.03125 -0.53125 C 3.3125 -0.53125 3.578125 -0.582031 3.828125 -0.6875 C 4.078125 -0.789062 4.296875 -0.929688 4.484375 -1.109375 C 4.671875 -1.296875 4.816406 -1.515625 4.921875 -1.765625 C 5.035156 -2.023438 5.09375 -2.3125 5.09375 -2.625 C 5.09375 -2.9375 5.035156 -3.21875 4.921875 -3.46875 C 4.816406 -3.726562 4.671875 -3.945312 4.484375 -4.125 C 4.296875 -4.3125 4.078125 -4.457031 3.828125 -4.5625 C 3.578125 -4.664062 3.3125 -4.71875 3.03125 -4.71875 C 2.738281 -4.71875 2.46875 -4.664062 2.21875 -4.5625 C 1.976562 -4.457031 1.757812 -4.3125 1.5625 -4.125 C 1.375 -3.945312 1.226562 -3.726562 1.125 -3.46875 C 1.019531 -3.21875 0.96875 -2.9375 0.96875 -2.625 C 0.96875 -2.3125 1.019531 -2.023438 1.125 -1.765625 C 1.226562 -1.515625 1.375 -1.296875 1.5625 -1.109375 C 1.757812 -0.929688 1.976562 -0.789062 2.21875 -0.6875 C 2.46875 -0.582031 2.738281 -0.53125 3.03125 -0.53125 Z M 3.03125 -0.53125 "/></g></g></g><g fill="#000000" fill-opacity="1"><g transform="translate(24.386429, 8.029634)"><g><path d="M 3.03125 0.109375 C 2.726562 0.109375 2.4375 0.0664062 2.15625 -0.015625 C 1.882812 -0.0976562 1.632812 -0.21875 1.40625 -0.375 C 1.175781 -0.539062 0.976562 -0.738281 0.8125 -0.96875 C 0.65625 -1.195312 0.53125 -1.445312 0.4375 -1.71875 C 0.34375 -2 0.296875 -2.300781 0.296875 -2.625 C 0.296875 -2.945312 0.34375 -3.242188 0.4375 -3.515625 C 0.53125 -3.796875 0.65625 -4.050781 0.8125 -4.28125 C 0.976562 -4.507812 1.175781 -4.703125 1.40625 -4.859375 C 1.632812 -5.015625 1.882812 -5.132812 2.15625 -5.21875 C 2.4375 -5.3125 2.726562 -5.359375 3.03125 -5.359375 C 3.40625 -5.359375 3.753906 -5.289062 4.078125 -5.15625 C 4.398438 -5.019531 4.679688 -4.835938 4.921875 -4.609375 C 4.992188 -4.546875 4.992188 -4.476562 4.921875 -4.40625 L 4.625 -4.171875 C 4.550781 -4.117188 4.484375 -4.117188 4.421875 -4.171875 C 4.234375 -4.335938 4.019531 -4.46875 3.78125 -4.5625 C 3.550781 -4.664062 3.300781 -4.71875 3.03125 -4.71875 C 2.738281 -4.71875 2.46875 -4.664062 2.21875 -4.5625 C 1.976562 -4.457031 1.757812 -4.3125 1.5625 -4.125 C 1.375 -3.945312 1.226562 -3.726562 1.125 -3.46875 C 1.019531 -3.21875 0.96875 -2.9375 0.96875 -2.625 C 0.96875 -2.3125 1.019531 -2.023438 1.125 -1.765625 C 1.226562 -1.515625 1.375 -1.296875 1.5625 -1.109375 C 1.757812 -0.921875 1.976562 -0.773438 2.21875 -0.671875 C 2.46875 -0.578125 2.738281 -0.53125 3.03125 -0.53125 C 3.289062 -0.53125 3.535156 -0.578125 3.765625 -0.671875 C 4.003906 -0.765625 4.21875 -0.890625 4.40625 -1.046875 L 4.40625 -1.671875 L 3.125 -1.671875 C 3.03125 -1.671875 2.984375 -1.71875 2.984375 -1.8125 L 2.984375 -2.15625 C 2.984375 -2.25 3.03125 -2.296875 3.125 -2.296875 L 4.890625 -2.296875 C 4.984375 -2.296875 5.03125 -2.25 5.03125 -2.15625 L 5.03125 -0.84375 C 5.03125 -0.78125 5.007812 -0.726562 4.96875 -0.6875 C 4.726562 -0.4375 4.441406 -0.238281 4.109375 -0.09375 C 3.773438 0.0390625 3.414062 0.109375 3.03125 0.109375 Z M 3.03125 0.109375 "/></g></g></g><g fill="#000000" fill-opacity="1"><g transform="translate(32.559647, 8.029634)"><g><path d="M 3.1875 -1.828125 L 4.046875 -0.171875 C 4.066406 -0.117188 4.066406 -0.078125 4.046875 -0.046875 C 4.023438 -0.015625 3.988281 0 3.9375 0 L 3.484375 0 C 3.410156 0 3.351562 -0.0351562 3.3125 -0.109375 L 2.53125 -1.671875 C 2.457031 -1.660156 2.382812 -1.648438 2.3125 -1.640625 C 2.238281 -1.640625 2.164062 -1.640625 2.09375 -1.640625 L 1.1875 -1.640625 L 1.1875 -0.140625 C 1.1875 -0.046875 1.140625 0 1.046875 0 L 0.65625 0 C 0.5625 0 0.515625 -0.046875 0.515625 -0.140625 L 0.515625 -5.109375 C 0.515625 -5.203125 0.5625 -5.25 0.65625 -5.25 L 2.046875 -5.25 C 2.753906 -5.25 3.273438 -5.09375 3.609375 -4.78125 C 3.941406 -4.476562 4.109375 -4.035156 4.109375 -3.453125 C 4.109375 -2.640625 3.800781 -2.097656 3.1875 -1.828125 Z M 1.1875 -2.265625 L 2 -2.265625 C 2.070312 -2.265625 2.15625 -2.265625 2.25 -2.265625 C 2.351562 -2.273438 2.457031 -2.289062 2.5625 -2.3125 C 2.675781 -2.332031 2.785156 -2.363281 2.890625 -2.40625 C 2.992188 -2.457031 3.085938 -2.523438 3.171875 -2.609375 C 3.253906 -2.703125 3.320312 -2.816406 3.375 -2.953125 C 3.425781 -3.085938 3.453125 -3.253906 3.453125 -3.453125 C 3.453125 -3.640625 3.425781 -3.800781 3.375 -3.9375 C 3.320312 -4.070312 3.253906 -4.179688 3.171875 -4.265625 C 3.085938 -4.359375 2.992188 -4.425781 2.890625 -4.46875 C 2.785156 -4.519531 2.675781 -4.554688 2.5625 -4.578125 C 2.457031 -4.597656 2.351562 -4.609375 2.25 -4.609375 C 2.15625 -4.617188 2.070312 -4.625 2 -4.625 L 1.1875 -4.625 Z M 1.1875 -2.265625 "/></g></g></g><g fill="#000000" fill-opacity="1"><g transform="translate(39.820247, 8.029634)"><g><path d="M 2.546875 -5.25 L 4.71875 -0.15625 C 4.738281 -0.113281 4.738281 -0.078125 4.71875 -0.046875 C 4.695312 -0.015625 4.660156 0 4.609375 0 L 4.171875 0 C 4.140625 0 4.109375 -0.00390625 4.078125 -0.015625 C 4.046875 -0.0351562 4.023438 -0.0664062 4.015625 -0.109375 L 3.640625 -1.046875 L 1.203125 -1.046875 L 0.8125 -0.109375 C 0.78125 -0.0351562 0.726562 0 0.65625 0 L 0.21875 0 C 0.164062 0 0.128906 -0.015625 0.109375 -0.046875 C 0.0859375 -0.078125 0.0859375 -0.113281 0.109375 -0.15625 L 2.28125 -5.25 C 2.3125 -5.320312 2.351562 -5.359375 2.40625 -5.359375 C 2.46875 -5.359375 2.515625 -5.320312 2.546875 -5.25 Z M 2.421875 -4.015625 L 1.4375 -1.625 L 3.390625 -1.625 Z M 2.421875 -4.015625 "/></g></g></g><g fill="#000000" fill-opacity="1"><g transform="translate(47.453415, 8.029634)"><g><path d="M 1.046875 0 L 0.671875 0 C 0.578125 0 0.53125 -0.046875 0.53125 -0.140625 L 0.53125 -5.140625 C 0.53125 -5.234375 0.546875 -5.296875 0.578125 -5.328125 C 0.609375 -5.367188 0.648438 -5.382812 0.703125 -5.375 C 0.765625 -5.363281 0.820312 -5.320312 0.875 -5.25 L 2.984375 -2.34375 L 5.109375 -5.25 C 5.160156 -5.320312 5.210938 -5.363281 5.265625 -5.375 C 5.316406 -5.382812 5.359375 -5.367188 5.390625 -5.328125 C 5.421875 -5.296875 5.4375 -5.234375 5.4375 -5.140625 L 5.4375 -0.140625 C 5.4375 -0.046875 5.394531 0 5.3125 0 L 4.921875 0 C 4.828125 0 4.78125 -0.046875 4.78125 -0.140625 L 4.78125 -3.71875 L 3.078125 -1.40625 C 3.046875 -1.363281 3.007812 -1.34375 2.96875 -1.34375 C 2.9375 -1.34375 2.910156 -1.363281 2.890625 -1.40625 L 1.1875 -3.71875 L 1.1875 -0.140625 C 1.1875 -0.046875 1.140625 0 1.046875 0 Z M 1.046875 0 "/></g></g></g><g fill="#000000" fill-opacity="1"><g transform="translate(56.22479, 8.029634)"><g><path d="M 1.046875 0 L 0.671875 0 C 0.578125 0 0.53125 -0.046875 0.53125 -0.140625 L 0.53125 -5.140625 C 0.53125 -5.234375 0.546875 -5.296875 0.578125 -5.328125 C 0.609375 -5.367188 0.648438 -5.382812 0.703125 -5.375 C 0.765625 -5.363281 0.820312 -5.320312 0.875 -5.25 L 2.984375 -2.34375 L 5.109375 -5.25 C 5.160156 -5.320312 5.210938 -5.363281 5.265625 -5.375 C 5.316406 -5.382812 5.359375 -5.367188 5.390625 -5.328125 C 5.421875 -5.296875 5.4375 -5.234375 5.4375 -5.140625 L 5.4375 -0.140625 C 5.4375 -0.046875 5.394531 0 5.3125 0 L 4.921875 0 C 4.828125 0 4.78125 -0.046875 4.78125 -0.140625 L 4.78125 -3.71875 L 3.078125 -1.40625 C 3.046875 -1.363281 3.007812 -1.34375 2.96875 -1.34375 C 2.9375 -1.34375 2.910156 -1.363281 2.890625 -1.40625 L 1.1875 -3.71875 L 1.1875 -0.140625 C 1.1875 -0.046875 1.140625 0 1.046875 0 Z M 1.046875 0 "/></g></g></g><g fill="#000000" fill-opacity="1"><g transform="translate(64.996166, 8.029634)"><g><path d="M 3.203125 0 L 0.65625 0 C 0.5625 0 0.515625 -0.046875 0.515625 -0.140625 L 0.515625 -5.109375 C 0.515625 -5.203125 0.5625 -5.25 0.65625 -5.25 L 3.203125 -5.25 C 3.296875 -5.25 3.34375 -5.203125 3.34375 -5.109375 L 3.34375 -4.765625 C 3.34375 -4.671875 3.296875 -4.625 3.203125 -4.625 L 1.1875 -4.625 L 1.1875 -2.296875 L 2.921875 -2.296875 C 3.015625 -2.296875 3.0625 -2.25 3.0625 -2.15625 L 3.0625 -1.8125 C 3.0625 -1.71875 3.015625 -1.671875 2.921875 -1.671875 L 1.1875 -1.671875 L 1.1875 -0.625 L 3.203125 -0.625 C 3.296875 -0.625 3.34375 -0.578125 3.34375 -0.484375 L 3.34375 -0.140625 C 3.34375 -0.046875 3.296875 0 3.203125 0 Z M 3.203125 0 "/></g></g></g><g fill="#000000" fill-opacity="1"><g transform="translate(71.409091, 8.029634)"><g><path d="M 3.1875 -1.828125 L 4.046875 -0.171875 C 4.066406 -0.117188 4.066406 -0.078125 4.046875 -0.046875 C 4.023438 -0.015625 3.988281 0 3.9375 0 L 3.484375 0 C 3.410156 0 3.351562 -0.0351562 3.3125 -0.109375 L 2.53125 -1.671875 C 2.457031 -1.660156 2.382812 -1.648438 2.3125 -1.640625 C 2.238281 -1.640625 2.164062 -1.640625 2.09375 -1.640625 L 1.1875 -1.640625 L 1.1875 -0.140625 C 1.1875 -0.046875 1.140625 0 1.046875 0 L 0.65625 0 C 0.5625 0 0.515625 -0.046875 0.515625 -0.140625 L 0.515625 -5.109375 C 0.515625 -5.203125 0.5625 -5.25 0.65625 -5.25 L 2.046875 -5.25 C 2.753906 -5.25 3.273438 -5.09375 3.609375 -4.78125 C 3.941406 -4.476562 4.109375 -4.035156 4.109375 -3.453125 C 4.109375 -2.640625 3.800781 -2.097656 3.1875 -1.828125 Z M 1.1875 -2.265625 L 2 -2.265625 C 2.070312 -2.265625 2.15625 -2.265625 2.25 -2.265625 C 2.351562 -2.273438 2.457031 -2.289062 2.5625 -2.3125 C 2.675781 -2.332031 2.785156 -2.363281 2.890625 -2.40625 C 2.992188 -2.457031 3.085938 -2.523438 3.171875 -2.609375 C 3.253906 -2.703125 3.320312 -2.816406 3.375 -2.953125 C 3.425781 -3.085938 3.453125 -3.253906 3.453125 -3.453125 C 3.453125 -3.640625 3.425781 -3.800781 3.375 -3.9375 C 3.320312 -4.070312 3.253906 -4.179688 3.171875 -4.265625 C 3.085938 -4.359375 2.992188 -4.425781 2.890625 -4.46875 C 2.785156 -4.519531 2.675781 -4.554688 2.5625 -4.578125 C 2.457031 -4.597656 2.351562 -4.609375 2.25 -4.609375 C 2.15625 -4.617188 2.070312 -4.625 2 -4.625 L 1.1875 -4.625 Z M 1.1875 -2.265625 "/></g></g></g></g></g></svg>