<svg xmlns="http://www.w3.org/2000/svg" xmlns:xlink="http://www.w3.org/1999/xlink" width="500" zoomAndPan="magnify" viewBox="0 0 375 374.999991" height="500" preserveAspectRatio="xMidYMid meet" version="1.0"><defs><g/><clipPath id="aa5926c84b"><path d="M 212 266 L 217 266 L 217 267.253906 L 212 267.253906 Z M 212 266 " clip-rule="nonzero"/></clipPath><clipPath id="af88e85a29"><path d="M 160 76.003906 L 167 76.003906 L 167 80 L 160 80 Z M 160 76.003906 " clip-rule="nonzero"/></clipPath><clipPath id="e17eea38a7"><path d="M 160 76.003906 L 166 76.003906 L 166 79 L 160 79 Z M 160 76.003906 " clip-rule="nonzero"/></clipPath><clipPath id="6131cf1cd4"><path d="M 258 212 L 260.488281 212 L 260.488281 215 L 258 215 Z M 258 212 " clip-rule="nonzero"/></clipPath><clipPath id="f8d15d3ac9"><path d="M 118.125 99.039062 L 256.875 99.039062 L 256.875 237.789062 L 118.125 237.789062 Z M 118.125 99.039062 " clip-rule="nonzero"/></clipPath><clipPath id="d47ec1c982"><path d="M 118.125 142 L 169 142 L 169 237.789062 L 118.125 237.789062 Z M 118.125 142 " clip-rule="nonzero"/></clipPath><clipPath id="fe65705304"><path d="M 201 99.039062 L 256.875 99.039062 L 256.875 191 L 201 191 Z M 201 99.039062 " clip-rule="nonzero"/></clipPath><clipPath id="a43643b1f4"><rect x="0" width="79" y="0" height="10"/></clipPath></defs><path fill="#312f30" d="M 140.480469 239.722656 C 138.707031 237.902344 135.601562 234.90625 134.328125 234.101562 C 134.257812 234.066406 134.152344 234.039062 134.074219 234.039062 C 134.097656 234.898438 142.164062 242.6875 143.066406 242.71875 C 143.042969 242.402344 141.648438 240.914062 140.480469 239.722656 " fill-opacity="1" fill-rule="nonzero"/><path fill="#312f30" d="M 150.957031 247.261719 C 149.09375 245.675781 145.714844 243.078125 144.046875 242.4375 C 143.921875 242.402344 143.738281 242.355469 143.671875 242.410156 C 143.351562 242.699219 145.46875 244.691406 147.652344 246.367188 C 150.449219 248.511719 152.996094 250.074219 153.457031 249.921875 C 153.605469 249.585938 151.957031 248.109375 150.957031 247.261719 " fill-opacity="1" fill-rule="nonzero"/><path fill="#312f30" d="M 116.089844 206.683594 C 116.050781 206.640625 115.976562 206.597656 115.917969 206.597656 C 115.902344 207.726562 121.292969 217.996094 121.925781 218.042969 C 121.933594 217.589844 120.855469 215.339844 120.214844 214.039062 C 119.09375 211.769531 116.980469 207.765625 116.089844 206.683594 " fill-opacity="1" fill-rule="nonzero"/><path fill="#312f30" d="M 122.796875 217.703125 C 122.6875 217.648438 122.546875 217.585938 122.476562 217.65625 C 121.777344 218.363281 128.101562 227.683594 129.601562 228.152344 C 130.183594 228.332031 129.550781 226.785156 128.066406 224.386719 C 126.679688 222.148438 124.128906 218.59375 122.796875 217.703125 " fill-opacity="1" fill-rule="nonzero"/><path fill="#312f30" d="M 137.527344 233.625 C 135.996094 231.585938 133.042969 228.390625 131.273438 227.667969 C 131.125 227.628906 130.921875 227.578125 130.808594 227.660156 C 129.589844 228.5 136.71875 236.816406 138.925781 237.125 C 139.734375 237.238281 139.160156 235.796875 137.527344 233.625 " fill-opacity="1" fill-rule="nonzero"/><path fill="#312f30" d="M 111.339844 194.703125 C 111.410156 194.925781 111.515625 195.25 111.652344 195.648438 C 111.546875 195.328125 111.4375 195.003906 111.335938 194.695312 L 111.339844 194.703125 " fill-opacity="1" fill-rule="nonzero"/><path fill="#312f30" d="M 119.1875 210.476562 C 120.035156 210.953125 119.886719 209.054688 118.839844 206.058594 C 117.941406 203.472656 116.066406 199.402344 114.722656 198.449219 C 114.644531 198.414062 114.527344 198.359375 114.445312 198.375 C 113.042969 198.640625 117.253906 209.386719 119.1875 210.476562 " fill-opacity="1" fill-rule="nonzero"/><path fill="#312f30" d="M 127.058594 221.019531 C 128.21875 221.402344 128.136719 219.585938 126.867188 216.796875 C 125.769531 214.382812 123.390625 210.628906 121.539062 209.828125 C 121.382812 209.792969 121.164062 209.742188 121 209.84375 C 119.382812 210.855469 124.421875 220.152344 127.058594 221.019531 " fill-opacity="1" fill-rule="nonzero"/><path fill="#312f30" d="M 136.308594 230.402344 C 137.996094 230.957031 138.128906 229.1875 136.601562 226.460938 C 135.15625 223.882812 132.308594 220.753906 130.226562 220.195312 C 130.023438 220.171875 129.746094 220.140625 129.535156 220.253906 C 127.542969 221.300781 132.859375 229.269531 136.308594 230.402344 " fill-opacity="1" fill-rule="nonzero"/><path fill="#312f30" d="M 109.980469 186.234375 C 109.933594 186.195312 109.867188 186.148438 109.8125 186.132812 C 108.964844 186.65625 112.285156 198.703125 113.359375 199.023438 C 113.789062 198.757812 113.003906 195.367188 112.753906 194.335938 C 112.136719 191.800781 110.84375 187.363281 109.980469 186.234375 " fill-opacity="1" fill-rule="nonzero"/><path fill="#312f30" d="M 118.464844 201.992188 C 119.828125 202.746094 120.324219 200.574219 119.570312 197.15625 C 118.96875 194.4375 117.304688 190.234375 115.480469 189.410156 C 115.355469 189.386719 115.1875 189.351562 115.0625 189.378906 C 112.71875 189.890625 115.542969 200.382812 118.464844 201.992188 " fill-opacity="1" fill-rule="nonzero"/><path fill="#312f30" d="M 126.144531 212.796875 C 128.09375 213.785156 128.859375 211.652344 127.785156 208.230469 C 126.972656 205.640625 124.761719 201.691406 122.390625 201.023438 C 122.230469 201.007812 122.015625 200.984375 121.859375 201.023438 C 119.078125 201.679688 122.445312 210.921875 126.144531 212.796875 " fill-opacity="1" fill-rule="nonzero"/><path fill="#312f30" d="M 135.445312 222.542969 C 138.007812 223.722656 139.085938 221.675781 137.699219 218.253906 C 136.71875 215.832031 134.082031 212.207031 131.292969 211.730469 C 131.039062 211.722656 130.691406 211.714844 130.378906 211.859375 C 127.777344 213.089844 131.375 220.675781 135.445312 222.542969 " fill-opacity="1" fill-rule="nonzero"/><path fill="#312f30" d="M 112.480469 190.132812 C 113.445312 190.992188 113.886719 188.851562 113.464844 185.363281 C 113.132812 182.640625 112.089844 178.375 110.808594 177.425781 C 110.726562 177.390625 110.601562 177.34375 110.511719 177.359375 C 108.773438 177.667969 110.410156 188.292969 112.480469 190.132812 " fill-opacity="1" fill-rule="nonzero"/><path fill="#312f30" d="M 122.421875 187.539062 C 122.121094 184.800781 120.667969 180.636719 118.375 179.964844 C 118.210938 179.949219 117.988281 179.933594 117.828125 179.972656 C 114.992188 180.628906 116.183594 189.921875 119.421875 192.394531 C 121.402344 193.910156 122.863281 191.550781 122.421875 187.539062 " fill-opacity="1" fill-rule="nonzero"/><path fill="#312f30" d="M 130.667969 198.652344 C 130.121094 195.914062 128.097656 191.832031 125.320312 191.332031 C 125.121094 191.328125 124.851562 191.324219 124.660156 191.375 C 121.433594 192.203125 123.132812 200.753906 127.050781 203.414062 C 129.722656 205.230469 131.511719 202.871094 130.667969 198.652344 " fill-opacity="1" fill-rule="nonzero"/><path fill="#312f30" d="M 140.558594 208.984375 C 139.828125 206.375 137.371094 202.550781 134.214844 202.226562 C 133.992188 202.234375 133.6875 202.25 133.472656 202.308594 C 129.9375 203.316406 132.253906 211.421875 136.734375 213.722656 C 139.777344 215.285156 141.667969 212.9375 140.558594 208.984375 " fill-opacity="1" fill-rule="nonzero"/><path fill="#312f30" d="M 113.824219 180.867188 C 115.191406 182.042969 116.34375 179.785156 116.289062 176.039062 C 116.25 173.3125 115.421875 169.113281 113.707031 168.3125 C 113.582031 168.285156 113.40625 168.253906 113.28125 168.28125 C 110.832031 168.789062 111.261719 178.667969 113.824219 180.867188 " fill-opacity="1" fill-rule="nonzero"/><path fill="#312f30" d="M 127.15625 177.503906 C 127.101562 174.753906 125.839844 170.65625 123.199219 170.164062 C 123.097656 170.160156 122.964844 170.148438 122.867188 170.15625 C 119.359375 170.40625 118.964844 178.789062 122.304688 182.117188 C 124.707031 184.511719 127.246094 182.097656 127.15625 177.503906 " fill-opacity="1" fill-rule="nonzero"/><path fill="#312f30" d="M 135.214844 188.292969 C 134.921875 185.527344 133.117188 181.488281 130.042969 181.15625 C 129.925781 181.160156 129.773438 181.160156 129.660156 181.171875 C 125.695312 181.644531 126.011719 190.09375 130.113281 193.226562 C 133.035156 195.460938 135.707031 192.878906 135.214844 188.292969 " fill-opacity="1" fill-rule="nonzero"/><path fill="#312f30" d="M 144.976562 198.675781 C 144.464844 195.917969 142.195312 191.960938 138.746094 191.792969 C 138.617188 191.804688 138.445312 191.8125 138.320312 191.832031 C 134.246094 192.472656 134.839844 200.316406 139.203125 203.488281 C 142.730469 206.054688 145.863281 203.445312 144.976562 198.675781 " fill-opacity="1" fill-rule="nonzero"/><path fill="#312f30" d="M 116.867188 170.996094 C 118.605469 173 120.714844 170.679688 121.039062 166.398438 C 121.246094 163.683594 120.582031 159.574219 118.46875 158.933594 C 118.386719 158.925781 118.28125 158.910156 118.199219 158.910156 C 115.257812 158.960938 114.261719 167.996094 116.867188 170.996094 " fill-opacity="1" fill-rule="nonzero"/><path fill="#312f30" d="M 127.097656 171.90625 C 129.578125 174.699219 132.914062 172.179688 133.152344 167.332031 C 133.285156 164.589844 132.191406 160.585938 129.332031 160.261719 C 125.046875 160.441406 124.152344 168.582031 127.097656 171.90625 " fill-opacity="1" fill-rule="nonzero"/><path fill="#312f30" d="M 141.035156 177.746094 C 140.933594 174.976562 139.304688 171 136.011719 170.828125 C 131.195312 171.246094 130.996094 179.488281 134.65625 182.675781 C 137.699219 185.332031 141.21875 182.613281 141.035156 177.746094 " fill-opacity="1" fill-rule="nonzero"/><path fill="#312f30" d="M 143.5 192.714844 C 147.144531 195.839844 151.199219 193.058594 150.609375 187.835938 C 150.296875 185.054688 148.203125 181.132812 144.535156 181.117188 C 139.542969 181.734375 139.574219 189.347656 143.5 192.714844 " fill-opacity="1" fill-rule="nonzero"/><path fill="#312f30" d="M 127.1875 156.675781 C 127.582031 153.988281 127.066406 149.996094 124.683594 149.527344 C 120.890625 149.480469 119.335938 158.199219 121.78125 161.226562 C 123.695312 163.597656 126.523438 161.21875 127.1875 156.675781 " fill-opacity="1" fill-rule="nonzero"/><path fill="#312f30" d="M 158.113281 239.027344 C 161.101562 239.78125 162.289062 237.902344 160.648438 235.007812 C 159.492188 232.957031 156.382812 230.019531 153.101562 229.902344 C 152.65625 229.9375 152.191406 229.972656 151.742188 230.285156 C 149.207031 232.042969 153.433594 237.847656 158.113281 239.027344 " fill-opacity="1" fill-rule="nonzero"/><path fill="#312f30" d="M 163.570312 226.527344 C 162.644531 224.265625 159.691406 221.089844 156.039062 221.113281 C 155.699219 221.152344 155.234375 221.203125 154.800781 221.410156 C 151.464844 222.980469 154.09375 229.023438 158.933594 230.917969 C 162.660156 232.375 165.046875 230.121094 163.570312 226.527344 " fill-opacity="1" fill-rule="nonzero"/><path fill="#312f30" d="M 167.988281 216.941406 C 167.257812 214.476562 164.441406 211.078125 160.472656 211.242188 C 160.328125 211.265625 160.132812 211.285156 159.988281 211.316406 C 155.621094 212.234375 156.425781 218.691406 161.253906 221.476562 C 165.53125 223.941406 169.308594 221.398438 167.988281 216.941406 " fill-opacity="1" fill-rule="nonzero"/><path fill="#312f30" d="M 166.148438 200.34375 C 165.996094 200.375 165.785156 200.402344 165.632812 200.4375 C 160.914062 201.574219 161.183594 208.578125 166.054688 211.457031 C 170.335938 213.992188 174.65625 211.050781 173.632812 206.300781 C 173.058594 203.648438 170.359375 200.046875 166.148438 200.34375 " fill-opacity="1" fill-rule="nonzero"/><path fill="#312f30" d="M 158.832031 245.859375 C 160.878906 246.125 161.132812 244.582031 159.40625 242.347656 C 157.996094 240.515625 154.71875 237.828125 151.859375 237.582031 C 151.476562 237.589844 151.078125 237.597656 150.753906 237.851562 C 148.730469 239.410156 154.695312 245.320312 158.832031 245.859375 " fill-opacity="1" fill-rule="nonzero"/><path fill="#312f30" d="M 161.070312 251.460938 C 162.210938 251.433594 161.769531 250.261719 159.972656 248.546875 C 158.402344 247.046875 154.96875 244.527344 152.441406 244.144531 C 152.128906 244.132812 151.800781 244.117188 151.601562 244.308594 C 150.269531 245.582031 158.144531 251.53125 161.070312 251.460938 " fill-opacity="1" fill-rule="nonzero"/><path fill="#312f30" d="M 147.253906 222.992188 C 151.109375 224.878906 153.625 222.390625 152.144531 218.148438 C 151.21875 215.492188 148.222656 211.683594 144.46875 211.53125 C 144.203125 211.550781 143.84375 211.585938 143.585938 211.660156 C 139.628906 212.84375 142.097656 220.46875 147.253906 222.992188 " fill-opacity="1" fill-rule="nonzero"/><path fill="#312f30" d="M 146.5625 231.628906 C 149.597656 232.65625 150.851562 230.492188 149.199219 227.085938 C 148.015625 224.648438 144.839844 221.078125 141.484375 220.765625 C 141.175781 220.773438 140.757812 220.785156 140.386719 220.960938 C 137.199219 222.441406 141.523438 229.917969 146.5625 231.628906 " fill-opacity="1" fill-rule="nonzero"/><path fill="#312f30" d="M 112.730469 164.445312 C 112.976562 161.53125 112.753906 156.988281 111.484375 156.019531 C 111.390625 155.980469 111.253906 155.9375 111.152344 155.953125 C 109.003906 156.324219 108.390625 167.695312 110.414062 169.625 C 111.371094 170.539062 112.410156 168.214844 112.730469 164.445312 " fill-opacity="1" fill-rule="nonzero"/><path fill="#312f30" d="M 108.46875 164.734375 C 108.414062 164.691406 108.332031 164.625 108.261719 164.632812 C 106.972656 164.773438 107.558594 177.148438 108.921875 178.570312 C 109.496094 179.167969 109.878906 176.964844 109.808594 173.441406 C 109.746094 170.503906 109.292969 165.863281 108.46875 164.734375 " fill-opacity="1" fill-rule="nonzero"/><path fill="#312f30" d="M 156.144531 208.125 C 155.496094 205.492188 152.890625 201.78125 149.128906 201.785156 C 148.855469 201.820312 148.492188 201.867188 148.230469 201.953125 C 144.261719 203.257812 145.457031 210.261719 150.113281 212.972656 C 153.976562 215.222656 157.25 212.597656 156.144531 208.125 " fill-opacity="1" fill-rule="nonzero"/><path fill="#312f30" d="M 154.425781 202.238281 C 158.480469 205.113281 162.691406 202.191406 161.816406 197.113281 C 161.335938 194.335938 158.871094 190.496094 154.886719 190.644531 C 154.738281 190.667969 154.542969 190.6875 154.394531 190.71875 C 149.875 191.707031 149.894531 199.027344 154.425781 202.238281 " fill-opacity="1" fill-rule="nonzero"/><path fill="#312f30" d="M 147.140625 238.628906 C 149.085938 239.035156 149.300781 237.386719 147.632812 234.875 C 146.28125 232.835938 143.179688 229.777344 140.511719 229.351562 C 140.15625 229.335938 139.789062 229.324219 139.488281 229.574219 C 137.667969 231.070312 143.386719 237.839844 147.140625 238.628906 " fill-opacity="1" fill-rule="nonzero"/><path fill="#312f30" d="M 149.492188 244.824219 C 150.507812 244.867188 150.011719 243.539062 148.289062 241.597656 C 146.664062 239.769531 143.398438 236.949219 141.234375 236.398438 C 140.945312 236.363281 140.675781 236.332031 140.523438 236.523438 C 139.492188 237.820312 146.953125 244.722656 149.492188 244.824219 " fill-opacity="1" fill-rule="nonzero"/><path fill="#312f30" d="M 108.1875 153.054688 C 108.175781 153.03125 108.160156 152.996094 108.148438 152.96875 C 108.125 152.96875 108.089844 152.964844 108.0625 152.964844 C 107.386719 154.09375 106.738281 164.410156 107.261719 165.652344 C 107.289062 165.65625 107.324219 165.65625 107.351562 165.65625 C 107.644531 165.117188 107.894531 162.546875 108.015625 161.0625 C 108.21875 158.570312 108.445312 154.191406 108.1875 153.054688 " fill-opacity="1" fill-rule="nonzero"/><path fill="#312f30" d="M 110.910156 152.519531 C 111.410156 149.894531 111.824219 145.765625 111.191406 144.808594 C 111.140625 144.769531 111.058594 144.714844 110.996094 144.722656 C 109.605469 144.878906 107.824219 155.910156 108.992188 157.148438 C 109.488281 157.675781 110.3125 155.683594 110.910156 152.519531 " fill-opacity="1" fill-rule="nonzero"/><path fill="#312f30" d="M 115.613281 143.796875 C 116.351562 141.222656 116.953125 137.226562 115.972656 136.417969 C 115.929688 136.402344 115.875 136.375 115.832031 136.367188 C 113.917969 136.050781 111.085938 145.941406 112.421875 148.253906 C 113.117188 149.449219 114.578125 147.410156 115.613281 143.796875 " fill-opacity="1" fill-rule="nonzero"/><path fill="#312f30" d="M 117.59375 139.328125 C 118.417969 140.824219 120.453125 138.738281 121.867188 134.953125 C 122.800781 132.4375 123.550781 128.605469 122.277344 127.953125 C 119.902344 127.53125 116.136719 136.675781 117.59375 139.328125 " fill-opacity="1" fill-rule="nonzero"/><path fill="#312f30" d="M 117.253906 154.945312 C 117.726562 152.289062 117.707031 148.214844 116.175781 147.472656 C 116.113281 147.460938 116.03125 147.4375 115.972656 147.433594 C 113.492188 147.300781 111.671875 156.777344 113.652344 159.5 C 114.800781 161.082031 116.550781 158.867188 117.253906 154.945312 " fill-opacity="1" fill-rule="nonzero"/><path fill="#312f30" d="M 118.761719 150.023438 C 120.078125 151.949219 122.503906 149.6875 123.570312 145.535156 C 124.242188 142.925781 124.351562 138.988281 122.503906 138.40625 C 119.203125 138.144531 116.898438 147.289062 118.761719 150.023438 " fill-opacity="1" fill-rule="nonzero"/><path fill="#312f30" d="M 140.566406 156.300781 C 140.84375 153.597656 139.886719 149.71875 136.886719 149.558594 C 132.671875 149.941406 131.035156 157.433594 133.546875 160.773438 C 135.976562 164.003906 140.046875 161.410156 140.566406 156.300781 " fill-opacity="1" fill-rule="nonzero"/><path fill="#312f30" d="M 148.277344 166.265625 C 148.316406 163.515625 146.828125 159.636719 143.390625 159.621094 C 138.570312 160.230469 137.574219 167.785156 140.84375 171.125 C 143.894531 174.238281 148.203125 171.421875 148.277344 166.265625 " fill-opacity="1" fill-rule="nonzero"/><path fill="#312f30" d="M 149.898438 181.191406 C 153.476562 184.164062 157.980469 181.144531 157.671875 175.980469 C 157.503906 173.203125 155.554688 169.351562 151.734375 169.484375 C 146.480469 170.308594 146.015625 177.964844 149.898438 181.191406 " fill-opacity="1" fill-rule="nonzero"/><path fill="#312f30" d="M 161.675781 179.085938 C 156.441406 180.046875 156.074219 187.207031 159.9375 190.519531 C 163.9375 193.953125 169.125 190.835938 168.472656 185.390625 C 168.136719 182.601562 165.808594 178.796875 161.675781 179.085938 " fill-opacity="1" fill-rule="nonzero"/><path fill="#312f30" d="M 132.40625 139.40625 C 128.523438 139.597656 126.324219 147.53125 128.457031 150.632812 C 130.332031 153.363281 133.820312 150.90625 134.777344 146.179688 C 135.3125 143.546875 134.929688 139.703125 132.40625 139.40625 " fill-opacity="1" fill-rule="nonzero"/><path fill="#312f30" d="M 125.328125 140.371094 C 126.683594 142.617188 129.683594 140.332031 131.058594 136 C 131.867188 133.457031 132.09375 129.6875 130.066406 129.273438 C 126.578125 129.261719 123.609375 137.527344 125.328125 140.371094 " fill-opacity="1" fill-rule="nonzero"/><path fill="#312f30" d="M 135.449219 192.734375 L 135.40625 192.804688 L 135.417969 192.8125 Z M 135.449219 192.734375 " fill-opacity="1" fill-rule="nonzero"/><path fill="#312f30" d="M 138.023438 203.214844 L 138.101562 203.285156 L 138.035156 203.214844 C 138.03125 203.214844 138.027344 203.214844 138.023438 203.214844 " fill-opacity="1" fill-rule="nonzero"/><path fill="#312f30" d="M 170.65625 237.5 C 174.503906 239.007812 177.167969 236.9375 175.65625 233.617188 C 174.761719 231.65625 171.902344 228.96875 168.34375 229.125 C 167.972656 229.183594 167.507812 229.25 167.070312 229.472656 C 164.097656 230.972656 166.242188 235.777344 170.65625 237.5 " fill-opacity="1" fill-rule="nonzero"/><path fill="#312f30" d="M 170.082031 245.238281 C 173.007812 245.804688 174.210938 244.054688 172.601562 241.570312 C 171.566406 239.964844 168.683594 237.433594 165.367188 237.472656 C 165.148438 237.484375 164.480469 237.53125 163.960938 237.90625 C 161.628906 239.582031 165.628906 244.382812 170.082031 245.238281 " fill-opacity="1" fill-rule="nonzero"/><path fill="#312f30" d="M 155.605469 155.128906 C 155.746094 152.550781 154.449219 148.96875 151.121094 149.0625 C 147.058594 149.488281 145.066406 156.015625 147.9375 159.488281 C 150.671875 162.796875 155.328125 160.144531 155.605469 155.128906 " fill-opacity="1" fill-rule="nonzero"/><path fill="#312f30" d="M 144.738281 139.542969 C 140.730469 140.066406 138.863281 146.84375 141.058594 149.859375 C 143.222656 152.828125 147.273438 150.496094 148.050781 145.835938 C 148.480469 143.265625 147.738281 139.613281 144.738281 139.542969 " fill-opacity="1" fill-rule="nonzero"/><path fill="#312f30" d="M 109.898438 144.710938 C 110.355469 144.46875 111.15625 141.976562 111.59375 140.515625 C 111.769531 139.933594 113.28125 134.828125 113.058594 133.582031 C 113.039062 133.546875 113 133.5 112.960938 133.484375 C 112.941406 133.492188 112.910156 133.5 112.890625 133.515625 C 111.855469 134.210938 109.117188 144.464844 109.898438 144.710938 " fill-opacity="1" fill-rule="nonzero"/><path fill="#312f30" d="M 179.976562 224.363281 C 179.261719 222.355469 176.78125 219.476562 172.863281 219.78125 C 172.566406 219.835938 172.171875 219.90625 171.890625 220.007812 C 168.230469 221.304688 169.296875 226.578125 173.648438 228.683594 C 177.398438 230.5 181.445312 228.5 179.976562 224.363281 " fill-opacity="1" fill-rule="nonzero"/><path fill="#312f30" d="M 164.15625 255.609375 C 164.699219 255.519531 163.480469 254.484375 162.160156 253.546875 C 160.664062 252.484375 157.304688 250.34375 155.324219 249.859375 C 155.085938 249.828125 154.882812 249.796875 154.828125 249.929688 C 154.457031 250.863281 162.652344 255.851562 164.15625 255.609375 " fill-opacity="1" fill-rule="nonzero"/><path fill="#312f30" d="M 170.523438 251.4375 C 172.582031 251.578125 172.859375 250.316406 171.1875 248.429688 C 170.089844 247.195312 167.195312 244.832031 164.101562 244.738281 C 163.6875 244.769531 163.296875 244.796875 162.96875 245.039062 C 161.078125 246.445312 166.65625 251.171875 170.523438 251.4375 " fill-opacity="1" fill-rule="nonzero"/><path fill="#312f30" d="M 136.199219 140.144531 C 137.703125 142.351562 141.210938 140.664062 142.371094 136.21875 C 142.796875 134.59375 143.265625 130.320312 140.367188 130.117188 C 136.707031 130.457031 134.355469 137.4375 136.199219 140.144531 " fill-opacity="1" fill-rule="nonzero"/><path fill="#312f30" d="M 116.296875 132.4375 C 117.070312 130.546875 118.390625 126.734375 117.878906 125.839844 C 117.851562 125.824219 117.820312 125.792969 117.792969 125.78125 C 116.613281 125.378906 112.867188 134.71875 113.578125 136.300781 C 113.921875 137.074219 115.066406 135.449219 116.296875 132.4375 " fill-opacity="1" fill-rule="nonzero"/><path fill="#312f30" d="M 159.351562 158.59375 C 154.402344 159.5 153.949219 166.125 156.695312 168.980469 C 159.640625 172.039062 164.847656 169.886719 164.714844 164.449219 C 164.628906 160.878906 162.222656 158.25 159.351562 158.59375 " fill-opacity="1" fill-rule="nonzero"/><path fill="#312f30" d="M 179.78125 194.441406 C 179.355469 192.007812 177.199219 188.539062 173.003906 188.953125 C 168.039062 189.734375 167.957031 196.582031 171.804688 199.429688 C 175.484375 202.15625 180.703125 199.722656 179.78125 194.441406 " fill-opacity="1" fill-rule="nonzero"/><path fill="#312f30" d="M 178.078125 218.59375 C 182.132812 221.125 186.617188 218.507812 185.574219 214.214844 C 184.84375 211.203125 181.582031 208.945312 178.597656 209.386719 C 178.445312 209.417969 178.242188 209.453125 178.089844 209.492188 C 173.980469 210.585938 173.972656 216.027344 178.078125 218.59375 " fill-opacity="1" fill-rule="nonzero"/><path fill="#312f30" d="M 129.695312 119.859375 C 127.109375 119.695312 123.578125 127.367188 124.558594 129.617188 C 125.269531 131.246094 127.609375 129.429688 129.195312 126.019531 C 130.167969 123.933594 131.160156 120.414062 129.695312 119.859375 " fill-opacity="1" fill-rule="nonzero"/><path fill="#312f30" d="M 172.496094 256.410156 C 173.503906 256.324219 173.160156 255.394531 171.667969 254.144531 C 169.632812 252.441406 166.351562 250.890625 164.652344 250.816406 C 164.339844 250.824219 164.042969 250.832031 163.851562 251.007812 C 162.574219 252.210938 169.683594 256.652344 172.496094 256.410156 " fill-opacity="1" fill-rule="nonzero"/><path fill="#312f30" d="M 138.105469 120.746094 C 135.203125 120.933594 131.9375 127.261719 133.253906 130.148438 C 134.304688 132.449219 137.476562 130.308594 138.910156 126.332031 C 139.691406 124.167969 139.957031 121.007812 138.105469 120.746094 " fill-opacity="1" fill-rule="nonzero"/><path fill="#312f30" d="M 119.011719 127.898438 C 119.394531 128.910156 121.078125 127.113281 122.617188 124.054688 C 123.648438 122.011719 124.855469 118.703125 124.1875 118.085938 C 124.183594 118.085938 124.179688 118.082031 124.175781 118.078125 C 122.625 117.480469 118.230469 125.828125 119.011719 127.898438 " fill-opacity="1" fill-rule="nonzero"/><path fill="#312f30" d="M 169.175781 167.9375 C 164.726562 168.632812 163.453125 175.105469 167.140625 178.277344 C 170.757812 181.386719 175.664062 178.449219 175.21875 173.441406 C 174.992188 170.9375 172.972656 167.578125 169.175781 167.9375 " fill-opacity="1" fill-rule="nonzero"/><path fill="#312f30" d="M 187.644531 240.0625 C 186.710938 237.824219 183.414062 236 180.851562 236.308594 C 180.617188 236.347656 180.304688 236.40625 180.078125 236.488281 C 177.242188 237.496094 177.949219 241.308594 182.296875 243.144531 C 186.179688 244.785156 188.757812 242.738281 187.644531 240.0625 " fill-opacity="1" fill-rule="nonzero"/><path fill="#312f30" d="M 184.519531 247.402344 C 183.550781 245.929688 180.679688 243.960938 177.796875 244.09375 C 177.277344 244.148438 176.851562 244.292969 176.53125 244.523438 C 174.5 245.996094 177.613281 249.582031 181.660156 250.425781 C 184.769531 251.074219 185.765625 249.304688 184.519531 247.402344 " fill-opacity="1" fill-rule="nonzero"/><path fill="#312f30" d="M 159.050781 138.589844 C 155.699219 139.027344 153.273438 144.703125 155.9375 147.960938 C 158.394531 150.964844 162.6875 148.605469 163.109375 144.015625 C 163.332031 141.632812 162.042969 138.421875 159.050781 138.589844 " fill-opacity="1" fill-rule="nonzero"/><path fill="#312f30" d="M 155.804688 135 C 156.328125 132.015625 154.898438 129.457031 152.808594 129.628906 C 149.300781 130.214844 147.089844 136.042969 149.277344 138.933594 C 151.371094 141.695312 155.125 138.875 155.804688 135 " fill-opacity="1" fill-rule="nonzero"/><path fill="#312f30" d="M 119.050781 121.605469 C 119.488281 120.800781 121.648438 116.75 121.570312 115.738281 C 121.558594 115.722656 121.550781 115.691406 121.535156 115.679688 C 120.855469 115.179688 116.308594 123.78125 116.667969 124.882812 C 116.808594 125.316406 117.722656 124.0625 119.050781 121.605469 " fill-opacity="1" fill-rule="nonzero"/><path fill="#312f30" d="M 144.4375 129.59375 C 145.761719 131.886719 149.304688 130.140625 150.398438 125.800781 C 150.898438 123.832031 150.820312 120.882812 148.574219 120.84375 C 145.316406 121.277344 143.003906 127.105469 144.4375 129.59375 " fill-opacity="1" fill-rule="nonzero"/><path fill="#312f30" d="M 167.152344 147.601562 C 163.230469 148.214844 161.65625 154.289062 164.675781 157.164062 C 167.605469 159.953125 172.152344 157.183594 172.046875 152.675781 C 172 150.539062 170.625 147.273438 167.152344 147.601562 " fill-opacity="1" fill-rule="nonzero"/><path fill="#312f30" d="M 191.929688 231.113281 C 190.996094 228.710938 188.085938 227.074219 185.441406 227.460938 C 185.183594 227.515625 184.835938 227.585938 184.585938 227.675781 C 181.273438 228.863281 182 233.15625 185.824219 234.972656 C 189.65625 236.792969 193.25 234.519531 191.929688 231.113281 " fill-opacity="1" fill-rule="nonzero"/><path fill="#312f30" d="M 182.996094 253.617188 C 181.363281 251.941406 178.445312 250.667969 176.484375 250.773438 C 176.160156 250.808594 175.613281 250.863281 175.304688 251.1875 C 174 252.558594 178.863281 255.992188 182.242188 256.085938 C 184.121094 256.136719 184.4375 255.101562 182.996094 253.617188 " fill-opacity="1" fill-rule="nonzero"/><path fill="#312f30" d="M 137.898438 111.785156 C 135.746094 111.585938 131.742188 117.96875 132.542969 120.320312 C 133.105469 121.96875 135.585938 120.625 137.453125 116.941406 C 138.28125 115.304688 139.441406 112.121094 137.898438 111.785156 " fill-opacity="1" fill-rule="nonzero"/><path fill="#312f30" d="M 175.605469 260.171875 C 176.082031 260.078125 175.363281 259.445312 173.683594 258.484375 C 173.269531 258.246094 169.578125 256.164062 167.246094 255.832031 C 167 255.816406 166.769531 255.804688 166.691406 255.921875 C 166.160156 256.710938 174.074219 260.484375 175.605469 260.171875 " fill-opacity="1" fill-rule="nonzero"/><path fill="#312f30" d="M 197.609375 221.511719 C 197.144531 219.636719 195.058594 217.023438 191.214844 217.527344 C 191.214844 217.527344 191.214844 217.527344 191.210938 217.527344 C 191.210938 217.53125 191.210938 217.53125 191.210938 217.53125 C 191.210938 217.53125 191.207031 217.53125 191.207031 217.53125 C 191.207031 217.53125 191.207031 217.53125 191.203125 217.53125 C 190.613281 217.664062 189.390625 217.945312 188.5625 219.066406 C 186.578125 221.734375 189.261719 226.84375 194.433594 226.160156 C 194.433594 226.160156 194.4375 226.160156 194.4375 226.160156 C 194.441406 226.160156 194.441406 226.160156 194.441406 226.160156 C 194.445312 226.160156 194.445312 226.160156 194.445312 226.160156 C 198.410156 225.25 197.703125 221.894531 197.609375 221.511719 " fill-opacity="1" fill-rule="nonzero"/><path fill="#312f30" d="M 191.917969 203.054688 C 191.539062 200.898438 189.402344 197.667969 185.265625 198.167969 C 180.453125 199.292969 180.476562 205.164062 184.234375 207.625 C 188.085938 210.148438 192.679688 207.414062 191.917969 203.054688 " fill-opacity="1" fill-rule="nonzero"/><path fill="#312f30" d="M 180.355469 177.195312 C 175.910156 178.011719 174.96875 184.382812 178.878906 187.214844 C 182.625 189.929688 187.332031 186.871094 186.632812 182.179688 C 186.222656 179.4375 183.882812 176.757812 180.355469 177.195312 " fill-opacity="1" fill-rule="nonzero"/><path fill="#312f30" d="M 114.300781 129.054688 C 114.953125 127.5 116.484375 123.792969 116.675781 122.871094 C 116.679688 122.847656 116.679688 122.816406 116.679688 122.789062 C 116.664062 122.789062 116.640625 122.789062 116.625 122.789062 C 115.984375 123.582031 112.394531 132.046875 112.695312 132.570312 C 112.789062 132.4375 113.011719 132.128906 114.300781 129.054688 " fill-opacity="1" fill-rule="nonzero"/><path fill="#312f30" d="M 166.25 257.414062 C 162.015625 255.222656 160.804688 254.695312 160.179688 254.46875 C 160.179688 254.46875 160.175781 254.46875 160.175781 254.46875 C 160.175781 254.46875 160.175781 254.464844 160.175781 254.464844 C 160.171875 254.464844 160.171875 254.464844 160.171875 254.464844 C 160.113281 254.449219 160.03125 254.425781 159.96875 254.417969 C 159.964844 254.429688 159.960938 254.453125 159.957031 254.464844 C 160.839844 255.296875 168.242188 258.863281 169.117188 258.996094 C 169.082031 258.921875 169.058594 258.863281 166.25 257.414062 " fill-opacity="1" fill-rule="nonzero"/><path fill="#312f30" d="M 125.941406 119.242188 C 126.253906 120.335938 127.980469 119.257812 129.960938 115.949219 C 130.074219 115.757812 132.734375 111.28125 131.585938 110.574219 C 129.605469 110.265625 125.441406 117.480469 125.941406 119.242188 " fill-opacity="1" fill-rule="nonzero"/><path fill="#312f30" d="M 183.769531 260.414062 C 183.769531 260.414062 183.773438 260.414062 183.773438 260.414062 C 183.773438 260.414062 183.773438 260.414062 183.777344 260.414062 C 183.84375 260.40625 183.933594 260.40625 184.003906 260.398438 C 184.949219 260.289062 184.691406 259.597656 183.347656 258.640625 C 181.441406 257.28125 178.578125 256.195312 176.96875 256.214844 C 176.679688 256.230469 176.382812 256.25 176.195312 256.40625 C 175.167969 257.253906 180.390625 260.347656 183.769531 260.414062 " fill-opacity="1" fill-rule="nonzero"/><path fill="#312f30" d="M 146.460938 112.175781 C 146.136719 112.210938 145.648438 112.261719 144.824219 112.929688 C 141.867188 115.324219 140.203125 121.007812 142.996094 121.210938 C 142.996094 121.210938 142.996094 121.210938 143 121.210938 C 143 121.210938 143.003906 121.210938 143.003906 121.210938 C 145.316406 120.976562 146.824219 117.558594 146.992188 117.171875 C 148.011719 114.761719 148.042969 112.179688 146.460938 112.175781 " fill-opacity="1" fill-rule="nonzero"/><path fill="#312f30" d="M 127.890625 108.617188 C 127.152344 108.445312 121.621094 115.746094 122.363281 117.242188 C 122.363281 117.242188 122.363281 117.242188 122.363281 117.246094 C 122.367188 117.246094 122.367188 117.246094 122.367188 117.246094 C 123.007812 117.617188 125.242188 114.238281 125.492188 113.851562 C 126.292969 112.632812 128.289062 109.320312 127.960938 108.65625 C 127.9375 108.644531 127.914062 108.621094 127.890625 108.617188 " fill-opacity="1" fill-rule="nonzero"/><path fill="#312f30" d="M 176.898438 156.519531 C 172.128906 157.636719 172.035156 163.589844 174.859375 165.96875 C 177.792969 168.441406 182.703125 166.210938 182.378906 161.46875 C 182.15625 158.253906 179.699219 156.035156 176.898438 156.519531 " fill-opacity="1" fill-rule="nonzero"/><path fill="#312f30" d="M 187.984375 165.277344 C 184.023438 166.300781 182.878906 171.371094 185.976562 174.164062 C 189.542969 177.386719 194.152344 174.183594 193.789062 169.984375 C 193.589844 167.703125 191.460938 164.792969 187.984375 165.277344 " fill-opacity="1" fill-rule="nonzero"/><path fill="#312f30" d="M 198.796875 190.890625 C 198.394531 187.898438 195.335938 185.589844 192.503906 186.140625 C 188.4375 187.210938 187.464844 192.492188 190.832031 195.257812 C 194.796875 198.519531 199.382812 195.226562 198.796875 190.890625 " fill-opacity="1" fill-rule="nonzero"/><path fill="#312f30" d="M 204.089844 210.597656 C 203.597656 208.003906 200.59375 206.054688 197.90625 206.585938 C 193.914062 207.625 193.148438 212.328125 196.585938 214.703125 C 200.511719 217.417969 204.804688 214.375 204.089844 210.597656 " fill-opacity="1" fill-rule="nonzero"/><path fill="#312f30" d="M 134.03125 110.808594 C 134.226562 112.214844 136.507812 110.375 138.242188 107.886719 C 139.484375 106.101562 140.75 103.441406 139.890625 103.097656 C 138.070312 103.035156 133.738281 108.730469 134.03125 110.808594 " fill-opacity="1" fill-rule="nonzero"/><path fill="#312f30" d="M 199.085938 245.429688 C 198.351562 243.625 195.429688 242.175781 193.191406 242.503906 C 192.984375 242.546875 192.703125 242.605469 192.503906 242.679688 C 190.128906 243.542969 190.449219 246.472656 193.882812 247.964844 C 197.398438 249.492188 200.023438 247.730469 199.085938 245.429688 " fill-opacity="1" fill-rule="nonzero"/><path fill="#312f30" d="M 171.710938 259.652344 C 171.648438 259.644531 171.5625 259.632812 171.5 259.632812 C 171.492188 259.648438 171.484375 259.671875 171.476562 259.6875 C 172.226562 260.425781 178.757812 262.699219 180.246094 262.925781 C 180.257812 262.914062 180.277344 262.898438 180.292969 262.882812 C 180.042969 262.726562 179.175781 262.355469 177.710938 261.773438 C 177.25 261.589844 173.175781 259.984375 171.710938 259.652344 " fill-opacity="1" fill-rule="nonzero"/><path fill="#312f30" d="M 141.300781 111.386719 C 141.792969 112.910156 144.199219 111.320312 145.898438 108.347656 C 146.820312 106.730469 147.796875 104.078125 146.476562 103.851562 C 144.320312 104.003906 140.644531 109.355469 141.300781 111.386719 " fill-opacity="1" fill-rule="nonzero"/><path fill="#312f30" d="M 187.054688 263.507812 C 187.421875 263.296875 185.867188 262.554688 185.382812 262.332031 C 183.515625 261.46875 180.679688 260.507812 179.359375 260.449219 C 179.148438 260.453125 178.929688 260.457031 178.863281 260.5625 C 178.394531 261.332031 186.050781 264.085938 187.054688 263.507812 " fill-opacity="1" fill-rule="nonzero"/><path fill="#312f30" d="M 166.851562 128.3125 C 163.542969 129.046875 161.90625 134.105469 164.160156 136.636719 C 166.351562 139.101562 170.1875 136.816406 170.476562 132.875 C 170.671875 130.1875 168.945312 128.011719 166.851562 128.3125 " fill-opacity="1" fill-rule="nonzero"/><path fill="#312f30" d="M 160.742188 119.980469 C 157.789062 120.566406 155.800781 125.382812 157.46875 127.910156 C 159.117188 130.398438 162.703125 128.339844 163.371094 124.523438 C 163.828125 121.933594 162.574219 119.769531 160.742188 119.980469 " fill-opacity="1" fill-rule="nonzero"/><path fill="#312f30" d="M 192.917969 254.640625 C 195.816406 255.242188 196.96875 253.792969 195.875 252.179688 C 194.828125 250.636719 192.050781 249.453125 190.046875 249.691406 C 189.667969 249.757812 189.308594 249.820312 188.941406 250.074219 C 187.179688 251.28125 189.484375 253.925781 192.917969 254.640625 " fill-opacity="1" fill-rule="nonzero"/><path fill="#312f30" d="M 129.445312 109.328125 C 129.574219 110.09375 131.113281 108.835938 132.949219 106.460938 C 132.980469 106.421875 136.058594 102.425781 135.476562 101.78125 C 134.261719 101.449219 129.1875 107.796875 129.445312 109.328125 " fill-opacity="1" fill-rule="nonzero"/><path fill="#312f30" d="M 193.542969 259.6875 C 195.179688 259.667969 195.480469 258.835938 194.257812 257.710938 C 193.289062 256.820312 190.992188 255.539062 188.640625 255.675781 C 188.359375 255.703125 187.84375 255.789062 187.578125 256.054688 C 186.410156 257.214844 190.535156 259.726562 193.542969 259.6875 " fill-opacity="1" fill-rule="nonzero"/><path fill="#312f30" d="M 156.652344 111.851562 C 154.089844 112.101562 151.613281 117.214844 152.972656 119.445312 C 154.089844 121.28125 157.179688 119.730469 158.179688 116.140625 C 158.667969 114.394531 158.664062 111.808594 156.652344 111.851562 " fill-opacity="1" fill-rule="nonzero"/><path fill="#312f30" d="M 174.851562 136.773438 C 171.402344 137.390625 170 142.640625 172.609375 145.15625 C 174.988281 147.445312 179.332031 145.433594 179.214844 141.148438 C 179.160156 139.183594 177.953125 136.398438 174.851562 136.773438 " fill-opacity="1" fill-rule="nonzero"/><path fill="#312f30" d="M 203.53125 237.15625 C 203.042969 235.78125 201.066406 233.761719 197.84375 234.199219 C 197.613281 234.238281 197.265625 234.320312 196.921875 234.464844 C 194.210938 235.601562 194.738281 239.003906 197.847656 240.429688 C 201.136719 241.941406 204.535156 239.980469 203.53125 237.15625 " fill-opacity="1" fill-rule="nonzero"/><path fill="#312f30" d="M 123.742188 111.265625 C 125.050781 109.367188 126.652344 106.960938 126.871094 106.246094 C 126.859375 106.226562 126.847656 106.195312 126.839844 106.171875 C 126.074219 106.433594 121.464844 113.34375 121.648438 113.953125 C 121.734375 113.925781 121.964844 113.847656 123.742188 111.265625 " fill-opacity="1" fill-rule="nonzero"/><path fill="#312f30" d="M 130.214844 104.390625 C 130.25 104.351562 133.394531 100.574219 133.398438 99.863281 C 133.390625 99.851562 133.378906 99.835938 133.367188 99.824219 C 132.476562 99.785156 127.097656 106.414062 127.554688 106.992188 C 127.949219 107.023438 129.390625 105.375 130.214844 104.390625 " fill-opacity="1" fill-rule="nonzero"/><path fill="#312f30" d="M 183.710938 263.515625 C 183.507812 263.503906 183.507812 263.503906 183.453125 263.554688 C 183.9375 264.03125 190.832031 265.730469 191.472656 265.53125 C 191.386719 265.484375 191.246094 265.402344 189.296875 264.863281 C 186.492188 264.089844 184.613281 263.636719 183.710938 263.515625 " fill-opacity="1" fill-rule="nonzero"/><path fill="#312f30" d="M 200.0625 173.96875 C 196.285156 174.84375 195.308594 179.921875 198.433594 182.457031 C 201.789062 185.179688 206.386719 182.480469 205.777344 178.144531 C 205.484375 176.058594 203.515625 173.382812 200.0625 173.96875 " fill-opacity="1" fill-rule="nonzero"/><path fill="#312f30" d="M 206.335938 231.972656 C 206.335938 231.972656 206.339844 231.972656 206.339844 231.972656 C 206.339844 231.972656 206.34375 231.972656 206.34375 231.972656 C 206.34375 231.972656 206.34375 231.972656 206.347656 231.972656 C 206.347656 231.972656 206.347656 231.96875 206.347656 231.96875 C 206.351562 231.96875 206.351562 231.96875 206.351562 231.96875 C 206.351562 231.96875 206.351562 231.96875 206.355469 231.96875 C 209.882812 231.089844 209.328125 228.261719 209.253906 227.9375 C 208.886719 226.375 207.105469 224.238281 203.703125 224.773438 C 202.363281 225.050781 201.644531 225.757812 201.332031 226.152344 C 199.382812 228.660156 202.089844 232.621094 206.332031 231.972656 C 206.332031 231.972656 206.332031 231.972656 206.335938 231.972656 " fill-opacity="1" fill-rule="nonzero"/><path fill="#312f30" d="M 154.710938 103.90625 C 152.632812 104.050781 149.78125 108.671875 150.472656 110.773438 C 151.046875 112.527344 153.691406 111.28125 155.132812 107.929688 C 155.789062 106.398438 156.253906 103.953125 154.710938 103.90625 " fill-opacity="1" fill-rule="nonzero"/><path fill="#312f30" d="M 137.71875 101.65625 C 137.691406 102.539062 139.414062 101.34375 141.402344 99.105469 C 142.425781 97.953125 144.375 95.453125 143.878906 95.082031 C 142.597656 94.953125 137.765625 100.113281 137.71875 101.65625 " fill-opacity="1" fill-rule="nonzero"/><path fill="#312f30" d="M 195.234375 263.261719 C 195.832031 263.082031 195.472656 262.546875 194.320312 261.898438 C 193.355469 261.351562 191.003906 260.332031 189.03125 260.378906 C 189.027344 260.378906 189.027344 260.378906 189.027344 260.378906 C 189.027344 260.378906 189.023438 260.378906 189.023438 260.378906 C 189.023438 260.378906 189.023438 260.378906 189.019531 260.378906 C 188.785156 260.402344 188.390625 260.441406 188.261719 260.640625 C 187.597656 261.632812 193.398438 263.816406 195.234375 263.261719 " fill-opacity="1" fill-rule="nonzero"/><path fill="#312f30" d="M 184.484375 145.175781 C 184.484375 145.175781 184.480469 145.175781 184.480469 145.175781 C 184.480469 145.175781 184.480469 145.175781 184.476562 145.175781 C 184.472656 145.175781 184.472656 145.175781 184.472656 145.175781 C 184.472656 145.175781 184.472656 145.175781 184.46875 145.175781 C 184.46875 145.175781 184.46875 145.175781 184.46875 145.179688 C 184.464844 145.179688 184.464844 145.179688 184.464844 145.179688 C 184.464844 145.179688 184.460938 145.179688 184.460938 145.179688 C 180.238281 146.3125 180.269531 151.660156 182.835938 153.617188 C 185.75 155.839844 189.734375 153.257812 189.394531 149.363281 C 189.230469 147.492188 187.753906 144.695312 184.484375 145.175781 " fill-opacity="1" fill-rule="nonzero"/><path fill="#312f30" d="M 179.070312 262.722656 L 179.339844 262.804688 C 179.140625 262.742188 178.929688 262.679688 178.734375 262.621094 L 179.070312 262.722656 " fill-opacity="1" fill-rule="nonzero"/><path fill="#312f30" d="M 210.984375 198.722656 C 210.488281 196.070312 207.84375 194.316406 205.21875 194.894531 C 200.964844 196.085938 200.78125 201.144531 203.972656 203.203125 C 207.398438 205.414062 211.722656 202.648438 210.984375 198.722656 " fill-opacity="1" fill-rule="nonzero"/><path fill="#312f30" d="M 142.980469 102.648438 C 143.195312 103.703125 145.222656 102.324219 147.074219 99.871094 C 147.953125 98.707031 149.480469 96.226562 148.59375 95.988281 C 147.195312 95.867188 142.609375 100.832031 142.980469 102.648438 " fill-opacity="1" fill-rule="nonzero"/><path fill="#312f30" d="M 215.898438 217.652344 C 215.664062 215.648438 213.386719 213.757812 210.488281 214.253906 C 207.144531 215.179688 206.1875 218.84375 208.757812 220.902344 C 212.007812 223.503906 216.28125 220.96875 215.898438 217.652344 " fill-opacity="1" fill-rule="nonzero"/><path fill="#312f30" d="M 197.894531 265.695312 C 198.175781 265.539062 196.917969 265.089844 196.527344 264.953125 C 194.921875 264.402344 192.375 263.792969 191.28125 263.808594 C 191.121094 263.816406 190.855469 263.832031 190.851562 263.957031 C 190.847656 264.589844 197.101562 266.132812 197.894531 265.695312 " fill-opacity="1" fill-rule="nonzero"/><path fill="#312f30" d="M 195.511719 153.441406 C 195.507812 153.441406 195.507812 153.441406 195.507812 153.441406 C 195.507812 153.441406 195.503906 153.441406 195.503906 153.441406 C 195.5 153.441406 195.5 153.441406 195.5 153.441406 C 195.5 153.445312 195.496094 153.445312 195.496094 153.445312 C 195.496094 153.445312 195.496094 153.445312 195.492188 153.445312 C 191.808594 154.511719 191.039062 159.542969 194.226562 161.726562 C 197.570312 164.011719 201.222656 160.859375 200.699219 157.289062 C 200.417969 155.375 198.457031 152.972656 195.511719 153.441406 " fill-opacity="1" fill-rule="nonzero"/><path fill="#312f30" d="M 150.273438 102.675781 C 150.632812 103.894531 152.777344 102.46875 154.296875 100.007812 C 155.003906 98.863281 156.085938 96.457031 154.933594 96.316406 C 153.042969 96.546875 149.777344 101.003906 150.273438 102.675781 " fill-opacity="1" fill-rule="nonzero"/><path fill="#312f30" d="M 134.929688 100.015625 C 134.929688 100.015625 134.933594 100.015625 134.933594 100.015625 C 135.386719 100.203125 137.476562 98.109375 138.105469 97.464844 C 138.234375 97.332031 141.222656 94.253906 141.078125 93.722656 C 141.0625 93.714844 141.042969 93.699219 141.027344 93.695312 C 140.410156 93.59375 134.503906 98.957031 134.929688 100.015625 " fill-opacity="1" fill-rule="nonzero"/><path fill="#312f30" d="M 209.617188 249.808594 C 209.132812 248.765625 207.351562 247.449219 204.90625 247.785156 C 204.5625 247.847656 204.214844 247.964844 203.957031 248.101562 C 202.132812 249.078125 202.929688 251.273438 205.425781 252.148438 C 208.085938 253.085938 210.511719 251.730469 209.617188 249.808594 " fill-opacity="1" fill-rule="nonzero"/><path fill="#312f30" d="M 172.046875 125.433594 C 173.980469 127.523438 177.277344 125.367188 177.308594 121.992188 C 177.324219 120.367188 176.363281 118.1875 174.179688 118.4375 C 171.5 118.933594 170.140625 123.382812 172.046875 125.433594 " fill-opacity="1" fill-rule="nonzero"/><path fill="#312f30" d="M 203.667969 257.980469 C 205.945312 258.390625 207.3125 257.417969 206.382812 256.050781 C 205.570312 254.859375 203.367188 254.03125 201.664062 254.28125 C 201.386719 254.332031 200.925781 254.421875 200.578125 254.699219 C 199.351562 255.671875 201.082031 257.511719 203.667969 257.980469 " fill-opacity="1" fill-rule="nonzero"/><path fill="#312f30" d="M 168.183594 110.792969 C 165.488281 111.386719 164.214844 115.863281 165.710938 117.570312 C 167.09375 119.152344 170.003906 117.574219 170.429688 114.34375 C 170.679688 112.445312 169.894531 110.546875 168.183594 110.792969 " fill-opacity="1" fill-rule="nonzero"/><path fill="#312f30" d="M 214.277344 242.253906 C 213.898438 241.140625 212.355469 239.636719 209.660156 240.074219 C 209.53125 240.101562 209.25 240.175781 209.246094 240.175781 C 206.5 241.007812 206.8125 243.78125 209.089844 244.960938 C 211.859375 246.398438 215.109375 244.703125 214.277344 242.253906 " fill-opacity="1" fill-rule="nonzero"/><path fill="#312f30" d="M 164.253906 103.316406 C 162.183594 103.582031 160.148438 107.785156 161.226562 109.566406 C 162.128906 111.050781 164.660156 109.769531 165.496094 106.839844 C 165.914062 105.375 165.925781 103.226562 164.253906 103.316406 " fill-opacity="1" fill-rule="nonzero"/><path fill="#312f30" d="M 182.074219 126.265625 C 178.628906 127.164062 178.445312 131.714844 180.429688 133.421875 C 182.488281 135.191406 186.023438 133.421875 185.855469 129.910156 C 185.746094 127.515625 184.046875 125.882812 182.074219 126.265625 " fill-opacity="1" fill-rule="nonzero"/><path fill="#312f30" d="M 204.046875 262.300781 C 205.34375 262.21875 205.597656 261.621094 204.671875 260.84375 C 203.699219 260.027344 201.734375 259.300781 200.128906 259.496094 C 199.882812 259.535156 199.46875 259.601562 199.238281 259.820312 C 198.28125 260.714844 201.652344 262.453125 204.046875 262.300781 " fill-opacity="1" fill-rule="nonzero"/><path fill="#312f30" d="M 205.390625 265.15625 C 205.851562 265.015625 205.605469 264.683594 204.742188 264.285156 C 203.824219 263.859375 201.902344 263.265625 200.382812 263.359375 C 200.148438 263.382812 199.851562 263.441406 199.757812 263.582031 C 199.304688 264.269531 203.992188 265.578125 205.390625 265.15625 " fill-opacity="1" fill-rule="nonzero"/><path fill="#312f30" d="M 152.222656 94.777344 C 152.390625 95.527344 154.078125 94.410156 155.695312 92.488281 C 156.96875 90.972656 157.90625 89.316406 157.269531 89.261719 C 155.773438 89.394531 151.957031 93.570312 152.222656 94.777344 " fill-opacity="1" fill-rule="nonzero"/><path fill="#312f30" d="M 195.539062 266.003906 C 195.363281 266 195.363281 266 195.320312 266.039062 C 195.777344 266.328125 201.703125 267.113281 202.136719 266.941406 C 201.980469 266.902344 201.777344 266.871094 200.203125 266.628906 C 197.714844 266.253906 196.34375 266.042969 195.539062 266.003906 " fill-opacity="1" fill-rule="nonzero"/><path fill="#312f30" d="M 162.761719 99.355469 C 163.484375 97.746094 163.558594 96.011719 162.5 96.09375 C 160.632812 96.433594 158.300781 100.320312 159.035156 101.871094 C 159.632812 103.125 161.683594 101.738281 162.761719 99.355469 " fill-opacity="1" fill-rule="nonzero"/><path fill="#312f30" d="M 143.4375 93.128906 C 143.347656 93.640625 144.734375 92.746094 146.660156 91.050781 C 146.695312 91.019531 149.878906 88.1875 149.648438 87.8125 C 148.792969 87.65625 143.628906 92.078125 143.4375 93.128906 " fill-opacity="1" fill-rule="nonzero"/><path fill="#312f30" d="M 212.761719 182.542969 C 208.742188 183.746094 208.90625 188.375 211.277344 190.273438 C 214.050781 192.496094 218.621094 190.457031 218.027344 186.300781 C 217.644531 183.613281 215.28125 181.925781 212.761719 182.542969 " fill-opacity="1" fill-rule="nonzero"/><path fill="#312f30" d="M 152.6875 88.773438 C 151.453125 88.75 146.757812 93.199219 146.84375 94.304688 C 146.890625 94.882812 148.273438 94.15625 150.429688 91.976562 C 150.546875 91.855469 153.292969 89.070312 152.6875 88.773438 " fill-opacity="1" fill-rule="nonzero"/><path fill="#312f30" d="M 217.894531 202.933594 C 214.285156 203.84375 213.859375 208.101562 216.414062 209.902344 C 219.269531 211.914062 223.398438 209.519531 222.910156 206.125 C 222.683594 204.550781 221.121094 202.289062 217.894531 202.933594 " fill-opacity="1" fill-rule="nonzero"/><path fill="#312f30" d="M 133.496094 97.527344 C 133.503906 97.507812 133.503906 97.480469 133.503906 97.464844 C 132.925781 97.722656 128.253906 103.230469 128.242188 103.667969 C 128.375 103.585938 128.722656 103.21875 130.253906 101.441406 C 132.761719 98.527344 133.296875 97.859375 133.496094 97.527344 " fill-opacity="1" fill-rule="nonzero"/><path fill="#312f30" d="M 207.546875 161.757812 C 203.5 162.988281 203.835938 167.796875 206.445312 169.523438 C 209.460938 171.523438 213.21875 168.980469 212.632812 165.335938 C 212.226562 162.824219 209.898438 161.1875 207.546875 161.757812 " fill-opacity="1" fill-rule="nonzero"/><path fill="#312f30" d="M 191.632812 134.058594 C 188.253906 135.023438 187.964844 139.488281 190.433594 141.269531 C 193.011719 143.136719 196.390625 140.757812 195.90625 137.414062 C 195.683594 135.878906 194.328125 133.613281 191.632812 134.058594 " fill-opacity="1" fill-rule="nonzero"/><path fill="#312f30" d="M 220.160156 233.59375 C 219.847656 232.074219 218.152344 230.703125 215.621094 231.164062 C 212.503906 231.886719 212.175781 234.96875 214.3125 236.4375 C 216.894531 238.210938 220.722656 236.355469 220.160156 233.59375 " fill-opacity="1" fill-rule="nonzero"/><path fill="#312f30" d="M 136.894531 95.390625 C 136.925781 95.363281 140.011719 92.402344 140.214844 91.882812 C 140.214844 91.882812 140.214844 91.882812 140.203125 91.855469 C 139.542969 91.832031 134.285156 96.933594 134.40625 97.484375 C 134.644531 97.507812 136.066406 96.183594 136.894531 95.390625 " fill-opacity="1" fill-rule="nonzero"/><path fill="#312f30" d="M 201.710938 148.882812 C 204.613281 150.777344 207.632812 148.054688 207.085938 145.035156 C 206.804688 143.464844 205.175781 141.363281 202.585938 141.855469 C 199.769531 142.566406 198.761719 146.960938 201.710938 148.882812 " fill-opacity="1" fill-rule="nonzero"/><path fill="#312f30" d="M 226.894531 223.691406 C 226.683594 222.105469 224.957031 220.695312 222.539062 221.175781 C 219.925781 221.832031 218.589844 224.980469 220.9375 226.730469 C 223.632812 228.742188 227.253906 226.40625 226.894531 223.691406 " fill-opacity="1" fill-rule="nonzero"/><path fill="#312f30" d="M 202.574219 265.914062 C 202.320312 265.9375 202.246094 265.960938 202.222656 266.027344 C 202.464844 266.5 207.242188 267.019531 207.855469 266.789062 C 207.855469 266.773438 207.859375 266.757812 207.863281 266.746094 C 207.8125 266.710938 207.679688 266.613281 206.511719 266.382812 C 206.078125 266.296875 203.84375 265.871094 202.574219 265.914062 " fill-opacity="1" fill-rule="nonzero"/><path fill="#312f30" d="M 159.011719 94.3125 C 159.179688 95.277344 160.808594 94.414062 162.246094 92.210938 C 163.164062 90.808594 163.679688 89.308594 162.914062 89.335938 C 161.527344 89.542969 158.792969 93.03125 159.011719 94.3125 " fill-opacity="1" fill-rule="nonzero"/><path fill="#312f30" d="M 144.765625 89.546875 C 145.953125 88.59375 147.960938 86.933594 148.050781 86.558594 C 147.6875 86.234375 142.226562 90.628906 142.148438 91.3125 C 142.195312 91.359375 142.339844 91.5 144.765625 89.546875 " fill-opacity="1" fill-rule="nonzero"/><path fill="#312f30" d="M 179.308594 114.675781 C 180.785156 116.085938 183.375 114.683594 183.300781 111.886719 C 183.269531 110.796875 182.691406 108.808594 180.710938 109.089844 C 178.445312 109.566406 177.828125 113.257812 179.308594 114.675781 " fill-opacity="1" fill-rule="nonzero"/><path fill="#312f30" d="M 215.597656 252.160156 C 215.449219 252.195312 215.253906 252.242188 215.113281 252.292969 C 213.339844 252.925781 213.734375 254.554688 215.3125 255.265625 C 217.117188 256.078125 219.683594 255.226562 219.097656 253.613281 C 218.816406 252.84375 217.652344 251.824219 215.597656 252.160156 " fill-opacity="1" fill-rule="nonzero"/><path fill="#312f30" d="M 176.679688 104.910156 C 176.839844 103.363281 176.199219 101.898438 174.847656 102.121094 C 172.761719 102.625 171.875 106.082031 173.0625 107.433594 C 174.175781 108.699219 176.410156 107.472656 176.679688 104.910156 " fill-opacity="1" fill-rule="nonzero"/><path fill="#312f30" d="M 213.25 260.453125 C 214.933594 260.765625 216.429688 260.136719 215.707031 259.046875 C 215.117188 258.15625 213.585938 257.648438 212.214844 257.886719 C 211.992188 257.933594 211.621094 258.011719 211.335938 258.214844 C 210.386719 258.886719 211.441406 260.121094 213.25 260.453125 " fill-opacity="1" fill-rule="nonzero"/><path fill="#312f30" d="M 223.921875 246.707031 C 223.710938 245.84375 222.609375 244.707031 220.441406 245.113281 C 217.875 245.792969 218.003906 247.902344 219.539062 248.789062 C 221.5625 249.960938 224.390625 248.617188 223.921875 246.707031 " fill-opacity="1" fill-rule="nonzero"/><path fill="#312f30" d="M 220.226562 169.976562 C 216.710938 170.953125 216.878906 175.277344 219.078125 176.910156 C 221.570312 178.757812 225.566406 176.679688 224.863281 173.039062 C 224.601562 171.679688 223.296875 169.296875 220.226562 169.976562 " fill-opacity="1" fill-rule="nonzero"/><path fill="#312f30" d="M 161.585938 82.886719 C 160.519531 82.945312 156.394531 86.433594 156.390625 87.277344 C 156.386719 87.703125 157.503906 87.144531 159.378906 85.472656 C 159.40625 85.449219 162.074219 83.0625 161.585938 82.886719 " fill-opacity="1" fill-rule="nonzero"/><path fill="#312f30" d="M 152.855469 86.632812 C 152.820312 86.988281 154.011719 86.296875 155.820312 84.910156 C 156.109375 84.691406 158.648438 82.734375 158.683594 82.347656 C 158.675781 82.335938 158.664062 82.328125 158.65625 82.320312 C 157.855469 82.269531 152.921875 85.941406 152.855469 86.632812 " fill-opacity="1" fill-rule="nonzero"/><path fill="#312f30" d="M 224.207031 197.515625 C 226.605469 199.269531 230.585938 197.335938 230.089844 193.851562 C 229.898438 192.5 228.703125 190.132812 225.554688 190.835938 C 221.726562 192.078125 222.308594 196.132812 224.207031 197.515625 " fill-opacity="1" fill-rule="nonzero"/><path fill="#312f30" d="M 187.472656 121.9375 C 189.410156 123.527344 192.054688 121.632812 191.695312 118.910156 C 191.53125 117.683594 190.523438 115.855469 188.503906 116.191406 C 186.21875 116.71875 185.5625 120.371094 187.472656 121.9375 " fill-opacity="1" fill-rule="nonzero"/><path fill="#312f30" d="M 234.125 212.621094 C 233.882812 210.878906 231.957031 209.742188 230.085938 210.238281 C 227.308594 211.136719 226.414062 214.300781 228.488281 215.878906 C 231.027344 217.808594 234.5 215.308594 234.125 212.621094 " fill-opacity="1" fill-rule="nonzero"/><path fill="#312f30" d="M 213.589844 264.007812 C 214.394531 263.871094 214.503906 263.457031 213.855469 262.992188 C 213.320312 262.613281 211.945312 262.078125 210.519531 262.25 C 210.054688 262.324219 209.859375 262.464844 209.773438 262.570312 C 209.21875 263.289062 211.890625 264.296875 213.589844 264.007812 " fill-opacity="1" fill-rule="nonzero"/><path fill="#312f30" d="M 168.835938 100.210938 C 169.566406 101.464844 171.464844 100.222656 172.058594 98.101562 C 172.453125 96.691406 172.144531 95.21875 171.074219 95.359375 C 169.445312 95.734375 168.023438 98.816406 168.835938 100.210938 " fill-opacity="1" fill-rule="nonzero"/><path fill="#312f30" d="M 226.542969 236.796875 C 224.402344 237.433594 223.566406 239.535156 224.972656 240.746094 C 226.953125 242.449219 230.121094 240.773438 229.976562 238.679688 C 229.882812 237.332031 228.183594 236.402344 226.542969 236.796875 " fill-opacity="1" fill-rule="nonzero"/><path fill="#312f30" d="M 199.546875 129.617188 C 199.550781 129.617188 199.550781 129.617188 199.550781 129.617188 C 199.550781 129.617188 199.550781 129.617188 199.550781 129.613281 C 199.550781 129.617188 199.550781 129.613281 199.550781 129.613281 C 199.550781 129.613281 199.554688 129.613281 199.554688 129.613281 C 201.378906 129.023438 201.789062 127.191406 201.617188 126.105469 C 201.339844 124.3125 199.578125 122.980469 197.992188 123.359375 C 197.667969 123.460938 197 123.671875 196.449219 124.535156 C 194.90625 126.933594 196.84375 130.117188 199.546875 129.617188 " fill-opacity="1" fill-rule="nonzero"/><path fill="#312f30" d="M 213.632812 156.039062 C 216.4375 158.144531 219.546875 155.589844 218.996094 152.601562 C 218.664062 150.820312 216.894531 149.1875 214.605469 149.65625 C 211.835938 150.566406 211.273438 154.269531 213.632812 156.039062 " fill-opacity="1" fill-rule="nonzero"/><path fill="#312f30" d="M 150.980469 85.484375 C 151.230469 85.5625 152.984375 84.398438 153.722656 83.890625 C 153.753906 83.871094 156.824219 81.773438 156.910156 81.445312 C 156.316406 81.300781 150.941406 84.960938 150.980469 85.484375 " fill-opacity="1" fill-rule="nonzero"/><path fill="#312f30" d="M 169.5 88.9375 C 168.273438 89.207031 166.398438 92.039062 166.878906 93.300781 C 167.304688 94.421875 168.988281 92.976562 169.71875 91.21875 C 170.195312 90.085938 170.199219 88.867188 169.5 88.9375 " fill-opacity="1" fill-rule="nonzero"/><path fill="#312f30" d="M 165.519531 83.074219 C 164.667969 83.097656 161.265625 86.292969 161.285156 87.328125 C 161.296875 87.988281 162.820312 86.871094 164.074219 85.507812 C 164.816406 84.695312 166 83.152344 165.519531 83.074219 " fill-opacity="1" fill-rule="nonzero"/><path fill="#312f30" d="M 213.859375 265.625 C 213.023438 265.351562 211.472656 265.125 210.644531 265.222656 C 210.492188 265.25 210.238281 265.289062 210.199219 265.410156 C 210.023438 265.96875 213.726562 266.398438 214.40625 266.089844 C 214.679688 265.964844 214.300781 265.765625 213.859375 265.625 " fill-opacity="1" fill-rule="nonzero"/><path fill="#312f30" d="M 141.167969 89.714844 C 141.171875 89.703125 141.183594 89.683594 141.191406 89.671875 C 140.835938 89.828125 136.460938 93.820312 136.234375 94.3125 C 136.3125 94.253906 136.3125 94.253906 138.121094 92.578125 C 140.433594 90.433594 140.980469 89.925781 141.167969 89.714844 " fill-opacity="1" fill-rule="nonzero"/><path fill="#312f30" d="M 144.792969 87.527344 C 147.636719 85.367188 147.851562 85.117188 148.007812 84.933594 C 147.703125 84.773438 142.816406 88.5 142.777344 88.925781 C 142.824219 88.929688 142.9375 88.9375 144.792969 87.527344 " fill-opacity="1" fill-rule="nonzero"/><path fill="#312f30" d="M 162.730469 80.5625 C 162.847656 80.710938 163.601562 80.300781 165.40625 79.09375 C 165.789062 78.839844 167.703125 77.554688 167.792969 77.3125 C 167.789062 77.308594 167.78125 77.300781 167.777344 77.296875 C 167.417969 77.25 162.800781 79.949219 162.730469 80.5625 " fill-opacity="1" fill-rule="nonzero"/><path fill="#312f30" d="M 236.78125 229.429688 C 236.78125 229.398438 236.640625 226.664062 233.601562 227.476562 C 230.105469 228.542969 231.617188 231.332031 231.949219 231.667969 C 233.078125 232.820312 236.625 232.210938 236.78125 229.429688 " fill-opacity="1" fill-rule="nonzero"/><path fill="#312f30" d="M 170.082031 83.039062 C 169.152344 83.222656 167.050781 85.832031 167.164062 86.660156 C 167.25 87.289062 168.449219 86.605469 169.453125 85.132812 C 169.699219 84.773438 170.871094 82.996094 170.082031 83.039062 " fill-opacity="1" fill-rule="nonzero"/><g clip-path="url(#aa5926c84b)"><path fill="#312f30" d="M 215.566406 266.832031 C 214.011719 266.765625 213.3125 266.757812 212.800781 266.800781 C 212.535156 266.824219 212.523438 266.84375 212.507812 266.871094 C 212.859375 267.074219 216.121094 267.019531 216.59375 266.90625 C 216.566406 266.882812 216.550781 266.875 215.566406 266.832031 " fill-opacity="1" fill-rule="nonzero"/></g><path fill="#312f30" d="M 236.546875 203.917969 C 237.015625 204.265625 238.296875 204.949219 240.125 203.75 C 240.726562 203.355469 241.691406 202.4375 241.445312 200.703125 C 241.121094 198.429688 239.28125 198.117188 237.808594 198.546875 C 234.839844 199.585938 235.144531 202.867188 236.546875 203.917969 " fill-opacity="1" fill-rule="nonzero"/><path fill="#312f30" d="M 231.949219 184.15625 C 233.402344 185.359375 237.464844 184.675781 237.058594 180.78125 C 237.054688 180.746094 236.535156 177.25 233.121094 178.117188 C 229.476562 179.210938 230.726562 183.148438 231.949219 184.15625 " fill-opacity="1" fill-rule="nonzero"/><path fill="#312f30" d="M 226.566406 163.28125 C 226.847656 163.472656 228.332031 164.363281 230.023438 163.195312 C 230.765625 162.683594 231.570312 161.726562 231.210938 160.074219 C 230.75 157.925781 229.203125 156.949219 227.1875 157.527344 C 224.222656 158.589844 224.890625 162.140625 226.566406 163.28125 " fill-opacity="1" fill-rule="nonzero"/><path fill="#312f30" d="M 208.519531 136.160156 C 210.207031 137.144531 213.230469 136.234375 212.578125 133.214844 C 212.242188 131.648438 210.910156 130.277344 209.015625 130.683594 C 206.039062 131.515625 206.816406 135.171875 208.519531 136.160156 " fill-opacity="1" fill-rule="nonzero"/><path fill="#312f30" d="M 156.105469 80.421875 C 156.109375 80.414062 156.097656 80.40625 156.09375 80.398438 C 155.605469 80.414062 151.402344 82.96875 150.816406 83.726562 C 151.070312 83.691406 151.675781 83.355469 153.207031 82.390625 C 155.378906 81.019531 156.03125 80.578125 156.105469 80.421875 " fill-opacity="1" fill-rule="nonzero"/><path fill="#312f30" d="M 221.253906 260.578125 C 221.089844 260.617188 220.816406 260.679688 220.617188 260.816406 C 220.125 261.160156 220.296875 261.878906 221.539062 262.160156 C 222.597656 262.40625 224.050781 262.015625 223.558594 261.21875 C 223.257812 260.730469 222.429688 260.34375 221.253906 260.578125 " fill-opacity="1" fill-rule="nonzero"/><path fill="#312f30" d="M 165.878906 80.910156 C 166.273438 80.769531 166.816406 80.492188 168.097656 79.472656 C 169.144531 78.636719 170.34375 77.632812 170.101562 77.574219 C 170.097656 77.574219 170.097656 77.574219 170.09375 77.574219 C 169.570312 77.601562 165.433594 80.480469 165.878906 80.910156 " fill-opacity="1" fill-rule="nonzero"/><g clip-path="url(#af88e85a29)"><path fill="#312f30" d="M 160.753906 79.925781 C 161.195312 79.808594 161.902344 79.441406 163.464844 78.53125 C 166.09375 76.996094 166.125 76.90625 166.15625 76.820312 C 166.15625 76.820312 166.15625 76.820312 166.152344 76.820312 C 165.765625 76.765625 161.0625 79.320312 160.753906 79.925781 " fill-opacity="1" fill-rule="nonzero"/></g><path fill="#312f30" d="M 224.804688 255.675781 C 224.722656 255.695312 224.644531 255.71875 224.5625 255.742188 C 223.511719 256.066406 222.964844 257.136719 224.300781 257.789062 C 225.476562 258.363281 227.460938 257.667969 227.101562 256.546875 C 227.035156 256.339844 226.609375 255.324219 224.804688 255.675781 " fill-opacity="1" fill-rule="nonzero"/><path fill="#312f30" d="M 179.339844 97.929688 C 179.921875 98.679688 181.667969 98.445312 181.871094 96.082031 C 181.871094 96.058594 181.859375 93.972656 180.472656 94.171875 C 178.886719 94.507812 178.675781 97.078125 179.339844 97.929688 " fill-opacity="1" fill-rule="nonzero"/><path fill="#312f30" d="M 185.480469 104.453125 C 185.492188 104.457031 186.382812 105.195312 187.21875 104.605469 C 187.519531 104.398438 188.316406 103.835938 188.230469 102.523438 C 188.222656 102.425781 188.046875 100.089844 186.230469 100.398438 C 184.453125 100.8125 184.410156 103.546875 185.480469 104.453125 " fill-opacity="1" fill-rule="nonzero"/><path fill="#312f30" d="M 229.777344 249.445312 C 228.007812 249.9375 227.933594 251.320312 228.820312 251.957031 C 229.8125 252.675781 232.257812 252.023438 232.054688 250.46875 C 231.929688 249.523438 231.058594 249.128906 229.777344 249.445312 " fill-opacity="1" fill-rule="nonzero"/><path fill="#312f30" d="M 220.5625 143.011719 C 221.925781 143.875 224.949219 143.300781 224.425781 140.21875 C 224.339844 139.710938 223.382812 137.292969 220.890625 138.011719 C 218.015625 138.992188 219.375 142.253906 220.5625 143.011719 " fill-opacity="1" fill-rule="nonzero"/><path fill="#312f30" d="M 241.308594 217.019531 C 238.398438 217.996094 239.144531 220.496094 239.601562 221.078125 C 240.6875 222.453125 244.027344 221.609375 244.199219 218.859375 C 244.226562 218.4375 243.808594 216.292969 241.308594 217.019531 " fill-opacity="1" fill-rule="nonzero"/><path fill="#312f30" d="M 146.863281 84.941406 C 149.175781 83.25 149.175781 83.25 149.316406 83.125 C 149.332031 83.113281 149.347656 83.09375 149.355469 83.078125 C 148.988281 83.234375 145.664062 85.703125 145.40625 86.011719 C 145.921875 85.695312 146.378906 85.300781 146.863281 84.941406 " fill-opacity="1" fill-rule="nonzero"/><g clip-path="url(#e17eea38a7)"><path fill="#312f30" d="M 165.117188 76.230469 C 164.941406 76.136719 160.710938 78.195312 160.214844 78.742188 C 160.351562 78.78125 160.996094 78.464844 162.496094 77.6875 C 164.589844 76.601562 165.054688 76.34375 165.117188 76.230469 " fill-opacity="1" fill-rule="nonzero"/></g><path fill="#312f30" d="M 221.175781 264.941406 C 221.875 264.847656 222.011719 264.664062 221.609375 264.375 C 221.601562 264.367188 220.722656 263.824219 219.46875 264.046875 C 219.316406 264.074219 219.003906 264.140625 218.90625 264.269531 C 218.664062 264.59375 219.945312 265.117188 221.175781 264.941406 " fill-opacity="1" fill-rule="nonzero"/><path fill="#312f30" d="M 177.53125 89.992188 C 177.683594 89.152344 177.683594 88.171875 176.820312 88.273438 C 175.507812 88.523438 174.988281 91.015625 175.464844 91.632812 C 175.914062 92.210938 177.203125 91.792969 177.53125 89.992188 " fill-opacity="1" fill-rule="nonzero"/><path fill="#312f30" d="M 238.21875 243.050781 C 238.195312 242.425781 237.890625 241.4375 236.101562 241.871094 C 233.484375 242.671875 234.554688 244.484375 234.796875 244.699219 C 235.667969 245.484375 238.277344 244.761719 238.21875 243.050781 " fill-opacity="1" fill-rule="nonzero"/><path fill="#312f30" d="M 171.75 79.242188 C 171.800781 79.191406 171.867188 79.121094 171.917969 79.066406 C 173.125 77.824219 173.050781 77.683594 172.890625 77.6875 C 172.269531 77.785156 169.871094 79.996094 169.835938 80.503906 C 169.820312 80.734375 170.28125 80.734375 171.75 79.242188 " fill-opacity="1" fill-rule="nonzero"/><path fill="#312f30" d="M 193.546875 111.019531 C 194.675781 111.761719 196.824219 111.054688 196.355469 108.8125 C 196.113281 107.644531 195.347656 106.515625 193.929688 106.859375 C 191.773438 107.503906 192.519531 110.339844 193.546875 111.019531 " fill-opacity="1" fill-rule="nonzero"/><path fill="#312f30" d="M 203.238281 117.488281 C 204.589844 118.277344 206.648438 117.300781 206.027344 115.226562 C 205.777344 114.386719 205.101562 113.03125 203.394531 113.421875 C 201.191406 114.03125 202.132812 116.839844 203.238281 117.488281 " fill-opacity="1" fill-rule="nonzero"/><path fill="#312f30" d="M 239.371094 169.992188 C 240.585938 171.097656 243.691406 170.734375 243.421875 167.253906 C 243.347656 166.273438 242.152344 165.472656 242.140625 165.46875 C 241.375 164.992188 240.652344 165.1875 240.265625 165.292969 C 237.59375 166.171875 238.347656 169.058594 239.371094 169.992188 " fill-opacity="1" fill-rule="nonzero"/><path fill="#312f30" d="M 219.503906 266.023438 C 219.394531 266.042969 219.175781 266.082031 219.179688 266.136719 C 219.1875 266.214844 219.699219 266.304688 220.507812 266.3125 C 220.90625 266.316406 221.835938 266.257812 221.882812 266.15625 C 221.855469 266.132812 221.8125 266.109375 221.5 266.058594 C 221.488281 266.058594 220.367188 265.894531 219.503906 266.023438 " fill-opacity="1" fill-rule="nonzero"/><path fill="#312f30" d="M 173.738281 85.476562 C 173.792969 85.628906 173.972656 85.945312 174.460938 85.585938 C 174.734375 85.386719 175.132812 85.027344 175.464844 84.203125 C 175.703125 83.613281 176.011719 82.636719 175.398438 82.679688 C 174.582031 82.8125 173.507812 84.824219 173.738281 85.476562 " fill-opacity="1" fill-rule="nonzero"/><path fill="#312f30" d="M 244.652344 190.78125 C 245.324219 191.25 246.652344 191.269531 247.121094 190.945312 C 247.558594 190.644531 248.886719 189.71875 248.613281 188.03125 C 248.394531 186.671875 247.390625 185.550781 245.632812 186.109375 C 242.859375 187.125 243.660156 190.089844 244.652344 190.78125 " fill-opacity="1" fill-rule="nonzero"/><path fill="#312f30" d="M 153.984375 80.644531 C 154.007812 80.632812 156.191406 79.363281 156.4375 79.132812 C 156.4375 79.125 156.4375 79.117188 156.4375 79.109375 C 156.078125 79.171875 152.769531 81.078125 152.332031 81.535156 C 152.332031 81.542969 152.335938 81.550781 152.335938 81.554688 C 152.476562 81.515625 152.875 81.289062 153.984375 80.644531 " fill-opacity="1" fill-rule="nonzero"/><path fill="#312f30" d="M 249.378906 205.722656 C 247.3125 206.398438 247.121094 208.523438 248.097656 209.496094 C 249.179688 210.578125 251.761719 209.421875 251.726562 207.429688 C 251.71875 207.035156 251.574219 205.097656 249.378906 205.722656 " fill-opacity="1" fill-rule="nonzero"/><path fill="#312f30" d="M 245.242188 234.304688 C 245.246094 233.792969 245.074219 232.652344 243.359375 233.101562 C 241.355469 233.703125 241.40625 235.398438 241.964844 235.984375 C 242.816406 236.878906 245.226562 235.902344 245.242188 234.304688 " fill-opacity="1" fill-rule="nonzero"/><path fill="#312f30" d="M 233.386719 149.554688 C 234.792969 150.445312 237.226562 149.355469 236.613281 147.152344 C 236.457031 146.582031 235.777344 144.769531 233.695312 145.347656 C 231.347656 146.125 232.226562 148.820312 233.386719 149.554688 " fill-opacity="1" fill-rule="nonzero"/><path fill="#312f30" d="M 214.222656 123.785156 C 215.238281 124.425781 217.441406 124.023438 216.910156 121.789062 C 216.902344 121.765625 216.277344 119.539062 214.289062 120.121094 C 212.101562 120.867188 213.441406 123.289062 214.222656 123.785156 " fill-opacity="1" fill-rule="nonzero"/><path fill="#312f30" d="M 175.683594 78.867188 C 175.777344 78.738281 176.59375 77.621094 176.195312 77.621094 C 175.609375 77.742188 174.375 79.421875 174.398438 79.792969 C 174.398438 79.800781 174.570312 80.375 175.683594 78.867188 " fill-opacity="1" fill-rule="nonzero"/><path fill="#312f30" d="M 228.566406 262.441406 C 228.503906 262.457031 228.441406 262.472656 228.378906 262.492188 C 227.820312 262.679688 227.960938 262.96875 228.230469 263.105469 C 228.675781 263.328125 229.765625 263.144531 229.609375 262.671875 C 229.609375 262.667969 229.375 262.277344 228.566406 262.441406 " fill-opacity="1" fill-rule="nonzero"/><path fill="#312f30" d="M 251.152344 223.320312 C 250.085938 223.710938 249.335938 225.027344 250.027344 225.84375 C 250.730469 226.671875 252.632812 225.898438 252.769531 224.410156 C 252.875 223.273438 252.03125 223.042969 251.152344 223.320312 " fill-opacity="1" fill-rule="nonzero"/><path fill="#312f30" d="M 226.4375 129.980469 C 227.722656 130.617188 229.167969 129.609375 228.566406 128.050781 C 228.171875 127.039062 227.273438 126.558594 226.320312 126.863281 C 224.589844 127.511719 225.5 129.519531 226.4375 129.980469 " fill-opacity="1" fill-rule="nonzero"/><path fill="#312f30" d="M 232.242188 258.488281 C 231.417969 258.695312 231.289062 259.210938 231.558594 259.476562 C 232.03125 259.933594 233.339844 259.527344 233.304688 258.933594 C 233.292969 258.683594 233.054688 258.308594 232.242188 258.488281 " fill-opacity="1" fill-rule="nonzero"/><path fill="#312f30" d="M 252.519531 176.601562 C 253.324219 177.203125 255.226562 176.519531 254.949219 174.78125 C 254.808594 173.910156 254.355469 172.964844 252.996094 173.386719 C 251.222656 174.015625 251.757812 176.039062 252.519531 176.601562 " fill-opacity="1" fill-rule="nonzero"/><path fill="#312f30" d="M 257.335938 193.78125 C 255.632812 194.386719 256.027344 196.242188 256.605469 196.660156 C 256.613281 196.664062 257.351562 197.160156 258.261719 196.488281 C 258.464844 196.339844 259.085938 195.882812 258.988281 194.90625 C 258.929688 194.3125 258.636719 193.375 257.335938 193.78125 " fill-opacity="1" fill-rule="nonzero"/><path fill="#312f30" d="M 237.351562 253.144531 C 236.085938 253.523438 236.578125 254.375 236.585938 254.382812 C 236.914062 254.792969 238.3125 254.480469 238.390625 253.652344 C 238.414062 253.410156 238.355469 252.878906 237.351562 253.144531 " fill-opacity="1" fill-rule="nonzero"/><path fill="#312f30" d="M 198.222656 100.660156 C 198.785156 100.980469 199.960938 100.65625 199.566406 99.4375 C 199.445312 99.046875 199.054688 98.167969 198.152344 98.40625 C 196.929688 98.800781 197.683594 100.351562 198.222656 100.660156 " fill-opacity="1" fill-rule="nonzero"/><path fill="#312f30" d="M 227.550781 264.9375 C 227.445312 264.882812 227.140625 264.777344 226.605469 264.886719 C 226.519531 264.90625 226.339844 264.945312 226.308594 265.003906 C 226.226562 265.15625 227.042969 265.246094 227.507812 265.089844 C 227.652344 265.039062 227.664062 264.992188 227.550781 264.9375 " fill-opacity="1" fill-rule="nonzero"/><path fill="#312f30" d="M 190.296875 94.867188 C 190.703125 95.207031 191.816406 95.171875 191.65625 93.835938 C 191.65625 93.824219 191.4375 92.515625 190.453125 92.75 C 189.492188 93.039062 189.835938 94.472656 190.296875 94.867188 " fill-opacity="1" fill-rule="nonzero"/><path fill="#312f30" d="M 181.628906 83.113281 C 181.679688 82.804688 181.742188 82.09375 181.261719 82.160156 C 180.648438 82.292969 180.503906 83.546875 180.742188 83.824219 C 180.960938 84.082031 181.5 83.921875 181.628906 83.113281 " fill-opacity="1" fill-rule="nonzero"/><path fill="#312f30" d="M 184.472656 89.273438 C 184.59375 89.375 184.917969 89.574219 185.296875 89.234375 C 185.457031 89.089844 185.640625 88.804688 185.597656 88.257812 C 185.574219 87.996094 185.457031 87.148438 184.789062 87.292969 C 183.925781 87.535156 184.09375 88.953125 184.472656 89.273438 " fill-opacity="1" fill-rule="nonzero"/><path fill="#312f30" d="M 246.5625 155.871094 C 247.253906 156.28125 249.125 155.960938 248.710938 154.050781 C 248.707031 154.035156 248.28125 152.410156 246.757812 152.875 C 245.023438 153.492188 245.847656 155.449219 246.5625 155.871094 " fill-opacity="1" fill-rule="nonzero"/><path fill="#312f30" d="M 207.882812 106.371094 C 208.546875 106.617188 208.722656 106.421875 208.945312 106.175781 C 209.058594 106.054688 209.289062 105.703125 209.035156 105.09375 C 208.753906 104.425781 208.144531 104.082031 207.550781 104.25 C 207.523438 104.261719 207.484375 104.273438 207.457031 104.285156 C 206.667969 104.617188 206.953125 106.019531 207.882812 106.371094 " fill-opacity="1" fill-rule="nonzero"/><path fill="#312f30" d="M 243.84375 246.34375 C 242.957031 246.613281 242.683594 247.339844 242.933594 247.703125 C 243.167969 248.046875 243.871094 247.875 243.878906 247.871094 C 243.882812 247.867188 244.625 247.476562 244.726562 246.976562 C 244.777344 246.738281 244.722656 246.113281 243.84375 246.34375 " fill-opacity="1" fill-rule="nonzero"/><path fill="#312f30" d="M 251.207031 238.34375 C 250.304688 238.660156 250.367188 239.425781 250.484375 239.589844 C 250.738281 239.925781 251.757812 239.613281 251.910156 238.894531 C 251.941406 238.753906 252.046875 238.074219 251.207031 238.34375 " fill-opacity="1" fill-rule="nonzero"/><g clip-path="url(#6131cf1cd4)"><path fill="#312f30" d="M 259.375 212.601562 C 258.460938 212.929688 258.269531 214.019531 258.679688 214.46875 C 259.132812 214.96875 260.429688 214.332031 260.472656 213.378906 C 260.488281 212.953125 260.371094 212.28125 259.375 212.601562 " fill-opacity="1" fill-rule="nonzero"/></g><path fill="#312f30" d="M 239.253906 135.914062 C 239.910156 136.238281 241.101562 135.722656 240.667969 134.617188 C 240.5 134.1875 240.09375 133.507812 239.222656 133.777344 C 237.945312 134.230469 238.691406 135.632812 239.253906 135.914062 " fill-opacity="1" fill-rule="nonzero"/><path fill="#312f30" d="M 218.804688 111.898438 C 218.851562 111.917969 219.273438 112.070312 219.554688 111.800781 C 219.785156 111.582031 219.839844 111.320312 219.71875 111.027344 C 219.714844 111.015625 219.339844 110.136719 218.578125 110.339844 C 218.542969 110.351562 218.503906 110.367188 218.46875 110.382812 C 217.753906 110.71875 218.269531 111.6875 218.804688 111.898438 " fill-opacity="1" fill-rule="nonzero"/><path fill="#ffffff" d="M 121.035156 101.988281 L 253.964844 234.910156 " fill-opacity="1" fill-rule="nonzero"/><g clip-path="url(#f8d15d3ac9)"><path fill="#ffffff" d="M 253.964844 237.554688 C 253.289062 237.554688 252.613281 237.292969 252.097656 236.777344 L 119.160156 103.859375 C 118.128906 102.828125 118.128906 101.152344 119.160156 100.117188 C 120.195312 99.085938 121.871094 99.085938 122.902344 100.117188 L 255.839844 233.035156 C 256.871094 234.070312 256.871094 235.746094 255.839844 236.777344 C 255.320312 237.292969 254.644531 237.554688 253.964844 237.554688 Z M 253.964844 237.554688 " fill-opacity="1" fill-rule="nonzero"/></g><g clip-path="url(#d47ec1c982)"><path fill="#ffffff" d="M 121.035156 237.554688 C 121.03125 237.554688 121.03125 237.554688 121.035156 237.554688 C 119.570312 237.554688 118.386719 236.367188 118.386719 234.90625 L 118.414062 146.078125 C 118.414062 144.550781 119.328125 143.1875 120.742188 142.601562 C 122.152344 142.011719 123.761719 142.335938 124.84375 143.414062 L 167.867188 186.078125 C 168.90625 187.105469 168.914062 188.78125 167.882812 189.816406 C 166.855469 190.855469 165.179688 190.863281 164.140625 189.832031 L 123.703125 149.738281 L 123.679688 234.90625 C 123.679688 236.371094 122.492188 237.554688 121.035156 237.554688 Z M 121.109375 147.164062 C 121.109375 147.167969 121.113281 147.171875 121.117188 147.171875 Z M 121.109375 147.164062 " fill-opacity="1" fill-rule="nonzero"/></g><g clip-path="url(#fe65705304)"><path fill="#ffffff" d="M 253.964844 190.601562 C 252.503906 190.601562 251.320312 189.417969 251.320312 187.957031 L 251.292969 106.757812 L 205.566406 152.140625 C 204.53125 153.171875 202.855469 153.164062 201.824219 152.128906 C 200.796875 151.09375 200.800781 149.417969 201.839844 148.390625 L 250.164062 100.425781 C 251.238281 99.351562 252.847656 99.03125 254.257812 99.617188 C 255.671875 100.199219 256.585938 101.566406 256.585938 103.09375 L 256.613281 187.957031 C 256.613281 189.417969 255.429688 190.601562 253.964844 190.601562 Z M 253.898438 104.171875 L 253.890625 104.179688 C 253.894531 104.179688 253.894531 104.175781 253.898438 104.171875 Z M 253.898438 104.171875 " fill-opacity="1" fill-rule="nonzero"/></g><g fill="#fffbfa" fill-opacity="1"><g transform="translate(142.678091, 260.79845)"><g><path d="M 0.703125 0 L 0.703125 -10.078125 L 4.0625 -10.078125 L 6.859375 -0.359375 L 5.640625 -0.359375 L 8.4375 -10.078125 L 11.8125 -10.078125 L 11.8125 0 L 9.6875 0 L 9.6875 -9.484375 L 10.046875 -9.484375 L 7.328125 0 L 5.09375 0 L 2.390625 -9.390625 L 2.75 -9.390625 L 2.75 0 Z M 0.703125 0 "/></g></g></g><g fill="#fffbfa" fill-opacity="1"><g transform="translate(166.387364, 260.79845)"><g><path d="M 0.34375 0 L 3.953125 -10.078125 L 5.796875 -10.078125 L 2.484375 0 Z M 7.734375 0 L 4.421875 -10.078125 L 6.359375 -10.078125 L 9.96875 0 Z M 2.234375 -3.90625 L 7.890625 -3.90625 L 7.890625 -2.21875 L 2.234375 -2.21875 Z M 2.234375 -3.90625 "/></g></g></g><g fill="#fffbfa" fill-opacity="1"><g transform="translate(187.885868, 260.79845)"><g><path d="M 4.84375 0.125 C 3.539062 0.125 2.492188 -0.164062 1.703125 -0.75 C 0.921875 -1.332031 0.46875 -2.15625 0.34375 -3.21875 L 2.40625 -3.21875 C 2.46875 -2.675781 2.726562 -2.25 3.1875 -1.9375 C 3.644531 -1.625 4.226562 -1.46875 4.9375 -1.46875 C 5.519531 -1.46875 5.96875 -1.570312 6.28125 -1.78125 C 6.59375 -1.988281 6.75 -2.265625 6.75 -2.609375 C 6.75 -2.929688 6.65625 -3.191406 6.46875 -3.390625 C 6.28125 -3.597656 5.957031 -3.757812 5.5 -3.875 L 3.625 -4.390625 C 2.664062 -4.660156 1.960938 -5.03125 1.515625 -5.5 C 1.078125 -5.976562 0.859375 -6.570312 0.859375 -7.28125 C 0.859375 -7.882812 1.015625 -8.40625 1.328125 -8.84375 C 1.640625 -9.289062 2.078125 -9.632812 2.640625 -9.875 C 3.210938 -10.113281 3.878906 -10.234375 4.640625 -10.234375 C 5.816406 -10.234375 6.753906 -9.953125 7.453125 -9.390625 C 8.160156 -8.835938 8.5625 -8.109375 8.65625 -7.203125 L 6.578125 -7.203125 C 6.484375 -7.691406 6.253906 -8.050781 5.890625 -8.28125 C 5.535156 -8.519531 5.078125 -8.640625 4.515625 -8.640625 C 4.035156 -8.640625 3.648438 -8.546875 3.359375 -8.359375 C 3.066406 -8.171875 2.921875 -7.921875 2.921875 -7.609375 C 2.921875 -7.359375 3 -7.132812 3.15625 -6.9375 C 3.320312 -6.738281 3.65625 -6.566406 4.15625 -6.421875 L 6.03125 -5.90625 C 7.019531 -5.632812 7.726562 -5.265625 8.15625 -4.796875 C 8.59375 -4.328125 8.8125 -3.734375 8.8125 -3.015625 C 8.8125 -2.003906 8.460938 -1.226562 7.765625 -0.6875 C 7.066406 -0.144531 6.09375 0.125 4.84375 0.125 Z M 4.84375 0.125 "/></g></g></g><g fill="#fffbfa" fill-opacity="1"><g transform="translate(208.209028, 260.79845)"><g><path d="M 0.640625 0 L 0.640625 -10.078125 L 5.15625 -10.078125 C 5.882812 -10.078125 6.519531 -9.953125 7.0625 -9.703125 C 7.601562 -9.460938 8.019531 -9.117188 8.3125 -8.671875 C 8.613281 -8.222656 8.765625 -7.695312 8.765625 -7.09375 C 8.765625 -6.507812 8.613281 -5.992188 8.3125 -5.546875 C 8.019531 -5.109375 7.601562 -4.765625 7.0625 -4.515625 C 6.519531 -4.265625 5.882812 -4.140625 5.15625 -4.140625 L 2.359375 -4.140625 L 2.359375 -5.71875 L 5.09375 -5.71875 C 5.601562 -5.71875 5.992188 -5.835938 6.265625 -6.078125 C 6.546875 -6.316406 6.6875 -6.648438 6.6875 -7.078125 C 6.6875 -7.515625 6.550781 -7.847656 6.28125 -8.078125 C 6.007812 -8.304688 5.613281 -8.421875 5.09375 -8.421875 L 2.796875 -8.421875 L 2.796875 0 Z M 6.328125 0 L 2.28125 -5.234375 L 4.5625 -5.234375 L 9.234375 0 Z M 6.328125 0 "/></g></g></g><g fill="#fffbfa" fill-opacity="1"><g transform="translate(228.756058, 260.79845)"><g><path d="M 0.703125 0 L 0.703125 -10.078125 L 2.859375 -10.078125 L 2.859375 0 Z M 0.703125 0 "/></g></g></g><g transform="matrix(1, 0, 0, 1, 149, 266)"><g clip-path="url(#a43643b1f4)"><g fill="#fffbfa" fill-opacity="1"><g transform="translate(1.107525, 8.029634)"><g><path d="M 1.046875 0 L 0.65625 0 C 0.5625 0 0.515625 -0.046875 0.515625 -0.140625 L 0.515625 -5.109375 C 0.515625 -5.203125 0.5625 -5.25 0.65625 -5.25 L 2.046875 -5.25 C 2.753906 -5.25 3.273438 -5.09375 3.609375 -4.78125 C 3.941406 -4.476562 4.109375 -4.035156 4.109375 -3.453125 C 4.109375 -2.859375 3.9375 -2.40625 3.59375 -2.09375 C 3.257812 -1.789062 2.757812 -1.640625 2.09375 -1.640625 L 1.1875 -1.640625 L 1.1875 -0.140625 C 1.1875 -0.046875 1.140625 0 1.046875 0 Z M 1.1875 -4.625 L 1.1875 -2.265625 L 2 -2.265625 C 2.070312 -2.265625 2.15625 -2.265625 2.25 -2.265625 C 2.351562 -2.273438 2.457031 -2.289062 2.5625 -2.3125 C 2.675781 -2.332031 2.785156 -2.363281 2.890625 -2.40625 C 2.992188 -2.457031 3.085938 -2.523438 3.171875 -2.609375 C 3.253906 -2.703125 3.320312 -2.816406 3.375 -2.953125 C 3.425781 -3.085938 3.453125 -3.253906 3.453125 -3.453125 C 3.453125 -3.640625 3.425781 -3.800781 3.375 -3.9375 C 3.320312 -4.070312 3.253906 -4.179688 3.171875 -4.265625 C 3.085938 -4.359375 2.992188 -4.425781 2.890625 -4.46875 C 2.785156 -4.519531 2.675781 -4.554688 2.5625 -4.578125 C 2.457031 -4.597656 2.351562 -4.609375 2.25 -4.609375 C 2.15625 -4.617188 2.070312 -4.625 2 -4.625 Z M 1.1875 -4.625 "/></g></g></g><g fill="#fffbfa" fill-opacity="1"><g transform="translate(8.262166, 8.029634)"><g><path d="M 3.1875 -1.828125 L 4.046875 -0.171875 C 4.066406 -0.117188 4.066406 -0.078125 4.046875 -0.046875 C 4.023438 -0.015625 3.988281 0 3.9375 0 L 3.484375 0 C 3.410156 0 3.351562 -0.0351562 3.3125 -0.109375 L 2.53125 -1.671875 C 2.457031 -1.660156 2.382812 -1.648438 2.3125 -1.640625 C 2.238281 -1.640625 2.164062 -1.640625 2.09375 -1.640625 L 1.1875 -1.640625 L 1.1875 -0.140625 C 1.1875 -0.046875 1.140625 0 1.046875 0 L 0.65625 0 C 0.5625 0 0.515625 -0.046875 0.515625 -0.140625 L 0.515625 -5.109375 C 0.515625 -5.203125 0.5625 -5.25 0.65625 -5.25 L 2.046875 -5.25 C 2.753906 -5.25 3.273438 -5.09375 3.609375 -4.78125 C 3.941406 -4.476562 4.109375 -4.035156 4.109375 -3.453125 C 4.109375 -2.640625 3.800781 -2.097656 3.1875 -1.828125 Z M 1.1875 -2.265625 L 2 -2.265625 C 2.070312 -2.265625 2.15625 -2.265625 2.25 -2.265625 C 2.351562 -2.273438 2.457031 -2.289062 2.5625 -2.3125 C 2.675781 -2.332031 2.785156 -2.363281 2.890625 -2.40625 C 2.992188 -2.457031 3.085938 -2.523438 3.171875 -2.609375 C 3.253906 -2.703125 3.320312 -2.816406 3.375 -2.953125 C 3.425781 -3.085938 3.453125 -3.253906 3.453125 -3.453125 C 3.453125 -3.640625 3.425781 -3.800781 3.375 -3.9375 C 3.320312 -4.070312 3.253906 -4.179688 3.171875 -4.265625 C 3.085938 -4.359375 2.992188 -4.425781 2.890625 -4.46875 C 2.785156 -4.519531 2.675781 -4.554688 2.5625 -4.578125 C 2.457031 -4.597656 2.351562 -4.609375 2.25 -4.609375 C 2.15625 -4.617188 2.070312 -4.625 2 -4.625 L 1.1875 -4.625 Z M 1.1875 -2.265625 "/></g></g></g><g fill="#fffbfa" fill-opacity="1"><g transform="translate(15.522767, 8.029634)"><g><path d="M 3.03125 0.109375 C 2.726562 0.109375 2.4375 0.0664062 2.15625 -0.015625 C 1.882812 -0.0976562 1.632812 -0.21875 1.40625 -0.375 C 1.175781 -0.539062 0.976562 -0.738281 0.8125 -0.96875 C 0.65625 -1.195312 0.53125 -1.445312 0.4375 -1.71875 C 0.34375 -2 0.296875 -2.300781 0.296875 -2.625 C 0.296875 -2.945312 0.34375 -3.242188 0.4375 -3.515625 C 0.53125 -3.796875 0.65625 -4.050781 0.8125 -4.28125 C 0.976562 -4.507812 1.175781 -4.703125 1.40625 -4.859375 C 1.632812 -5.015625 1.882812 -5.132812 2.15625 -5.21875 C 2.4375 -5.3125 2.726562 -5.359375 3.03125 -5.359375 C 3.332031 -5.359375 3.617188 -5.3125 3.890625 -5.21875 C 4.171875 -5.132812 4.421875 -5.015625 4.640625 -4.859375 C 4.867188 -4.703125 5.066406 -4.507812 5.234375 -4.28125 C 5.398438 -4.050781 5.53125 -3.796875 5.625 -3.515625 C 5.71875 -3.242188 5.765625 -2.945312 5.765625 -2.625 C 5.765625 -2.300781 5.71875 -2 5.625 -1.71875 C 5.53125 -1.445312 5.398438 -1.195312 5.234375 -0.96875 C 5.066406 -0.738281 4.867188 -0.539062 4.640625 -0.375 C 4.421875 -0.21875 4.171875 -0.0976562 3.890625 -0.015625 C 3.617188 0.0664062 3.332031 0.109375 3.03125 0.109375 Z M 3.03125 -0.53125 C 3.3125 -0.53125 3.578125 -0.582031 3.828125 -0.6875 C 4.078125 -0.789062 4.296875 -0.929688 4.484375 -1.109375 C 4.671875 -1.296875 4.816406 -1.515625 4.921875 -1.765625 C 5.035156 -2.023438 5.09375 -2.3125 5.09375 -2.625 C 5.09375 -2.9375 5.035156 -3.21875 4.921875 -3.46875 C 4.816406 -3.726562 4.671875 -3.945312 4.484375 -4.125 C 4.296875 -4.3125 4.078125 -4.457031 3.828125 -4.5625 C 3.578125 -4.664062 3.3125 -4.71875 3.03125 -4.71875 C 2.738281 -4.71875 2.46875 -4.664062 2.21875 -4.5625 C 1.976562 -4.457031 1.757812 -4.3125 1.5625 -4.125 C 1.375 -3.945312 1.226562 -3.726562 1.125 -3.46875 C 1.019531 -3.21875 0.96875 -2.9375 0.96875 -2.625 C 0.96875 -2.3125 1.019531 -2.023438 1.125 -1.765625 C 1.226562 -1.515625 1.375 -1.296875 1.5625 -1.109375 C 1.757812 -0.929688 1.976562 -0.789062 2.21875 -0.6875 C 2.46875 -0.582031 2.738281 -0.53125 3.03125 -0.53125 Z M 3.03125 -0.53125 "/></g></g></g><g fill="#fffbfa" fill-opacity="1"><g transform="translate(24.386429, 8.029634)"><g><path d="M 3.03125 0.109375 C 2.726562 0.109375 2.4375 0.0664062 2.15625 -0.015625 C 1.882812 -0.0976562 1.632812 -0.21875 1.40625 -0.375 C 1.175781 -0.539062 0.976562 -0.738281 0.8125 -0.96875 C 0.65625 -1.195312 0.53125 -1.445312 0.4375 -1.71875 C 0.34375 -2 0.296875 -2.300781 0.296875 -2.625 C 0.296875 -2.945312 0.34375 -3.242188 0.4375 -3.515625 C 0.53125 -3.796875 0.65625 -4.050781 0.8125 -4.28125 C 0.976562 -4.507812 1.175781 -4.703125 1.40625 -4.859375 C 1.632812 -5.015625 1.882812 -5.132812 2.15625 -5.21875 C 2.4375 -5.3125 2.726562 -5.359375 3.03125 -5.359375 C 3.40625 -5.359375 3.753906 -5.289062 4.078125 -5.15625 C 4.398438 -5.019531 4.679688 -4.835938 4.921875 -4.609375 C 4.992188 -4.546875 4.992188 -4.476562 4.921875 -4.40625 L 4.625 -4.171875 C 4.550781 -4.117188 4.484375 -4.117188 4.421875 -4.171875 C 4.234375 -4.335938 4.019531 -4.46875 3.78125 -4.5625 C 3.550781 -4.664062 3.300781 -4.71875 3.03125 -4.71875 C 2.738281 -4.71875 2.46875 -4.664062 2.21875 -4.5625 C 1.976562 -4.457031 1.757812 -4.3125 1.5625 -4.125 C 1.375 -3.945312 1.226562 -3.726562 1.125 -3.46875 C 1.019531 -3.21875 0.96875 -2.9375 0.96875 -2.625 C 0.96875 -2.3125 1.019531 -2.023438 1.125 -1.765625 C 1.226562 -1.515625 1.375 -1.296875 1.5625 -1.109375 C 1.757812 -0.921875 1.976562 -0.773438 2.21875 -0.671875 C 2.46875 -0.578125 2.738281 -0.53125 3.03125 -0.53125 C 3.289062 -0.53125 3.535156 -0.578125 3.765625 -0.671875 C 4.003906 -0.765625 4.21875 -0.890625 4.40625 -1.046875 L 4.40625 -1.671875 L 3.125 -1.671875 C 3.03125 -1.671875 2.984375 -1.71875 2.984375 -1.8125 L 2.984375 -2.15625 C 2.984375 -2.25 3.03125 -2.296875 3.125 -2.296875 L 4.890625 -2.296875 C 4.984375 -2.296875 5.03125 -2.25 5.03125 -2.15625 L 5.03125 -0.84375 C 5.03125 -0.78125 5.007812 -0.726562 4.96875 -0.6875 C 4.726562 -0.4375 4.441406 -0.238281 4.109375 -0.09375 C 3.773438 0.0390625 3.414062 0.109375 3.03125 0.109375 Z M 3.03125 0.109375 "/></g></g></g><g fill="#fffbfa" fill-opacity="1"><g transform="translate(32.559647, 8.029634)"><g><path d="M 3.1875 -1.828125 L 4.046875 -0.171875 C 4.066406 -0.117188 4.066406 -0.078125 4.046875 -0.046875 C 4.023438 -0.015625 3.988281 0 3.9375 0 L 3.484375 0 C 3.410156 0 3.351562 -0.0351562 3.3125 -0.109375 L 2.53125 -1.671875 C 2.457031 -1.660156 2.382812 -1.648438 2.3125 -1.640625 C 2.238281 -1.640625 2.164062 -1.640625 2.09375 -1.640625 L 1.1875 -1.640625 L 1.1875 -0.140625 C 1.1875 -0.046875 1.140625 0 1.046875 0 L 0.65625 0 C 0.5625 0 0.515625 -0.046875 0.515625 -0.140625 L 0.515625 -5.109375 C 0.515625 -5.203125 0.5625 -5.25 0.65625 -5.25 L 2.046875 -5.25 C 2.753906 -5.25 3.273438 -5.09375 3.609375 -4.78125 C 3.941406 -4.476562 4.109375 -4.035156 4.109375 -3.453125 C 4.109375 -2.640625 3.800781 -2.097656 3.1875 -1.828125 Z M 1.1875 -2.265625 L 2 -2.265625 C 2.070312 -2.265625 2.15625 -2.265625 2.25 -2.265625 C 2.351562 -2.273438 2.457031 -2.289062 2.5625 -2.3125 C 2.675781 -2.332031 2.785156 -2.363281 2.890625 -2.40625 C 2.992188 -2.457031 3.085938 -2.523438 3.171875 -2.609375 C 3.253906 -2.703125 3.320312 -2.816406 3.375 -2.953125 C 3.425781 -3.085938 3.453125 -3.253906 3.453125 -3.453125 C 3.453125 -3.640625 3.425781 -3.800781 3.375 -3.9375 C 3.320312 -4.070312 3.253906 -4.179688 3.171875 -4.265625 C 3.085938 -4.359375 2.992188 -4.425781 2.890625 -4.46875 C 2.785156 -4.519531 2.675781 -4.554688 2.5625 -4.578125 C 2.457031 -4.597656 2.351562 -4.609375 2.25 -4.609375 C 2.15625 -4.617188 2.070312 -4.625 2 -4.625 L 1.1875 -4.625 Z M 1.1875 -2.265625 "/></g></g></g><g fill="#fffbfa" fill-opacity="1"><g transform="translate(39.820247, 8.029634)"><g><path d="M 2.546875 -5.25 L 4.71875 -0.15625 C 4.738281 -0.113281 4.738281 -0.078125 4.71875 -0.046875 C 4.695312 -0.015625 4.660156 0 4.609375 0 L 4.171875 0 C 4.140625 0 4.109375 -0.00390625 4.078125 -0.015625 C 4.046875 -0.0351562 4.023438 -0.0664062 4.015625 -0.109375 L 3.640625 -1.046875 L 1.203125 -1.046875 L 0.8125 -0.109375 C 0.78125 -0.0351562 0.726562 0 0.65625 0 L 0.21875 0 C 0.164062 0 0.128906 -0.015625 0.109375 -0.046875 C 0.0859375 -0.078125 0.0859375 -0.113281 0.109375 -0.15625 L 2.28125 -5.25 C 2.3125 -5.320312 2.351562 -5.359375 2.40625 -5.359375 C 2.46875 -5.359375 2.515625 -5.320312 2.546875 -5.25 Z M 2.421875 -4.015625 L 1.4375 -1.625 L 3.390625 -1.625 Z M 2.421875 -4.015625 "/></g></g></g><g fill="#fffbfa" fill-opacity="1"><g transform="translate(47.453415, 8.029634)"><g><path d="M 1.046875 0 L 0.671875 0 C 0.578125 0 0.53125 -0.046875 0.53125 -0.140625 L 0.53125 -5.140625 C 0.53125 -5.234375 0.546875 -5.296875 0.578125 -5.328125 C 0.609375 -5.367188 0.648438 -5.382812 0.703125 -5.375 C 0.765625 -5.363281 0.820312 -5.320312 0.875 -5.25 L 2.984375 -2.34375 L 5.109375 -5.25 C 5.160156 -5.320312 5.210938 -5.363281 5.265625 -5.375 C 5.316406 -5.382812 5.359375 -5.367188 5.390625 -5.328125 C 5.421875 -5.296875 5.4375 -5.234375 5.4375 -5.140625 L 5.4375 -0.140625 C 5.4375 -0.046875 5.394531 0 5.3125 0 L 4.921875 0 C 4.828125 0 4.78125 -0.046875 4.78125 -0.140625 L 4.78125 -3.71875 L 3.078125 -1.40625 C 3.046875 -1.363281 3.007812 -1.34375 2.96875 -1.34375 C 2.9375 -1.34375 2.910156 -1.363281 2.890625 -1.40625 L 1.1875 -3.71875 L 1.1875 -0.140625 C 1.1875 -0.046875 1.140625 0 1.046875 0 Z M 1.046875 0 "/></g></g></g><g fill="#fffbfa" fill-opacity="1"><g transform="translate(56.22479, 8.029634)"><g><path d="M 1.046875 0 L 0.671875 0 C 0.578125 0 0.53125 -0.046875 0.53125 -0.140625 L 0.53125 -5.140625 C 0.53125 -5.234375 0.546875 -5.296875 0.578125 -5.328125 C 0.609375 -5.367188 0.648438 -5.382812 0.703125 -5.375 C 0.765625 -5.363281 0.820312 -5.320312 0.875 -5.25 L 2.984375 -2.34375 L 5.109375 -5.25 C 5.160156 -5.320312 5.210938 -5.363281 5.265625 -5.375 C 5.316406 -5.382812 5.359375 -5.367188 5.390625 -5.328125 C 5.421875 -5.296875 5.4375 -5.234375 5.4375 -5.140625 L 5.4375 -0.140625 C 5.4375 -0.046875 5.394531 0 5.3125 0 L 4.921875 0 C 4.828125 0 4.78125 -0.046875 4.78125 -0.140625 L 4.78125 -3.71875 L 3.078125 -1.40625 C 3.046875 -1.363281 3.007812 -1.34375 2.96875 -1.34375 C 2.9375 -1.34375 2.910156 -1.363281 2.890625 -1.40625 L 1.1875 -3.71875 L 1.1875 -0.140625 C 1.1875 -0.046875 1.140625 0 1.046875 0 Z M 1.046875 0 "/></g></g></g><g fill="#fffbfa" fill-opacity="1"><g transform="translate(64.996166, 8.029634)"><g><path d="M 3.203125 0 L 0.65625 0 C 0.5625 0 0.515625 -0.046875 0.515625 -0.140625 L 0.515625 -5.109375 C 0.515625 -5.203125 0.5625 -5.25 0.65625 -5.25 L 3.203125 -5.25 C 3.296875 -5.25 3.34375 -5.203125 3.34375 -5.109375 L 3.34375 -4.765625 C 3.34375 -4.671875 3.296875 -4.625 3.203125 -4.625 L 1.1875 -4.625 L 1.1875 -2.296875 L 2.921875 -2.296875 C 3.015625 -2.296875 3.0625 -2.25 3.0625 -2.15625 L 3.0625 -1.8125 C 3.0625 -1.71875 3.015625 -1.671875 2.921875 -1.671875 L 1.1875 -1.671875 L 1.1875 -0.625 L 3.203125 -0.625 C 3.296875 -0.625 3.34375 -0.578125 3.34375 -0.484375 L 3.34375 -0.140625 C 3.34375 -0.046875 3.296875 0 3.203125 0 Z M 3.203125 0 "/></g></g></g><g fill="#fffbfa" fill-opacity="1"><g transform="translate(71.409091, 8.029634)"><g><path d="M 3.1875 -1.828125 L 4.046875 -0.171875 C 4.066406 -0.117188 4.066406 -0.078125 4.046875 -0.046875 C 4.023438 -0.015625 3.988281 0 3.9375 0 L 3.484375 0 C 3.410156 0 3.351562 -0.0351562 3.3125 -0.109375 L 2.53125 -1.671875 C 2.457031 -1.660156 2.382812 -1.648438 2.3125 -1.640625 C 2.238281 -1.640625 2.164062 -1.640625 2.09375 -1.640625 L 1.1875 -1.640625 L 1.1875 -0.140625 C 1.1875 -0.046875 1.140625 0 1.046875 0 L 0.65625 0 C 0.5625 0 0.515625 -0.046875 0.515625 -0.140625 L 0.515625 -5.109375 C 0.515625 -5.203125 0.5625 -5.25 0.65625 -5.25 L 2.046875 -5.25 C 2.753906 -5.25 3.273438 -5.09375 3.609375 -4.78125 C 3.941406 -4.476562 4.109375 -4.035156 4.109375 -3.453125 C 4.109375 -2.640625 3.800781 -2.097656 3.1875 -1.828125 Z M 1.1875 -2.265625 L 2 -2.265625 C 2.070312 -2.265625 2.15625 -2.265625 2.25 -2.265625 C 2.351562 -2.273438 2.457031 -2.289062 2.5625 -2.3125 C 2.675781 -2.332031 2.785156 -2.363281 2.890625 -2.40625 C 2.992188 -2.457031 3.085938 -2.523438 3.171875 -2.609375 C 3.253906 -2.703125 3.320312 -2.816406 3.375 -2.953125 C 3.425781 -3.085938 3.453125 -3.253906 3.453125 -3.453125 C 3.453125 -3.640625 3.425781 -3.800781 3.375 -3.9375 C 3.320312 -4.070312 3.253906 -4.179688 3.171875 -4.265625 C 3.085938 -4.359375 2.992188 -4.425781 2.890625 -4.46875 C 2.785156 -4.519531 2.675781 -4.554688 2.5625 -4.578125 C 2.457031 -4.597656 2.351562 -4.609375 2.25 -4.609375 C 2.15625 -4.617188 2.070312 -4.625 2 -4.625 L 1.1875 -4.625 Z M 1.1875 -2.265625 "/></g></g></g></g></g></svg>