<svg xmlns="http://www.w3.org/2000/svg" xmlns:xlink="http://www.w3.org/1999/xlink" width="500" zoomAndPan="magnify" viewBox="0 0 375 374.999991" height="500" preserveAspectRatio="xMidYMid meet" version="1.0"><defs><g/><clipPath id="458b5fdc95"><path d="M 9 10 L 365.945312 10 L 365.945312 365.492188 L 9 365.492188 Z M 9 10 " clip-rule="nonzero"/></clipPath><clipPath id="c6017413a5"><path d="M 9 120 L 139 120 L 139 365.492188 L 9 365.492188 Z M 9 120 " clip-rule="nonzero"/></clipPath><clipPath id="7d7e8d7b2a"><path d="M 222 9.242188 L 365.945312 9.242188 L 365.945312 245 L 222 245 Z M 222 9.242188 " clip-rule="nonzero"/></clipPath><clipPath id="3c80ab0401"><rect x="0" width="79" y="0" height="10"/></clipPath></defs><rect x="-37.5" width="450" fill="#ffffff" y="-37.499999" height="449.999989" fill-opacity="1"/><rect x="-37.5" width="450" fill="#ffffff" y="-37.499999" height="449.999989" fill-opacity="1"/><path fill="#000000" d="M 16.429688 16.832031 L 358.460938 358.679688 " fill-opacity="1" fill-rule="nonzero"/><g clip-path="url(#458b5fdc95)"><path fill="#000000" d="M 358.460938 365.480469 C 356.722656 365.480469 354.976562 364.816406 353.648438 363.492188 L 11.613281 21.640625 C 8.957031 18.984375 8.957031 14.675781 11.613281 12.015625 C 14.269531 9.359375 18.578125 9.359375 21.242188 12.015625 L 363.277344 353.867188 C 365.933594 356.519531 365.933594 360.828125 363.277344 363.484375 C 361.949219 364.816406 360.203125 365.480469 358.460938 365.480469 Z M 358.460938 365.480469 " fill-opacity="1" fill-rule="nonzero"/></g><g clip-path="url(#c6017413a5)"><path fill="#000000" d="M 16.429688 365.480469 C 16.421875 365.480469 16.421875 365.480469 16.429688 365.480469 C 12.664062 365.480469 9.621094 362.433594 9.621094 358.675781 L 9.695312 130.21875 C 9.695312 126.292969 12.039062 122.78125 15.675781 121.273438 C 19.304688 119.765625 23.453125 120.59375 26.230469 123.371094 L 136.933594 233.09375 C 139.601562 235.738281 139.625 240.046875 136.972656 242.710938 C 134.328125 245.382812 130.019531 245.398438 127.34375 242.75 L 23.300781 139.632812 L 23.234375 358.675781 C 23.234375 362.4375 20.183594 365.480469 16.429688 365.480469 Z M 16.621094 133.011719 C 16.625 133.019531 16.636719 133.03125 16.644531 133.035156 Z M 16.621094 133.011719 " fill-opacity="1" fill-rule="nonzero"/></g><g clip-path="url(#7d7e8d7b2a)"><path fill="#000000" d="M 358.460938 244.730469 C 354.703125 244.730469 351.65625 241.6875 351.652344 237.929688 L 351.582031 29.097656 L 233.925781 145.816406 C 231.265625 148.464844 226.953125 148.449219 224.304688 145.78125 C 221.652344 143.117188 221.671875 138.808594 224.339844 136.164062 L 348.679688 12.808594 C 351.441406 10.046875 355.585938 9.226562 359.214844 10.726562 C 362.851562 12.230469 365.195312 15.738281 365.195312 19.671875 L 365.269531 237.925781 C 365.269531 241.683594 362.226562 244.726562 358.460938 244.730469 Z M 358.285156 22.445312 L 358.261719 22.464844 C 358.273438 22.460938 358.28125 22.453125 358.285156 22.445312 Z M 358.285156 22.445312 " fill-opacity="1" fill-rule="nonzero"/></g><g fill="#000000" fill-opacity="1"><g transform="translate(142.068717, 299.123623)"><g><path d="M 3.109375 0 L 1.328125 0 C 1.140625 0 1.046875 -0.09375 1.046875 -0.28125 L 1.046875 -10.265625 C 1.046875 -10.441406 1.082031 -10.570312 1.15625 -10.65625 C 1.226562 -10.738281 1.316406 -10.769531 1.421875 -10.75 C 1.523438 -10.726562 1.628906 -10.644531 1.734375 -10.5 L 6.234375 -4.703125 L 10.765625 -10.5 C 10.867188 -10.632812 10.972656 -10.710938 11.078125 -10.734375 C 11.179688 -10.765625 11.265625 -10.738281 11.328125 -10.65625 C 11.398438 -10.570312 11.4375 -10.441406 11.4375 -10.265625 L 11.4375 -0.28125 C 11.4375 -0.09375 11.34375 0 11.15625 0 L 9.390625 0 C 9.203125 0 9.109375 -0.09375 9.109375 -0.28125 L 9.109375 -5.03125 L 6.4375 -1.734375 C 6.300781 -1.566406 6.171875 -1.566406 6.046875 -1.734375 L 3.390625 -5.015625 L 3.390625 -0.28125 C 3.390625 -0.09375 3.296875 0 3.109375 0 Z M 3.109375 0 "/></g></g></g><g fill="#000000" fill-opacity="1"><g transform="translate(165.758088, 299.123623)"><g><path d="M 5.59375 -10.5 L 10.28125 -0.328125 C 10.320312 -0.234375 10.320312 -0.15625 10.28125 -0.09375 C 10.238281 -0.03125 10.164062 0 10.0625 0 L 8.046875 0 C 7.890625 0 7.78125 -0.0703125 7.71875 -0.21875 L 7.265625 -1.375 L 3.234375 -1.375 L 2.765625 -0.21875 C 2.710938 -0.0703125 2.601562 0 2.4375 0 L 0.421875 0 C 0.328125 0 0.257812 -0.03125 0.21875 -0.09375 C 0.175781 -0.15625 0.175781 -0.234375 0.21875 -0.328125 L 4.90625 -10.5 C 4.988281 -10.695312 5.097656 -10.796875 5.234375 -10.796875 C 5.378906 -10.796875 5.5 -10.695312 5.59375 -10.5 Z M 5.25 -6.453125 L 3.953125 -3.21875 L 6.53125 -3.21875 Z M 5.25 -6.453125 "/></g></g></g><g fill="#000000" fill-opacity="1"><g transform="translate(187.45248, 299.123623)"><g><path d="M 4.203125 0.265625 C 3.691406 0.265625 3.160156 0.21875 2.609375 0.125 C 2.066406 0.0390625 1.472656 -0.109375 0.828125 -0.328125 C 0.648438 -0.398438 0.59375 -0.519531 0.65625 -0.6875 L 1.171875 -2.1875 C 1.234375 -2.363281 1.351562 -2.421875 1.53125 -2.359375 C 2.007812 -2.171875 2.476562 -2.023438 2.9375 -1.921875 C 3.394531 -1.828125 3.8125 -1.78125 4.1875 -1.78125 C 4.613281 -1.78125 4.957031 -1.851562 5.21875 -2 C 5.488281 -2.15625 5.625 -2.394531 5.625 -2.71875 C 5.625 -2.914062 5.550781 -3.09375 5.40625 -3.25 C 5.269531 -3.414062 5.078125 -3.570312 4.828125 -3.71875 C 4.585938 -3.863281 4.316406 -4.007812 4.015625 -4.15625 C 3.710938 -4.300781 3.40625 -4.453125 3.09375 -4.609375 C 2.78125 -4.773438 2.484375 -4.953125 2.203125 -5.140625 C 1.921875 -5.335938 1.664062 -5.554688 1.4375 -5.796875 C 1.21875 -6.046875 1.046875 -6.328125 0.921875 -6.640625 C 0.796875 -6.960938 0.734375 -7.332031 0.734375 -7.75 C 0.734375 -8.289062 0.832031 -8.75 1.03125 -9.125 C 1.226562 -9.507812 1.5 -9.820312 1.84375 -10.0625 C 2.1875 -10.3125 2.578125 -10.488281 3.015625 -10.59375 C 3.453125 -10.707031 3.898438 -10.765625 4.359375 -10.765625 C 4.628906 -10.765625 4.925781 -10.742188 5.25 -10.703125 C 5.570312 -10.660156 5.898438 -10.597656 6.234375 -10.515625 C 6.566406 -10.441406 6.890625 -10.351562 7.203125 -10.25 C 7.378906 -10.1875 7.4375 -10.066406 7.375 -9.890625 L 6.9375 -8.46875 C 6.875 -8.289062 6.753906 -8.234375 6.578125 -8.296875 C 6.222656 -8.429688 5.859375 -8.535156 5.484375 -8.609375 C 5.109375 -8.691406 4.757812 -8.734375 4.4375 -8.734375 C 4.195312 -8.734375 3.976562 -8.707031 3.78125 -8.65625 C 3.59375 -8.601562 3.441406 -8.515625 3.328125 -8.390625 C 3.210938 -8.273438 3.15625 -8.117188 3.15625 -7.921875 C 3.15625 -7.722656 3.210938 -7.546875 3.328125 -7.390625 C 3.441406 -7.242188 3.597656 -7.101562 3.796875 -6.96875 C 4.003906 -6.84375 4.242188 -6.71875 4.515625 -6.59375 C 4.785156 -6.46875 5.070312 -6.332031 5.375 -6.1875 C 5.695312 -6.03125 6.015625 -5.851562 6.328125 -5.65625 C 6.640625 -5.457031 6.925781 -5.226562 7.1875 -4.96875 C 7.457031 -4.71875 7.671875 -4.414062 7.828125 -4.0625 C 7.984375 -3.707031 8.0625 -3.296875 8.0625 -2.828125 C 8.0625 -2.367188 7.988281 -1.96875 7.84375 -1.625 C 7.695312 -1.28125 7.5 -0.988281 7.25 -0.75 C 7 -0.507812 6.707031 -0.3125 6.375 -0.15625 C 6.050781 -0.0078125 5.703125 0.09375 5.328125 0.15625 C 4.953125 0.226562 4.578125 0.265625 4.203125 0.265625 Z M 4.203125 0.265625 "/></g></g></g><g fill="#000000" fill-opacity="1"><g transform="translate(207.27487, 299.123623)"><g><path d="M 7.421875 -3.875 L 9.3125 -0.328125 C 9.363281 -0.234375 9.367188 -0.15625 9.328125 -0.09375 C 9.285156 -0.03125 9.210938 0 9.109375 0 L 7.015625 0 C 6.867188 0 6.765625 -0.0703125 6.703125 -0.21875 L 5.03125 -3.5 L 3.4375 -3.5 L 3.4375 -0.28125 C 3.4375 -0.09375 3.34375 0 3.15625 0 L 1.3125 0 C 1.132812 0 1.046875 -0.09375 1.046875 -0.28125 L 1.046875 -10.21875 C 1.046875 -10.40625 1.132812 -10.5 1.3125 -10.5 L 5.234375 -10.5 C 5.972656 -10.5 6.585938 -10.410156 7.078125 -10.234375 C 7.578125 -10.054688 7.972656 -9.8125 8.265625 -9.5 C 8.554688 -9.195312 8.765625 -8.835938 8.890625 -8.421875 C 9.023438 -8.003906 9.09375 -7.550781 9.09375 -7.0625 C 9.09375 -6.289062 8.945312 -5.628906 8.65625 -5.078125 C 8.375 -4.535156 7.960938 -4.132812 7.421875 -3.875 Z M 4.859375 -8.4375 L 3.4375 -8.4375 L 3.4375 -5.5625 L 4.859375 -5.5625 C 4.960938 -5.5625 5.09375 -5.566406 5.25 -5.578125 C 5.40625 -5.585938 5.566406 -5.613281 5.734375 -5.65625 C 5.910156 -5.707031 6.070312 -5.785156 6.21875 -5.890625 C 6.363281 -5.992188 6.484375 -6.140625 6.578125 -6.328125 C 6.671875 -6.515625 6.71875 -6.753906 6.71875 -7.046875 C 6.71875 -7.316406 6.671875 -7.539062 6.578125 -7.71875 C 6.492188 -7.894531 6.382812 -8.03125 6.25 -8.125 C 6.113281 -8.226562 5.960938 -8.300781 5.796875 -8.34375 C 5.628906 -8.382812 5.460938 -8.410156 5.296875 -8.421875 C 5.140625 -8.429688 4.992188 -8.4375 4.859375 -8.4375 Z M 4.859375 -8.4375 "/></g></g></g><g fill="#000000" fill-opacity="1"><g transform="translate(228.443188, 299.123623)"><g><path d="M 3.140625 0 L 1.3125 0 C 1.132812 0 1.046875 -0.09375 1.046875 -0.28125 L 1.046875 -10.21875 C 1.046875 -10.40625 1.132812 -10.5 1.3125 -10.5 L 3.140625 -10.5 C 3.328125 -10.5 3.421875 -10.40625 3.421875 -10.21875 L 3.421875 -0.28125 C 3.421875 -0.09375 3.328125 0 3.140625 0 Z M 3.140625 0 "/></g></g></g><g transform="matrix(1, 0, 0, 1, 149, 308)"><g clip-path="url(#3c80ab0401)"><g fill="#000000" fill-opacity="1"><g transform="translate(1.107525, 7.738069)"><g><path d="M 1.046875 0 L 0.65625 0 C 0.5625 0 0.515625 -0.046875 0.515625 -0.140625 L 0.515625 -5.109375 C 0.515625 -5.203125 0.5625 -5.25 0.65625 -5.25 L 2.046875 -5.25 C 2.753906 -5.25 3.273438 -5.09375 3.609375 -4.78125 C 3.941406 -4.476562 4.109375 -4.035156 4.109375 -3.453125 C 4.109375 -2.859375 3.9375 -2.40625 3.59375 -2.09375 C 3.257812 -1.789062 2.757812 -1.640625 2.09375 -1.640625 L 1.1875 -1.640625 L 1.1875 -0.140625 C 1.1875 -0.046875 1.140625 0 1.046875 0 Z M 1.1875 -4.625 L 1.1875 -2.265625 L 2 -2.265625 C 2.070312 -2.265625 2.15625 -2.265625 2.25 -2.265625 C 2.351562 -2.273438 2.457031 -2.289062 2.5625 -2.3125 C 2.675781 -2.332031 2.785156 -2.363281 2.890625 -2.40625 C 2.992188 -2.457031 3.085938 -2.523438 3.171875 -2.609375 C 3.253906 -2.703125 3.320312 -2.816406 3.375 -2.953125 C 3.425781 -3.085938 3.453125 -3.253906 3.453125 -3.453125 C 3.453125 -3.640625 3.425781 -3.800781 3.375 -3.9375 C 3.320312 -4.070312 3.253906 -4.179688 3.171875 -4.265625 C 3.085938 -4.359375 2.992188 -4.425781 2.890625 -4.46875 C 2.785156 -4.519531 2.675781 -4.554688 2.5625 -4.578125 C 2.457031 -4.597656 2.351562 -4.609375 2.25 -4.609375 C 2.15625 -4.617188 2.070312 -4.625 2 -4.625 Z M 1.1875 -4.625 "/></g></g></g><g fill="#000000" fill-opacity="1"><g transform="translate(8.262166, 7.738069)"><g><path d="M 3.1875 -1.828125 L 4.046875 -0.171875 C 4.066406 -0.117188 4.066406 -0.078125 4.046875 -0.046875 C 4.023438 -0.015625 3.988281 0 3.9375 0 L 3.484375 0 C 3.410156 0 3.351562 -0.0351562 3.3125 -0.109375 L 2.53125 -1.671875 C 2.457031 -1.660156 2.382812 -1.648438 2.3125 -1.640625 C 2.238281 -1.640625 2.164062 -1.640625 2.09375 -1.640625 L 1.1875 -1.640625 L 1.1875 -0.140625 C 1.1875 -0.046875 1.140625 0 1.046875 0 L 0.65625 0 C 0.5625 0 0.515625 -0.046875 0.515625 -0.140625 L 0.515625 -5.109375 C 0.515625 -5.203125 0.5625 -5.25 0.65625 -5.25 L 2.046875 -5.25 C 2.753906 -5.25 3.273438 -5.09375 3.609375 -4.78125 C 3.941406 -4.476562 4.109375 -4.035156 4.109375 -3.453125 C 4.109375 -2.640625 3.800781 -2.097656 3.1875 -1.828125 Z M 1.1875 -2.265625 L 2 -2.265625 C 2.070312 -2.265625 2.15625 -2.265625 2.25 -2.265625 C 2.351562 -2.273438 2.457031 -2.289062 2.5625 -2.3125 C 2.675781 -2.332031 2.785156 -2.363281 2.890625 -2.40625 C 2.992188 -2.457031 3.085938 -2.523438 3.171875 -2.609375 C 3.253906 -2.703125 3.320312 -2.816406 3.375 -2.953125 C 3.425781 -3.085938 3.453125 -3.253906 3.453125 -3.453125 C 3.453125 -3.640625 3.425781 -3.800781 3.375 -3.9375 C 3.320312 -4.070312 3.253906 -4.179688 3.171875 -4.265625 C 3.085938 -4.359375 2.992188 -4.425781 2.890625 -4.46875 C 2.785156 -4.519531 2.675781 -4.554688 2.5625 -4.578125 C 2.457031 -4.597656 2.351562 -4.609375 2.25 -4.609375 C 2.15625 -4.617188 2.070312 -4.625 2 -4.625 L 1.1875 -4.625 Z M 1.1875 -2.265625 "/></g></g></g><g fill="#000000" fill-opacity="1"><g transform="translate(15.522767, 7.738069)"><g><path d="M 3.03125 0.109375 C 2.726562 0.109375 2.4375 0.0664062 2.15625 -0.015625 C 1.882812 -0.0976562 1.632812 -0.21875 1.40625 -0.375 C 1.175781 -0.539062 0.976562 -0.738281 0.8125 -0.96875 C 0.65625 -1.195312 0.53125 -1.445312 0.4375 -1.71875 C 0.34375 -2 0.296875 -2.300781 0.296875 -2.625 C 0.296875 -2.945312 0.34375 -3.242188 0.4375 -3.515625 C 0.53125 -3.796875 0.65625 -4.050781 0.8125 -4.28125 C 0.976562 -4.507812 1.175781 -4.703125 1.40625 -4.859375 C 1.632812 -5.015625 1.882812 -5.132812 2.15625 -5.21875 C 2.4375 -5.3125 2.726562 -5.359375 3.03125 -5.359375 C 3.332031 -5.359375 3.617188 -5.3125 3.890625 -5.21875 C 4.171875 -5.132812 4.421875 -5.015625 4.640625 -4.859375 C 4.867188 -4.703125 5.066406 -4.507812 5.234375 -4.28125 C 5.398438 -4.050781 5.53125 -3.796875 5.625 -3.515625 C 5.71875 -3.242188 5.765625 -2.945312 5.765625 -2.625 C 5.765625 -2.300781 5.71875 -2 5.625 -1.71875 C 5.53125 -1.445312 5.398438 -1.195312 5.234375 -0.96875 C 5.066406 -0.738281 4.867188 -0.539062 4.640625 -0.375 C 4.421875 -0.21875 4.171875 -0.0976562 3.890625 -0.015625 C 3.617188 0.0664062 3.332031 0.109375 3.03125 0.109375 Z M 3.03125 -0.53125 C 3.3125 -0.53125 3.578125 -0.582031 3.828125 -0.6875 C 4.078125 -0.789062 4.296875 -0.929688 4.484375 -1.109375 C 4.671875 -1.296875 4.816406 -1.515625 4.921875 -1.765625 C 5.035156 -2.023438 5.09375 -2.3125 5.09375 -2.625 C 5.09375 -2.9375 5.035156 -3.21875 4.921875 -3.46875 C 4.816406 -3.726562 4.671875 -3.945312 4.484375 -4.125 C 4.296875 -4.3125 4.078125 -4.457031 3.828125 -4.5625 C 3.578125 -4.664062 3.3125 -4.71875 3.03125 -4.71875 C 2.738281 -4.71875 2.46875 -4.664062 2.21875 -4.5625 C 1.976562 -4.457031 1.757812 -4.3125 1.5625 -4.125 C 1.375 -3.945312 1.226562 -3.726562 1.125 -3.46875 C 1.019531 -3.21875 0.96875 -2.9375 0.96875 -2.625 C 0.96875 -2.3125 1.019531 -2.023438 1.125 -1.765625 C 1.226562 -1.515625 1.375 -1.296875 1.5625 -1.109375 C 1.757812 -0.929688 1.976562 -0.789062 2.21875 -0.6875 C 2.46875 -0.582031 2.738281 -0.53125 3.03125 -0.53125 Z M 3.03125 -0.53125 "/></g></g></g><g fill="#000000" fill-opacity="1"><g transform="translate(24.386429, 7.738069)"><g><path d="M 3.03125 0.109375 C 2.726562 0.109375 2.4375 0.0664062 2.15625 -0.015625 C 1.882812 -0.0976562 1.632812 -0.21875 1.40625 -0.375 C 1.175781 -0.539062 0.976562 -0.738281 0.8125 -0.96875 C 0.65625 -1.195312 0.53125 -1.445312 0.4375 -1.71875 C 0.34375 -2 0.296875 -2.300781 0.296875 -2.625 C 0.296875 -2.945312 0.34375 -3.242188 0.4375 -3.515625 C 0.53125 -3.796875 0.65625 -4.050781 0.8125 -4.28125 C 0.976562 -4.507812 1.175781 -4.703125 1.40625 -4.859375 C 1.632812 -5.015625 1.882812 -5.132812 2.15625 -5.21875 C 2.4375 -5.3125 2.726562 -5.359375 3.03125 -5.359375 C 3.40625 -5.359375 3.753906 -5.289062 4.078125 -5.15625 C 4.398438 -5.019531 4.679688 -4.835938 4.921875 -4.609375 C 4.992188 -4.546875 4.992188 -4.476562 4.921875 -4.40625 L 4.625 -4.171875 C 4.550781 -4.117188 4.484375 -4.117188 4.421875 -4.171875 C 4.234375 -4.335938 4.019531 -4.46875 3.78125 -4.5625 C 3.550781 -4.664062 3.300781 -4.71875 3.03125 -4.71875 C 2.738281 -4.71875 2.46875 -4.664062 2.21875 -4.5625 C 1.976562 -4.457031 1.757812 -4.3125 1.5625 -4.125 C 1.375 -3.945312 1.226562 -3.726562 1.125 -3.46875 C 1.019531 -3.21875 0.96875 -2.9375 0.96875 -2.625 C 0.96875 -2.3125 1.019531 -2.023438 1.125 -1.765625 C 1.226562 -1.515625 1.375 -1.296875 1.5625 -1.109375 C 1.757812 -0.921875 1.976562 -0.773438 2.21875 -0.671875 C 2.46875 -0.578125 2.738281 -0.53125 3.03125 -0.53125 C 3.289062 -0.53125 3.535156 -0.578125 3.765625 -0.671875 C 4.003906 -0.765625 4.21875 -0.890625 4.40625 -1.046875 L 4.40625 -1.671875 L 3.125 -1.671875 C 3.03125 -1.671875 2.984375 -1.71875 2.984375 -1.8125 L 2.984375 -2.15625 C 2.984375 -2.25 3.03125 -2.296875 3.125 -2.296875 L 4.890625 -2.296875 C 4.984375 -2.296875 5.03125 -2.25 5.03125 -2.15625 L 5.03125 -0.84375 C 5.03125 -0.78125 5.007812 -0.726562 4.96875 -0.6875 C 4.726562 -0.4375 4.441406 -0.238281 4.109375 -0.09375 C 3.773438 0.0390625 3.414062 0.109375 3.03125 0.109375 Z M 3.03125 0.109375 "/></g></g></g><g fill="#000000" fill-opacity="1"><g transform="translate(32.559647, 7.738069)"><g><path d="M 3.1875 -1.828125 L 4.046875 -0.171875 C 4.066406 -0.117188 4.066406 -0.078125 4.046875 -0.046875 C 4.023438 -0.015625 3.988281 0 3.9375 0 L 3.484375 0 C 3.410156 0 3.351562 -0.0351562 3.3125 -0.109375 L 2.53125 -1.671875 C 2.457031 -1.660156 2.382812 -1.648438 2.3125 -1.640625 C 2.238281 -1.640625 2.164062 -1.640625 2.09375 -1.640625 L 1.1875 -1.640625 L 1.1875 -0.140625 C 1.1875 -0.046875 1.140625 0 1.046875 0 L 0.65625 0 C 0.5625 0 0.515625 -0.046875 0.515625 -0.140625 L 0.515625 -5.109375 C 0.515625 -5.203125 0.5625 -5.25 0.65625 -5.25 L 2.046875 -5.25 C 2.753906 -5.25 3.273438 -5.09375 3.609375 -4.78125 C 3.941406 -4.476562 4.109375 -4.035156 4.109375 -3.453125 C 4.109375 -2.640625 3.800781 -2.097656 3.1875 -1.828125 Z M 1.1875 -2.265625 L 2 -2.265625 C 2.070312 -2.265625 2.15625 -2.265625 2.25 -2.265625 C 2.351562 -2.273438 2.457031 -2.289062 2.5625 -2.3125 C 2.675781 -2.332031 2.785156 -2.363281 2.890625 -2.40625 C 2.992188 -2.457031 3.085938 -2.523438 3.171875 -2.609375 C 3.253906 -2.703125 3.320312 -2.816406 3.375 -2.953125 C 3.425781 -3.085938 3.453125 -3.253906 3.453125 -3.453125 C 3.453125 -3.640625 3.425781 -3.800781 3.375 -3.9375 C 3.320312 -4.070312 3.253906 -4.179688 3.171875 -4.265625 C 3.085938 -4.359375 2.992188 -4.425781 2.890625 -4.46875 C 2.785156 -4.519531 2.675781 -4.554688 2.5625 -4.578125 C 2.457031 -4.597656 2.351562 -4.609375 2.25 -4.609375 C 2.15625 -4.617188 2.070312 -4.625 2 -4.625 L 1.1875 -4.625 Z M 1.1875 -2.265625 "/></g></g></g><g fill="#000000" fill-opacity="1"><g transform="translate(39.820247, 7.738069)"><g><path d="M 2.546875 -5.25 L 4.71875 -0.15625 C 4.738281 -0.113281 4.738281 -0.078125 4.71875 -0.046875 C 4.695312 -0.015625 4.660156 0 4.609375 0 L 4.171875 0 C 4.140625 0 4.109375 -0.00390625 4.078125 -0.015625 C 4.046875 -0.0351562 4.023438 -0.0664062 4.015625 -0.109375 L 3.640625 -1.046875 L 1.203125 -1.046875 L 0.8125 -0.109375 C 0.78125 -0.0351562 0.726562 0 0.65625 0 L 0.21875 0 C 0.164062 0 0.128906 -0.015625 0.109375 -0.046875 C 0.0859375 -0.078125 0.0859375 -0.113281 0.109375 -0.15625 L 2.28125 -5.25 C 2.3125 -5.320312 2.351562 -5.359375 2.40625 -5.359375 C 2.46875 -5.359375 2.515625 -5.320312 2.546875 -5.25 Z M 2.421875 -4.015625 L 1.4375 -1.625 L 3.390625 -1.625 Z M 2.421875 -4.015625 "/></g></g></g><g fill="#000000" fill-opacity="1"><g transform="translate(47.453415, 7.738069)"><g><path d="M 1.046875 0 L 0.671875 0 C 0.578125 0 0.53125 -0.046875 0.53125 -0.140625 L 0.53125 -5.140625 C 0.53125 -5.234375 0.546875 -5.296875 0.578125 -5.328125 C 0.609375 -5.367188 0.648438 -5.382812 0.703125 -5.375 C 0.765625 -5.363281 0.820312 -5.320312 0.875 -5.25 L 2.984375 -2.34375 L 5.109375 -5.25 C 5.160156 -5.320312 5.210938 -5.363281 5.265625 -5.375 C 5.316406 -5.382812 5.359375 -5.367188 5.390625 -5.328125 C 5.421875 -5.296875 5.4375 -5.234375 5.4375 -5.140625 L 5.4375 -0.140625 C 5.4375 -0.046875 5.394531 0 5.3125 0 L 4.921875 0 C 4.828125 0 4.78125 -0.046875 4.78125 -0.140625 L 4.78125 -3.71875 L 3.078125 -1.40625 C 3.046875 -1.363281 3.007812 -1.34375 2.96875 -1.34375 C 2.9375 -1.34375 2.910156 -1.363281 2.890625 -1.40625 L 1.1875 -3.71875 L 1.1875 -0.140625 C 1.1875 -0.046875 1.140625 0 1.046875 0 Z M 1.046875 0 "/></g></g></g><g fill="#000000" fill-opacity="1"><g transform="translate(56.22479, 7.738069)"><g><path d="M 1.046875 0 L 0.671875 0 C 0.578125 0 0.53125 -0.046875 0.53125 -0.140625 L 0.53125 -5.140625 C 0.53125 -5.234375 0.546875 -5.296875 0.578125 -5.328125 C 0.609375 -5.367188 0.648438 -5.382812 0.703125 -5.375 C 0.765625 -5.363281 0.820312 -5.320312 0.875 -5.25 L 2.984375 -2.34375 L 5.109375 -5.25 C 5.160156 -5.320312 5.210938 -5.363281 5.265625 -5.375 C 5.316406 -5.382812 5.359375 -5.367188 5.390625 -5.328125 C 5.421875 -5.296875 5.4375 -5.234375 5.4375 -5.140625 L 5.4375 -0.140625 C 5.4375 -0.046875 5.394531 0 5.3125 0 L 4.921875 0 C 4.828125 0 4.78125 -0.046875 4.78125 -0.140625 L 4.78125 -3.71875 L 3.078125 -1.40625 C 3.046875 -1.363281 3.007812 -1.34375 2.96875 -1.34375 C 2.9375 -1.34375 2.910156 -1.363281 2.890625 -1.40625 L 1.1875 -3.71875 L 1.1875 -0.140625 C 1.1875 -0.046875 1.140625 0 1.046875 0 Z M 1.046875 0 "/></g></g></g><g fill="#000000" fill-opacity="1"><g transform="translate(64.996166, 7.738069)"><g><path d="M 3.203125 0 L 0.65625 0 C 0.5625 0 0.515625 -0.046875 0.515625 -0.140625 L 0.515625 -5.109375 C 0.515625 -5.203125 0.5625 -5.25 0.65625 -5.25 L 3.203125 -5.25 C 3.296875 -5.25 3.34375 -5.203125 3.34375 -5.109375 L 3.34375 -4.765625 C 3.34375 -4.671875 3.296875 -4.625 3.203125 -4.625 L 1.1875 -4.625 L 1.1875 -2.296875 L 2.921875 -2.296875 C 3.015625 -2.296875 3.0625 -2.25 3.0625 -2.15625 L 3.0625 -1.8125 C 3.0625 -1.71875 3.015625 -1.671875 2.921875 -1.671875 L 1.1875 -1.671875 L 1.1875 -0.625 L 3.203125 -0.625 C 3.296875 -0.625 3.34375 -0.578125 3.34375 -0.484375 L 3.34375 -0.140625 C 3.34375 -0.046875 3.296875 0 3.203125 0 Z M 3.203125 0 "/></g></g></g><g fill="#000000" fill-opacity="1"><g transform="translate(71.409091, 7.738069)"><g><path d="M 3.1875 -1.828125 L 4.046875 -0.171875 C 4.066406 -0.117188 4.066406 -0.078125 4.046875 -0.046875 C 4.023438 -0.015625 3.988281 0 3.9375 0 L 3.484375 0 C 3.410156 0 3.351562 -0.0351562 3.3125 -0.109375 L 2.53125 -1.671875 C 2.457031 -1.660156 2.382812 -1.648438 2.3125 -1.640625 C 2.238281 -1.640625 2.164062 -1.640625 2.09375 -1.640625 L 1.1875 -1.640625 L 1.1875 -0.140625 C 1.1875 -0.046875 1.140625 0 1.046875 0 L 0.65625 0 C 0.5625 0 0.515625 -0.046875 0.515625 -0.140625 L 0.515625 -5.109375 C 0.515625 -5.203125 0.5625 -5.25 0.65625 -5.25 L 2.046875 -5.25 C 2.753906 -5.25 3.273438 -5.09375 3.609375 -4.78125 C 3.941406 -4.476562 4.109375 -4.035156 4.109375 -3.453125 C 4.109375 -2.640625 3.800781 -2.097656 3.1875 -1.828125 Z M 1.1875 -2.265625 L 2 -2.265625 C 2.070312 -2.265625 2.15625 -2.265625 2.25 -2.265625 C 2.351562 -2.273438 2.457031 -2.289062 2.5625 -2.3125 C 2.675781 -2.332031 2.785156 -2.363281 2.890625 -2.40625 C 2.992188 -2.457031 3.085938 -2.523438 3.171875 -2.609375 C 3.253906 -2.703125 3.320312 -2.816406 3.375 -2.953125 C 3.425781 -3.085938 3.453125 -3.253906 3.453125 -3.453125 C 3.453125 -3.640625 3.425781 -3.800781 3.375 -3.9375 C 3.320312 -4.070312 3.253906 -4.179688 3.171875 -4.265625 C 3.085938 -4.359375 2.992188 -4.425781 2.890625 -4.46875 C 2.785156 -4.519531 2.675781 -4.554688 2.5625 -4.578125 C 2.457031 -4.597656 2.351562 -4.609375 2.25 -4.609375 C 2.15625 -4.617188 2.070312 -4.625 2 -4.625 L 1.1875 -4.625 Z M 1.1875 -2.265625 "/></g></g></g></g></g></svg>