<svg xmlns="http://www.w3.org/2000/svg" xmlns:xlink="http://www.w3.org/1999/xlink" width="512" zoomAndPan="magnify" viewBox="0 0 384 383.999986" height="512" preserveAspectRatio="xMidYMid meet" version="1.0"><defs><g/><clipPath id="4a1d39253f"><path d="M 9.160156 10 L 375 10 L 375 374.714844 L 9.160156 374.714844 Z M 9.160156 10 " clip-rule="nonzero"/></clipPath><clipPath id="ea23e247d9"><path d="M 9.160156 123 L 143 123 L 143 374.714844 L 9.160156 374.714844 Z M 9.160156 123 " clip-rule="nonzero"/></clipPath><clipPath id="d3ee7d395c"><rect x="0" width="107" y="0" height="20"/></clipPath><clipPath id="9b67bbace8"><rect x="0" width="81" y="0" height="10"/></clipPath></defs><rect x="-38.4" width="460.8" fill="#ffffff" y="-38.399999" height="460.799983" fill-opacity="1"/><rect x="-38.4" width="460.8" fill="#000000" y="-38.399999" height="460.799983" fill-opacity="1"/><path fill="#ffffff" d="M 16.824219 17.242188 L 367.164062 367.546875 " fill-opacity="1" fill-rule="nonzero"/><g clip-path="url(#4a1d39253f)"><path fill="#ffffff" d="M 367.164062 374.515625 C 365.382812 374.515625 363.597656 373.835938 362.238281 372.472656 L 11.890625 22.167969 C 9.171875 19.449219 9.171875 15.035156 11.890625 12.308594 C 14.613281 9.585938 19.027344 9.585938 21.753906 12.308594 L 372.097656 362.613281 C 374.820312 365.332031 374.820312 369.746094 372.097656 372.46875 C 370.738281 373.835938 368.953125 374.515625 367.164062 374.515625 Z M 367.164062 374.515625 " fill-opacity="1" fill-rule="nonzero"/></g><g clip-path="url(#ea23e247d9)"><path fill="#ffffff" d="M 16.824219 374.515625 C 16.820312 374.515625 16.820312 374.515625 16.824219 374.515625 C 12.96875 374.515625 9.851562 371.390625 9.851562 367.539062 L 9.925781 133.433594 C 9.925781 129.410156 12.328125 125.8125 16.054688 124.269531 C 19.769531 122.722656 24.019531 123.570312 26.867188 126.417969 L 140.257812 238.851562 C 142.988281 241.5625 143.011719 245.976562 140.296875 248.707031 C 137.589844 251.445312 133.171875 251.464844 130.433594 248.75 L 23.863281 143.082031 L 23.792969 367.539062 C 23.792969 371.394531 20.671875 374.515625 16.824219 374.515625 Z M 17.023438 136.296875 C 17.027344 136.304688 17.039062 136.316406 17.042969 136.320312 Z M 17.023438 136.296875 " fill-opacity="1" fill-rule="nonzero"/></g><path fill="#ffffff" d="M 367.164062 250.777344 C 363.316406 250.777344 360.195312 247.660156 360.191406 243.808594 L 360.121094 29.8125 L 239.605469 149.417969 C 236.878906 152.132812 232.464844 152.113281 229.75 149.382812 C 227.035156 146.648438 227.050781 142.234375 229.785156 139.523438 L 357.148438 13.121094 C 359.976562 10.289062 364.21875 9.449219 367.9375 10.988281 C 371.660156 12.527344 374.066406 16.121094 374.066406 20.152344 L 374.140625 243.804688 C 374.140625 247.652344 371.019531 250.773438 367.164062 250.777344 Z M 366.988281 22.992188 L 366.964844 23.015625 C 366.976562 23.011719 366.980469 23.003906 366.988281 22.992188 Z M 366.988281 22.992188 " fill-opacity="1" fill-rule="nonzero"/><g transform="matrix(1, 0, 0, 1, 144, 291)"><g clip-path="url(#d3ee7d395c)"><g fill="#fffbfa" fill-opacity="1"><g transform="translate(1.47836, 15.302595)"><g><path d="M 3.1875 0 L 1.359375 0 C 1.171875 0 1.078125 -0.09375 1.078125 -0.28125 L 1.078125 -10.515625 C 1.078125 -10.691406 1.109375 -10.820312 1.171875 -10.90625 C 1.242188 -10.988281 1.332031 -11.019531 1.4375 -11 C 1.550781 -10.976562 1.664062 -10.894531 1.78125 -10.75 L 6.375 -4.8125 L 11.015625 -10.75 C 11.128906 -10.882812 11.238281 -10.960938 11.34375 -10.984375 C 11.445312 -11.015625 11.535156 -10.988281 11.609375 -10.90625 C 11.679688 -10.820312 11.71875 -10.691406 11.71875 -10.515625 L 11.71875 -0.28125 C 11.71875 -0.09375 11.617188 0 11.421875 0 L 9.609375 0 C 9.410156 0 9.3125 -0.09375 9.3125 -0.28125 L 9.3125 -5.15625 L 6.578125 -1.78125 C 6.453125 -1.613281 6.320312 -1.613281 6.1875 -1.78125 L 3.46875 -5.140625 L 3.46875 -0.28125 C 3.46875 -0.09375 3.375 0 3.1875 0 Z M 3.1875 0 "/></g></g></g><g fill="#fffbfa" fill-opacity="1"><g transform="translate(25.736276, 15.302595)"><g><path d="M 5.71875 -10.75 L 10.515625 -0.34375 C 10.554688 -0.238281 10.554688 -0.15625 10.515625 -0.09375 C 10.472656 -0.03125 10.398438 0 10.296875 0 L 8.234375 0 C 8.066406 0 7.957031 -0.0703125 7.90625 -0.21875 L 7.4375 -1.40625 L 3.296875 -1.40625 L 2.828125 -0.21875 C 2.773438 -0.0703125 2.664062 0 2.5 0 L 0.4375 0 C 0.332031 0 0.257812 -0.03125 0.21875 -0.09375 C 0.175781 -0.15625 0.175781 -0.238281 0.21875 -0.34375 L 5.015625 -10.75 C 5.109375 -10.945312 5.222656 -11.046875 5.359375 -11.046875 C 5.503906 -11.046875 5.625 -10.945312 5.71875 -10.75 Z M 5.359375 -6.609375 L 4.046875 -3.296875 L 6.6875 -3.296875 Z M 5.359375 -6.609375 "/></g></g></g><g fill="#fffbfa" fill-opacity="1"><g transform="translate(47.951333, 15.302595)"><g><path d="M 4.296875 0.265625 C 3.773438 0.265625 3.234375 0.21875 2.671875 0.125 C 2.117188 0.0390625 1.515625 -0.109375 0.859375 -0.328125 C 0.671875 -0.398438 0.609375 -0.523438 0.671875 -0.703125 L 1.203125 -2.25 C 1.265625 -2.414062 1.390625 -2.46875 1.578125 -2.40625 C 2.054688 -2.21875 2.53125 -2.070312 3 -1.96875 C 3.476562 -1.863281 3.90625 -1.8125 4.28125 -1.8125 C 4.726562 -1.8125 5.085938 -1.890625 5.359375 -2.046875 C 5.628906 -2.203125 5.765625 -2.445312 5.765625 -2.78125 C 5.765625 -2.976562 5.6875 -3.160156 5.53125 -3.328125 C 5.382812 -3.492188 5.1875 -3.648438 4.9375 -3.796875 C 4.695312 -3.941406 4.421875 -4.085938 4.109375 -4.234375 C 3.804688 -4.390625 3.492188 -4.550781 3.171875 -4.71875 C 2.847656 -4.882812 2.539062 -5.066406 2.25 -5.265625 C 1.957031 -5.460938 1.695312 -5.6875 1.46875 -5.9375 C 1.25 -6.1875 1.070312 -6.472656 0.9375 -6.796875 C 0.8125 -7.128906 0.75 -7.503906 0.75 -7.921875 C 0.75 -8.484375 0.847656 -8.957031 1.046875 -9.34375 C 1.253906 -9.738281 1.53125 -10.054688 1.875 -10.296875 C 2.226562 -10.546875 2.628906 -10.726562 3.078125 -10.84375 C 3.523438 -10.957031 3.988281 -11.015625 4.46875 -11.015625 C 4.75 -11.015625 5.050781 -10.992188 5.375 -10.953125 C 5.707031 -10.910156 6.039062 -10.847656 6.375 -10.765625 C 6.71875 -10.691406 7.050781 -10.597656 7.375 -10.484375 C 7.550781 -10.421875 7.609375 -10.300781 7.546875 -10.125 L 7.09375 -8.65625 C 7.03125 -8.476562 6.910156 -8.421875 6.734375 -8.484375 C 6.367188 -8.628906 5.992188 -8.738281 5.609375 -8.8125 C 5.222656 -8.894531 4.863281 -8.9375 4.53125 -8.9375 C 4.289062 -8.9375 4.070312 -8.90625 3.875 -8.84375 C 3.675781 -8.789062 3.519531 -8.703125 3.40625 -8.578125 C 3.289062 -8.460938 3.234375 -8.300781 3.234375 -8.09375 C 3.234375 -7.90625 3.289062 -7.734375 3.40625 -7.578125 C 3.519531 -7.421875 3.679688 -7.273438 3.890625 -7.140625 C 4.097656 -7.015625 4.335938 -6.882812 4.609375 -6.75 C 4.890625 -6.613281 5.1875 -6.472656 5.5 -6.328125 C 5.820312 -6.171875 6.144531 -5.988281 6.46875 -5.78125 C 6.800781 -5.582031 7.097656 -5.351562 7.359375 -5.09375 C 7.628906 -4.832031 7.84375 -4.519531 8 -4.15625 C 8.164062 -3.789062 8.25 -3.367188 8.25 -2.890625 C 8.25 -2.421875 8.175781 -2.007812 8.03125 -1.65625 C 7.882812 -1.3125 7.679688 -1.015625 7.421875 -0.765625 C 7.160156 -0.523438 6.863281 -0.328125 6.53125 -0.171875 C 6.195312 -0.015625 5.835938 0.09375 5.453125 0.15625 C 5.078125 0.226562 4.691406 0.265625 4.296875 0.265625 Z M 4.296875 0.265625 "/></g></g></g><g fill="#fffbfa" fill-opacity="1"><g transform="translate(68.24946, 15.302595)"><g><path d="M 7.59375 -3.953125 L 9.53125 -0.34375 C 9.582031 -0.238281 9.585938 -0.15625 9.546875 -0.09375 C 9.503906 -0.03125 9.429688 0 9.328125 0 L 7.1875 0 C 7.039062 0 6.929688 -0.0703125 6.859375 -0.21875 L 5.15625 -3.578125 L 3.515625 -3.578125 L 3.515625 -0.28125 C 3.515625 -0.09375 3.421875 0 3.234375 0 L 1.34375 0 C 1.15625 0 1.0625 -0.09375 1.0625 -0.28125 L 1.0625 -10.453125 C 1.0625 -10.648438 1.15625 -10.75 1.34375 -10.75 L 5.359375 -10.75 C 6.109375 -10.75 6.734375 -10.65625 7.234375 -10.46875 C 7.742188 -10.289062 8.148438 -10.039062 8.453125 -9.71875 C 8.753906 -9.40625 8.972656 -9.035156 9.109375 -8.609375 C 9.242188 -8.179688 9.3125 -7.722656 9.3125 -7.234375 C 9.3125 -6.441406 9.160156 -5.765625 8.859375 -5.203125 C 8.566406 -4.648438 8.144531 -4.234375 7.59375 -3.953125 Z M 4.96875 -8.640625 L 3.515625 -8.640625 L 3.515625 -5.6875 L 4.96875 -5.6875 C 5.082031 -5.6875 5.21875 -5.691406 5.375 -5.703125 C 5.53125 -5.710938 5.695312 -5.738281 5.875 -5.78125 C 6.050781 -5.832031 6.210938 -5.910156 6.359375 -6.015625 C 6.515625 -6.128906 6.640625 -6.28125 6.734375 -6.46875 C 6.828125 -6.664062 6.875 -6.910156 6.875 -7.203125 C 6.875 -7.484375 6.828125 -7.710938 6.734375 -7.890625 C 6.648438 -8.078125 6.535156 -8.21875 6.390625 -8.3125 C 6.253906 -8.414062 6.097656 -8.488281 5.921875 -8.53125 C 5.753906 -8.582031 5.585938 -8.613281 5.421875 -8.625 C 5.253906 -8.632812 5.101562 -8.640625 4.96875 -8.640625 Z M 4.96875 -8.640625 "/></g></g></g><g fill="#fffbfa" fill-opacity="1"><g transform="translate(89.925818, 15.302595)"><g><path d="M 3.21875 0 L 1.34375 0 C 1.15625 0 1.0625 -0.09375 1.0625 -0.28125 L 1.0625 -10.453125 C 1.0625 -10.648438 1.15625 -10.75 1.34375 -10.75 L 3.21875 -10.75 C 3.40625 -10.75 3.5 -10.648438 3.5 -10.453125 L 3.5 -0.28125 C 3.5 -0.09375 3.40625 0 3.21875 0 Z M 3.21875 0 "/></g></g></g></g></g><g transform="matrix(1, 0, 0, 1, 153, 316)"><g clip-path="url(#9b67bbace8)"><g fill="#fffbfa" fill-opacity="1"><g transform="translate(0.710113, 7.315753)"><g><path d="M 1.0625 0 L 0.671875 0 C 0.578125 0 0.53125 -0.046875 0.53125 -0.140625 L 0.53125 -5.234375 C 0.53125 -5.328125 0.578125 -5.375 0.671875 -5.375 L 2.09375 -5.375 C 2.820312 -5.375 3.351562 -5.21875 3.6875 -4.90625 C 4.03125 -4.59375 4.203125 -4.132812 4.203125 -3.53125 C 4.203125 -2.925781 4.03125 -2.46875 3.6875 -2.15625 C 3.34375 -1.84375 2.828125 -1.6875 2.140625 -1.6875 L 1.21875 -1.6875 L 1.21875 -0.140625 C 1.21875 -0.046875 1.164062 0 1.0625 0 Z M 1.21875 -4.734375 L 1.21875 -2.328125 L 2.046875 -2.328125 C 2.117188 -2.328125 2.207031 -2.328125 2.3125 -2.328125 C 2.414062 -2.328125 2.519531 -2.335938 2.625 -2.359375 C 2.738281 -2.390625 2.847656 -2.425781 2.953125 -2.46875 C 3.054688 -2.519531 3.148438 -2.585938 3.234375 -2.671875 C 3.328125 -2.765625 3.398438 -2.878906 3.453125 -3.015625 C 3.503906 -3.160156 3.53125 -3.332031 3.53125 -3.53125 C 3.53125 -3.726562 3.503906 -3.894531 3.453125 -4.03125 C 3.398438 -4.175781 3.332031 -4.289062 3.25 -4.375 C 3.164062 -4.46875 3.066406 -4.535156 2.953125 -4.578125 C 2.847656 -4.628906 2.738281 -4.664062 2.625 -4.6875 C 2.519531 -4.707031 2.414062 -4.71875 2.3125 -4.71875 C 2.21875 -4.726562 2.128906 -4.734375 2.046875 -4.734375 Z M 1.21875 -4.734375 "/></g></g></g><g fill="#fffbfa" fill-opacity="1"><g transform="translate(8.036465, 7.315753)"><g><path d="M 3.265625 -1.875 L 4.140625 -0.171875 C 4.160156 -0.117188 4.160156 -0.078125 4.140625 -0.046875 C 4.117188 -0.015625 4.082031 0 4.03125 0 L 3.5625 0 C 3.488281 0 3.4375 -0.0351562 3.40625 -0.109375 L 2.59375 -1.703125 C 2.519531 -1.691406 2.445312 -1.6875 2.375 -1.6875 C 2.300781 -1.6875 2.222656 -1.6875 2.140625 -1.6875 L 1.21875 -1.6875 L 1.21875 -0.140625 C 1.21875 -0.046875 1.164062 0 1.0625 0 L 0.671875 0 C 0.578125 0 0.53125 -0.046875 0.53125 -0.140625 L 0.53125 -5.234375 C 0.53125 -5.328125 0.578125 -5.375 0.671875 -5.375 L 2.09375 -5.375 C 2.820312 -5.375 3.351562 -5.21875 3.6875 -4.90625 C 4.03125 -4.59375 4.203125 -4.132812 4.203125 -3.53125 C 4.203125 -2.707031 3.890625 -2.15625 3.265625 -1.875 Z M 1.21875 -2.328125 L 2.046875 -2.328125 C 2.117188 -2.328125 2.207031 -2.328125 2.3125 -2.328125 C 2.414062 -2.328125 2.519531 -2.335938 2.625 -2.359375 C 2.738281 -2.390625 2.847656 -2.425781 2.953125 -2.46875 C 3.054688 -2.519531 3.148438 -2.585938 3.234375 -2.671875 C 3.328125 -2.765625 3.398438 -2.878906 3.453125 -3.015625 C 3.503906 -3.160156 3.53125 -3.332031 3.53125 -3.53125 C 3.53125 -3.726562 3.503906 -3.894531 3.453125 -4.03125 C 3.398438 -4.175781 3.332031 -4.289062 3.25 -4.375 C 3.164062 -4.46875 3.066406 -4.535156 2.953125 -4.578125 C 2.847656 -4.628906 2.738281 -4.664062 2.625 -4.6875 C 2.519531 -4.707031 2.414062 -4.71875 2.3125 -4.71875 C 2.21875 -4.726562 2.128906 -4.734375 2.046875 -4.734375 L 1.21875 -4.734375 Z M 1.21875 -2.328125 "/></g></g></g><g fill="#fffbfa" fill-opacity="1"><g transform="translate(15.47132, 7.315753)"><g><path d="M 3.109375 0.109375 C 2.796875 0.109375 2.5 0.0664062 2.21875 -0.015625 C 1.9375 -0.109375 1.675781 -0.234375 1.4375 -0.390625 C 1.207031 -0.554688 1.003906 -0.753906 0.828125 -0.984375 C 0.660156 -1.222656 0.53125 -1.484375 0.4375 -1.765625 C 0.34375 -2.054688 0.296875 -2.363281 0.296875 -2.6875 C 0.296875 -3.019531 0.34375 -3.328125 0.4375 -3.609375 C 0.53125 -3.898438 0.660156 -4.160156 0.828125 -4.390625 C 1.003906 -4.617188 1.207031 -4.8125 1.4375 -4.96875 C 1.675781 -5.132812 1.9375 -5.257812 2.21875 -5.34375 C 2.5 -5.4375 2.796875 -5.484375 3.109375 -5.484375 C 3.410156 -5.484375 3.703125 -5.4375 3.984375 -5.34375 C 4.265625 -5.257812 4.519531 -5.132812 4.75 -4.96875 C 4.988281 -4.8125 5.191406 -4.617188 5.359375 -4.390625 C 5.535156 -4.160156 5.671875 -3.898438 5.765625 -3.609375 C 5.859375 -3.328125 5.90625 -3.019531 5.90625 -2.6875 C 5.90625 -2.363281 5.859375 -2.054688 5.765625 -1.765625 C 5.671875 -1.484375 5.535156 -1.222656 5.359375 -0.984375 C 5.191406 -0.753906 4.988281 -0.554688 4.75 -0.390625 C 4.519531 -0.234375 4.265625 -0.109375 3.984375 -0.015625 C 3.710938 0.0664062 3.421875 0.109375 3.109375 0.109375 Z M 3.109375 -0.546875 C 3.398438 -0.546875 3.671875 -0.597656 3.921875 -0.703125 C 4.171875 -0.804688 4.394531 -0.953125 4.59375 -1.140625 C 4.789062 -1.328125 4.941406 -1.550781 5.046875 -1.8125 C 5.160156 -2.082031 5.21875 -2.375 5.21875 -2.6875 C 5.21875 -3.007812 5.160156 -3.300781 5.046875 -3.5625 C 4.941406 -3.820312 4.789062 -4.046875 4.59375 -4.234375 C 4.394531 -4.421875 4.171875 -4.566406 3.921875 -4.671875 C 3.671875 -4.773438 3.398438 -4.828125 3.109375 -4.828125 C 2.816406 -4.828125 2.539062 -4.773438 2.28125 -4.671875 C 2.019531 -4.566406 1.789062 -4.421875 1.59375 -4.234375 C 1.40625 -4.046875 1.253906 -3.820312 1.140625 -3.5625 C 1.035156 -3.300781 0.984375 -3.007812 0.984375 -2.6875 C 0.984375 -2.375 1.035156 -2.085938 1.140625 -1.828125 C 1.253906 -1.566406 1.410156 -1.335938 1.609375 -1.140625 C 1.804688 -0.953125 2.03125 -0.804688 2.28125 -0.703125 C 2.539062 -0.597656 2.816406 -0.546875 3.109375 -0.546875 Z M 3.109375 -0.546875 "/></g></g></g><g fill="#fffbfa" fill-opacity="1"><g transform="translate(24.54771, 7.315753)"><g><path d="M 3.109375 0.109375 C 2.796875 0.109375 2.5 0.0664062 2.21875 -0.015625 C 1.9375 -0.109375 1.675781 -0.234375 1.4375 -0.390625 C 1.207031 -0.554688 1.003906 -0.753906 0.828125 -0.984375 C 0.660156 -1.222656 0.53125 -1.484375 0.4375 -1.765625 C 0.34375 -2.054688 0.296875 -2.363281 0.296875 -2.6875 C 0.296875 -3.019531 0.34375 -3.328125 0.4375 -3.609375 C 0.53125 -3.898438 0.660156 -4.160156 0.828125 -4.390625 C 1.003906 -4.617188 1.207031 -4.8125 1.4375 -4.96875 C 1.675781 -5.132812 1.9375 -5.257812 2.21875 -5.34375 C 2.5 -5.4375 2.796875 -5.484375 3.109375 -5.484375 C 3.484375 -5.484375 3.835938 -5.414062 4.171875 -5.28125 C 4.503906 -5.144531 4.796875 -4.957031 5.046875 -4.71875 C 5.117188 -4.65625 5.117188 -4.585938 5.046875 -4.515625 L 4.734375 -4.28125 C 4.660156 -4.21875 4.59375 -4.21875 4.53125 -4.28125 C 4.34375 -4.445312 4.125 -4.578125 3.875 -4.671875 C 3.632812 -4.773438 3.378906 -4.828125 3.109375 -4.828125 C 2.816406 -4.828125 2.539062 -4.773438 2.28125 -4.671875 C 2.019531 -4.566406 1.789062 -4.421875 1.59375 -4.234375 C 1.40625 -4.046875 1.253906 -3.820312 1.140625 -3.5625 C 1.035156 -3.300781 0.984375 -3.007812 0.984375 -2.6875 C 0.984375 -2.375 1.035156 -2.082031 1.140625 -1.8125 C 1.253906 -1.550781 1.410156 -1.320312 1.609375 -1.125 C 1.804688 -0.9375 2.03125 -0.789062 2.28125 -0.6875 C 2.539062 -0.59375 2.816406 -0.546875 3.109375 -0.546875 C 3.378906 -0.546875 3.632812 -0.59375 3.875 -0.6875 C 4.113281 -0.78125 4.328125 -0.910156 4.515625 -1.078125 L 4.515625 -1.71875 L 3.1875 -1.71875 C 3.09375 -1.71875 3.046875 -1.765625 3.046875 -1.859375 L 3.046875 -2.203125 C 3.046875 -2.296875 3.09375 -2.34375 3.1875 -2.34375 L 5.015625 -2.34375 C 5.109375 -2.34375 5.15625 -2.296875 5.15625 -2.203125 L 5.15625 -0.875 C 5.15625 -0.800781 5.132812 -0.742188 5.09375 -0.703125 C 4.84375 -0.441406 4.546875 -0.238281 4.203125 -0.09375 C 3.859375 0.0390625 3.492188 0.109375 3.109375 0.109375 Z M 3.109375 0.109375 "/></g></g></g><g fill="#fffbfa" fill-opacity="1"><g transform="translate(32.917085, 7.315753)"><g><path d="M 3.265625 -1.875 L 4.140625 -0.171875 C 4.160156 -0.117188 4.160156 -0.078125 4.140625 -0.046875 C 4.117188 -0.015625 4.082031 0 4.03125 0 L 3.5625 0 C 3.488281 0 3.4375 -0.0351562 3.40625 -0.109375 L 2.59375 -1.703125 C 2.519531 -1.691406 2.445312 -1.6875 2.375 -1.6875 C 2.300781 -1.6875 2.222656 -1.6875 2.140625 -1.6875 L 1.21875 -1.6875 L 1.21875 -0.140625 C 1.21875 -0.046875 1.164062 0 1.0625 0 L 0.671875 0 C 0.578125 0 0.53125 -0.046875 0.53125 -0.140625 L 0.53125 -5.234375 C 0.53125 -5.328125 0.578125 -5.375 0.671875 -5.375 L 2.09375 -5.375 C 2.820312 -5.375 3.351562 -5.21875 3.6875 -4.90625 C 4.03125 -4.59375 4.203125 -4.132812 4.203125 -3.53125 C 4.203125 -2.707031 3.890625 -2.15625 3.265625 -1.875 Z M 1.21875 -2.328125 L 2.046875 -2.328125 C 2.117188 -2.328125 2.207031 -2.328125 2.3125 -2.328125 C 2.414062 -2.328125 2.519531 -2.335938 2.625 -2.359375 C 2.738281 -2.390625 2.847656 -2.425781 2.953125 -2.46875 C 3.054688 -2.519531 3.148438 -2.585938 3.234375 -2.671875 C 3.328125 -2.765625 3.398438 -2.878906 3.453125 -3.015625 C 3.503906 -3.160156 3.53125 -3.332031 3.53125 -3.53125 C 3.53125 -3.726562 3.503906 -3.894531 3.453125 -4.03125 C 3.398438 -4.175781 3.332031 -4.289062 3.25 -4.375 C 3.164062 -4.46875 3.066406 -4.535156 2.953125 -4.578125 C 2.847656 -4.628906 2.738281 -4.664062 2.625 -4.6875 C 2.519531 -4.707031 2.414062 -4.71875 2.3125 -4.71875 C 2.21875 -4.726562 2.128906 -4.734375 2.046875 -4.734375 L 1.21875 -4.734375 Z M 1.21875 -2.328125 "/></g></g></g><g fill="#fffbfa" fill-opacity="1"><g transform="translate(40.35194, 7.315753)"><g><path d="M 2.609375 -5.375 L 4.828125 -0.171875 C 4.847656 -0.117188 4.847656 -0.078125 4.828125 -0.046875 C 4.804688 -0.015625 4.769531 0 4.71875 0 L 4.28125 0 C 4.238281 0 4.203125 -0.00390625 4.171875 -0.015625 C 4.148438 -0.0351562 4.128906 -0.0664062 4.109375 -0.109375 L 3.71875 -1.0625 L 1.234375 -1.0625 L 0.84375 -0.109375 C 0.8125 -0.0351562 0.753906 0 0.671875 0 L 0.234375 0 C 0.171875 0 0.128906 -0.015625 0.109375 -0.046875 C 0.0976562 -0.078125 0.101562 -0.117188 0.125 -0.171875 L 2.34375 -5.375 C 2.375 -5.457031 2.414062 -5.5 2.46875 -5.5 C 2.53125 -5.5 2.578125 -5.457031 2.609375 -5.375 Z M 2.46875 -4.109375 L 1.46875 -1.671875 L 3.484375 -1.671875 Z M 2.46875 -4.109375 "/></g></g></g><g fill="#fffbfa" fill-opacity="1"><g transform="translate(48.168303, 7.315753)"><g><path d="M 1.078125 0 L 0.6875 0 C 0.59375 0 0.546875 -0.046875 0.546875 -0.140625 L 0.546875 -5.265625 C 0.546875 -5.359375 0.5625 -5.425781 0.59375 -5.46875 C 0.625 -5.507812 0.664062 -5.519531 0.71875 -5.5 C 0.78125 -5.488281 0.835938 -5.445312 0.890625 -5.375 L 3.0625 -2.40625 L 5.234375 -5.375 C 5.285156 -5.445312 5.335938 -5.488281 5.390625 -5.5 C 5.441406 -5.519531 5.484375 -5.507812 5.515625 -5.46875 C 5.554688 -5.425781 5.578125 -5.359375 5.578125 -5.265625 L 5.578125 -0.140625 C 5.578125 -0.046875 5.53125 0 5.4375 0 L 5.046875 0 C 4.953125 0 4.90625 -0.046875 4.90625 -0.140625 L 4.90625 -3.8125 L 3.15625 -1.4375 C 3.125 -1.394531 3.085938 -1.375 3.046875 -1.375 C 3.015625 -1.375 2.984375 -1.394531 2.953125 -1.4375 L 1.21875 -3.8125 L 1.21875 -0.140625 C 1.21875 -0.046875 1.171875 0 1.078125 0 Z M 1.078125 0 "/></g></g></g><g fill="#fffbfa" fill-opacity="1"><g transform="translate(57.150191, 7.315753)"><g><path d="M 1.078125 0 L 0.6875 0 C 0.59375 0 0.546875 -0.046875 0.546875 -0.140625 L 0.546875 -5.265625 C 0.546875 -5.359375 0.5625 -5.425781 0.59375 -5.46875 C 0.625 -5.507812 0.664062 -5.519531 0.71875 -5.5 C 0.78125 -5.488281 0.835938 -5.445312 0.890625 -5.375 L 3.0625 -2.40625 L 5.234375 -5.375 C 5.285156 -5.445312 5.335938 -5.488281 5.390625 -5.5 C 5.441406 -5.519531 5.484375 -5.507812 5.515625 -5.46875 C 5.554688 -5.425781 5.578125 -5.359375 5.578125 -5.265625 L 5.578125 -0.140625 C 5.578125 -0.046875 5.53125 0 5.4375 0 L 5.046875 0 C 4.953125 0 4.90625 -0.046875 4.90625 -0.140625 L 4.90625 -3.8125 L 3.15625 -1.4375 C 3.125 -1.394531 3.085938 -1.375 3.046875 -1.375 C 3.015625 -1.375 2.984375 -1.394531 2.953125 -1.4375 L 1.21875 -3.8125 L 1.21875 -0.140625 C 1.21875 -0.046875 1.171875 0 1.078125 0 Z M 1.078125 0 "/></g></g></g><g fill="#fffbfa" fill-opacity="1"><g transform="translate(66.132079, 7.315753)"><g><path d="M 3.28125 0 L 0.671875 0 C 0.578125 0 0.53125 -0.046875 0.53125 -0.140625 L 0.53125 -5.234375 C 0.53125 -5.328125 0.578125 -5.375 0.671875 -5.375 L 3.28125 -5.375 C 3.375 -5.375 3.421875 -5.328125 3.421875 -5.234375 L 3.421875 -4.875 C 3.421875 -4.78125 3.375 -4.734375 3.28125 -4.734375 L 1.21875 -4.734375 L 1.21875 -2.34375 L 3 -2.34375 C 3.09375 -2.34375 3.140625 -2.296875 3.140625 -2.203125 L 3.140625 -1.859375 C 3.140625 -1.765625 3.09375 -1.71875 3 -1.71875 L 1.21875 -1.71875 L 1.21875 -0.640625 L 3.28125 -0.640625 C 3.375 -0.640625 3.421875 -0.59375 3.421875 -0.5 L 3.421875 -0.140625 C 3.421875 -0.046875 3.375 0 3.28125 0 Z M 3.28125 0 "/></g></g></g><g fill="#fffbfa" fill-opacity="1"><g transform="translate(72.698915, 7.315753)"><g><path d="M 3.265625 -1.875 L 4.140625 -0.171875 C 4.160156 -0.117188 4.160156 -0.078125 4.140625 -0.046875 C 4.117188 -0.015625 4.082031 0 4.03125 0 L 3.5625 0 C 3.488281 0 3.4375 -0.0351562 3.40625 -0.109375 L 2.59375 -1.703125 C 2.519531 -1.691406 2.445312 -1.6875 2.375 -1.6875 C 2.300781 -1.6875 2.222656 -1.6875 2.140625 -1.6875 L 1.21875 -1.6875 L 1.21875 -0.140625 C 1.21875 -0.046875 1.164062 0 1.0625 0 L 0.671875 0 C 0.578125 0 0.53125 -0.046875 0.53125 -0.140625 L 0.53125 -5.234375 C 0.53125 -5.328125 0.578125 -5.375 0.671875 -5.375 L 2.09375 -5.375 C 2.820312 -5.375 3.351562 -5.21875 3.6875 -4.90625 C 4.03125 -4.59375 4.203125 -4.132812 4.203125 -3.53125 C 4.203125 -2.707031 3.890625 -2.15625 3.265625 -1.875 Z M 1.21875 -2.328125 L 2.046875 -2.328125 C 2.117188 -2.328125 2.207031 -2.328125 2.3125 -2.328125 C 2.414062 -2.328125 2.519531 -2.335938 2.625 -2.359375 C 2.738281 -2.390625 2.847656 -2.425781 2.953125 -2.46875 C 3.054688 -2.519531 3.148438 -2.585938 3.234375 -2.671875 C 3.328125 -2.765625 3.398438 -2.878906 3.453125 -3.015625 C 3.503906 -3.160156 3.53125 -3.332031 3.53125 -3.53125 C 3.53125 -3.726562 3.503906 -3.894531 3.453125 -4.03125 C 3.398438 -4.175781 3.332031 -4.289062 3.25 -4.375 C 3.164062 -4.46875 3.066406 -4.535156 2.953125 -4.578125 C 2.847656 -4.628906 2.738281 -4.664062 2.625 -4.6875 C 2.519531 -4.707031 2.414062 -4.71875 2.3125 -4.71875 C 2.21875 -4.726562 2.128906 -4.734375 2.046875 -4.734375 L 1.21875 -4.734375 Z M 1.21875 -2.328125 "/></g></g></g></g></g></svg>